<?xml version="1.0" encoding="utf-8"?>
<!-- Generator: Adobe Illustrator 16.0.0, SVG Export Plug-In . SVG Version: 6.00 Build 0)  -->
<!DOCTYPE svg PUBLIC "-//W3C//DTD SVG 1.1//EN" "http://www.w3.org/Graphics/SVG/1.1/DTD/svg11.dtd">
<svg version="1.1" id="Layer_1" xmlns="http://www.w3.org/2000/svg" xmlns:xlink="http://www.w3.org/1999/xlink" x="0px" y="0px"
	 width="48px" height="39.333px" viewBox="0 0 48 39.333" enable-background="new 0 0 48 39.333" xml:space="preserve">
<g display="none">
	<path display="inline" fill="none" stroke="#0B132B" stroke-miterlimit="10" d="M23.292,1.879c0,0-0.849,0.105-0.602,0.992
		c0,0-3.577,1.698-0.672,4.566c0,0-0.813,0.284-0.318,0.672c0,0-5.383,1.949-5.561,2.48c0,0-1.699-0.603-1.735,1.097
		c0,0,0,1.133,0.92,0.991v1.027c0,0-0.92,0.035-0.424,1.098c0,0-2.869,0.566-4.07,3.187c0,0-3.188-6.939-7.755-6.515
		c0,0,1.273,1.522-0.072,2.903c0,0-0.071,0.531,0.568,0.425c0,0,0.104-1.134,0.672-0.92c0,0,1.38,0.92,1.875,3.788
		c0,0,0.603,5.63,3.399,6.834c0,0,0.744,4.284,3.541,5.878c0,0-1.203,1.876,0.071,2.833c0,0,11.001,6.29,20.925,0
		c0,0,1.773-1.24-0.174-2.975c0,0,2.512-1.664,2.938-4.569c0,0,1.311-1.485,6.197-0.988c0,0,5.451-7.331-4.355-11.333
		c0,0-2.799,1.452-4,2.797c0,0-0.887-0.919-2.799-1.31c0,0,0.672-0.955-0.602-1.098v-0.956c0,0,1.344-0.106,0.918-1.452
		c0,0-0.281-1.133-1.484-0.601c0,0-4.002-2.479-5.667-2.551c0,0,0.461-0.602-0.319-0.672c0,0,3.117-2.585-0.707-4.462
		C24,3.047,24.424,1.914,23.292,1.879z"/>
	<path display="inline" fill="none" stroke="#0B132B" stroke-miterlimit="10" d="M36.801,18.609c0,0,1.041,1.396,0.861,4.014
		c0,0,1.834-0.992,4.209-0.555c0,0,0.885-3.642-3.133-5.11C38.738,16.958,37.342,17.996,36.801,18.609z"/>
</g>
<g display="none">
	<path display="inline" fill="none" stroke="#0B132B" stroke-miterlimit="10" d="M11.183,4.331c0,0-1.253,0.586-1.177,3.288
		c0,0-1.722,1.45-1.957,1.726c-0.234,0.272-0.039,0.43-0.664,1.134c-0.628,0.706-3.017,3.643-1.529,5.484
		c0,0,1.176,0.743,2.821-0.395l0.899-0.429c0,0,1.49,0.274,1.999-1.252c0,0,0.195-0.274,0.586,0.509c0,0,2.389,3.915,2.782,7.285
		c0,0-4.272,6.932-4.739,6.892c-0.47-0.037-2.233-1.41-2.233-1.41l-1.098,1.801c0,0,18.368,15.507,34.506-0.077l-1.566-1.764
		l-2.078,1.841c0,0-3.444-5.403-2.154-7.047c0,0,4.19-3.368,0.901-8.188c0,0,4.62-2.505,4.19,3.526c0,0-0.391,7.909,3.328,6.619
		c0,0-0.374-1.165-0.351-2.938c0.079-4.856,1.703-11.403-5.093-10.65c-0.943,0.101-1.643,0.505-3.209,2.034
		c0,0-3.252-2.311-7.324,0.706c0,0-5.562,2.857-8.067-0.158c0,0-4.818-5.249-7.21-4.817C12.746,8.05,12.944,4.917,11.183,4.331z"/>
	<path display="inline" fill="none" stroke="#0B132B" stroke-miterlimit="10" d="M12.816,29.851l5.062-6.523
		c0,0,5.955,2.973,11.959-0.684c0,0,0.522-0.052,0.992,0.576c0.472,0.628,4.802,7.205,4.802,7.205S27.07,37.112,12.816,29.851z"/>
</g>
<g>
	<path fill="none" stroke="#0B132B" stroke-miterlimit="10" d="M22.255,4.999l-1.196,1.617c0,0-10.751,3.161-12.577,4.144
		c0,0,0.984,5.551,2.812,6.323c0,0,3.232-1.685,5.06-1.123l-0.142,18.272c0,0,7.871,2.036,18.062,0l0.068-18.412l4.849,1.475
		c0,0,2.317-2.388,2.81-6.396c0,0-5.973-2.598-12.647-4.428l-0.974-1.771C28.379,4.701,25.979,5.56,22.255,4.999z"/>
	<path fill="none" stroke="#0B132B" stroke-miterlimit="10" d="M24.714,9.213l-1.405,1.513c0,0-1.054-0.177-2.107-3.938l0.982-1.298
		C22.184,5.49,23.554,8.584,24.714,9.213z"/>
	<path fill="none" stroke="#0B132B" stroke-miterlimit="10" d="M25.733,9.074c0,0,2.003-1.474,2.601-3.69l1.019,1.3
		c0,0,0.141,1.758-2.108,4.006L25.733,9.074z"/>
	<line fill="none" stroke="#0B132B" stroke-miterlimit="10" x1="24.749" y1="9.074" x2="25.627" y2="9.074"/>
</g>
<g>
	<path fill="none" stroke="#0B132B" stroke-miterlimit="10" d="M146.399,4.5c0,0-6.218-0.141-7.052,11.73l-2.097,0.07l-3.911,16.549
		h4.677c0,0,0.072,1.049,0.699,1.187c0,0,0.769,0.187,0.796-1.187l14.22-0.036c0,0-0.141,1.223,0.731,1.363
		c0.875,0.139,0.629-1.291,0.629-1.291l4.807,0.012l-4.011-16.635l-1.388,0.014C154.5,16.276,152.775,3.614,146.399,4.5z"/>
	<path fill="none" stroke="#0B132B" stroke-miterlimit="10" d="M140.148,16.266h13.514c0,0-1.224-11.14-6.74-11.176
		C146.922,5.09,141.02,4.522,140.148,16.266z"/>
	<path fill="none" stroke="#0B132B" stroke-miterlimit="10" d="M137.251,16.3c0,0,3.42,13.894,9.193,13.662
		c0,0,5.331,1.001,9.383-13.662"/>
</g>
<g>
	<path fill="none" stroke="#0B132B" stroke-miterlimit="10" d="M190.687,9.705c0,0-5.627-5.826-15.822-4.66v23.682
		c0,0,11.938-0.872,15.822,5.729c0,0,5.195-7.377,15.825-5.34V5.237C206.512,5.237,199.033,3.101,190.687,9.705z"/>
	<line fill="none" stroke="#0B132B" stroke-miterlimit="10" x1="190.783" y1="34.139" x2="190.783" y2="9.787"/>
	<path fill="none" stroke="#0B132B" stroke-miterlimit="10" d="M174.572,7.178c0,0-3.153,0.099-3.153,0.389V33.34l15.918,0.193
		c0,0-0.099,1.214,0.874,1.214s2.425,0,2.425,0h3.058c0,0,0.678,0,0.535-1.265l15.97,0.05V7.228c0,0-3.497-0.389-3.642-0.05"/>
</g>
<g>
	<polygon fill="none" stroke="#0B132B" stroke-miterlimit="10" points="232.393,13.105 232.393,18.63 246.562,18.63 261.087,18.748 
		261.087,13.105 	"/>
	<polyline fill="none" stroke="#0B132B" stroke-miterlimit="10" points="233.955,18.991 233.955,33.997 259.646,33.997 
		259.646,18.809 	"/>
	<polyline fill="none" stroke="#0B132B" stroke-miterlimit="10" points="246.922,34.116 246.922,19.108 246.979,12.985 	"/>
	<path fill="none" stroke="#0B132B" stroke-miterlimit="10" d="M246.802,12.264"/>
	<path fill="none" stroke="#0B132B" stroke-miterlimit="10" d="M241.459,13.105c0,0-4.262-2.94-1.619-4.801
		c0,0,2.1-2.642,7.14,4.681"/>
	<path fill="none" stroke="#0B132B" stroke-miterlimit="10" d="M244.85,10.374c0,0-0.899-5.641,2.068-5.761
		c2.972-0.12,2.244,4.946,2.244,4.946"/>
	<path fill="none" stroke="#0B132B" stroke-miterlimit="10" d="M246.86,12.416c0,0,3.122-5.312,6.454-4.382
		c3.328,0.93-0.842,4.951-0.842,4.951"/>
</g>
</svg>
