<?xml version="1.0" encoding="utf-8"?>
<!-- Generator: Adobe Illustrator 16.0.0, SVG Export Plug-In . SVG Version: 6.00 Build 0)  -->
<!DOCTYPE svg PUBLIC "-//W3C//DTD SVG 1.1//EN" "http://www.w3.org/Graphics/SVG/1.1/DTD/svg11.dtd">
<svg version="1.1" xmlns="http://www.w3.org/2000/svg" xmlns:xlink="http://www.w3.org/1999/xlink" x="0px" y="0px" width="278.5px"
	 height="289.164px" viewBox="0 0 278.5 289.164" enable-background="new 0 0 278.5 289.164" xml:space="preserve">
<g id="Layer_1">
	<g id="Layer_1_1_">
		<g id="Dentures" display="none">
			<path display="inline" fill="none" stroke="#759FAF" stroke-width="0.75" stroke-miterlimit="10" d="M21.871,121.849
				c0,0,0.414,19.782,9.208,19.401c8.792-0.385,10.998,0.285,14.148-0.766c1.729-7.378,1.457-25.105,0.311-27.785
				c0,0-12.17-6.06-17.135-2.882C21.896,111.609,21.871,121.849,21.871,121.849z"/>
			<path display="inline" fill="none" stroke="#759FAF" stroke-width="0.75" stroke-linejoin="round" stroke-miterlimit="10" d="
				M45.228,140.485c0,0,7.297,14.568,50.517,6.922c0,0,1.071-23.746,0.179-41.824"/>
			<path display="inline" fill="none" stroke="#759FAF" stroke-width="0.75" stroke-miterlimit="10" d="M96.024,147.429
				c0,0,18.013,16.858,51.012,1.086v-43.67"/>
			<path display="inline" fill="none" stroke="#759FAF" stroke-width="0.75" stroke-miterlimit="10" d="M146.577,148.515
				c0,0,24.479,17.969,53.163,0l0.389-47.678"/>
			<path display="inline" fill="none" stroke="#759FAF" stroke-width="0.75" stroke-miterlimit="10" d="M199.636,147.595
				c0,0,20.4,16.596,43.4-5.967v-37.783"/>
			<path display="inline" fill="none" stroke="#759FAF" stroke-width="0.75" stroke-miterlimit="10" d="M242.576,141.628
				c0,0,25.761,7.35,29.778-22.292"/>
			<path display="inline" fill="none" stroke="#759FAF" stroke-width="0.75" stroke-miterlimit="10" d="M28.017,140.866
				c0,0-12.235,22.947-11.854,29.829c0,0,11.089,26.39,31.36,16.823l-1.914-45.504"/>
			<path display="inline" fill="none" stroke="#759FAF" stroke-width="0.75" stroke-miterlimit="10" d="M47.437,187.348
				c0,0,2.6,25.799,43.6,12.789v-52.296"/>
			<path display="inline" fill="none" stroke="#759FAF" stroke-width="0.75" stroke-miterlimit="10" d="M90.103,199.327
				c0,0,23.935,40.773,55.934,6.359v-57.847"/>
			<path display="inline" fill="none" stroke="#759FAF" stroke-width="0.75" stroke-miterlimit="10" d="M145.735,205.831
				c0,0,36.301,31.979,54.301-8.463v-49.526"/>
			<path display="inline" fill="none" stroke="#759FAF" stroke-width="0.75" stroke-miterlimit="10" d="M200.177,198.93
				c0,0,28.859,20.812,42.859-9.018v-47.072"/>
			<path display="inline" fill="none" stroke="#759FAF" stroke-width="0.75" stroke-miterlimit="10" d="M242.576,189.913
				c0,0,36.272,11.562,29.257-26.965c-1.146-6.297-8.037-25.302-8.037-25.302"/>
			<path display="inline" fill="#D88FBF" d="M270.12,154.656c-1.834-6.068,10.48,7.586,11.471,11.545
				c3.019,12.024-0.004,49.621-0.004,49.621C137.019,337.377,8.511,214.281,8.511,214.281s-4.105-35.963,1.151-46.543
				c2.565-5.16,7.388-4.754,7.388-4.754s0.459,25.657,31.152,21.038c0,0,2.762,25.646,42.919,13.812c0,0,22.761,37.274,55.747,4.963
				c0,0,34.896,30.522,52.68-5.828c0,0,28.688,19.043,43.314-8.656C242.863,188.313,283.032,197.449,270.12,154.656z"/>
			<path display="inline" fill="#D88FBF" d="M15.767,85.411c0,0-1.91,23.39,6.104,36.439c0,0-1.522-21.014,23.666-9.15
				c0,0,20.616-41.529,50.386-7.118c0,0,20.61-45.087,50.381,0c0,0,27.486-41.528,53.824-4.745c0,0,21.76-21.357,43.51,4.745
				c0,0,32.063-5.932,28.631,14.239c0,0,11.451-10.682,2.291-42.716c0,0-34.354,2.374-70.998-16.611c0,0-29.771-18.985-57.258,7.12
				c0,0-29.771-24.919-66.414-2.968C79.89,64.646,35.998,90.872,15.767,85.411z"/>
			<g display="inline">
				<path fill="#E0BF1E" d="M155.22,9.297c0,0,7.65,15.001,7.442,38.683c0,0,36.642-3.316,71.606,20.869
					c0,0,10.36-16.809,27.293-28.617c0,0-38.224,24-15.155-20.037c0,0-39.147,41.686-30.455-18.611c0,0-26.313,55.132-36.209-1.398
					C179.742,0.185,175.578,49.051,155.22,9.297z"/>
				<path fill="#E0BF1E" d="M222.739-2.217c-0.868,2.944-3.956,4.631-6.896,3.769c-2.941-0.863-4.633-3.949-3.769-6.893
					c0.864-2.945,3.948-4.63,6.89-3.771C221.91-8.248,223.599-5.16,222.739-2.217z"/>
				<path fill="#E0BF1E" d="M184.009-3.883c-0.759,2.587-3.466,4.066-6.059,3.306c-2.576-0.756-4.062-3.463-3.303-6.045
					c0.758-2.585,3.468-4.066,6.049-3.308C183.281-9.173,184.763-6.464,184.009-3.883z"/>
				<path fill="#E0BF1E" d="M254.368,17.215c-0.758,2.582-3.46,4.062-6.045,3.306c-2.594-0.758-4.064-3.465-3.309-6.046
					c0.75-2.587,3.465-4.068,6.043-3.311C253.642,11.92,255.127,14.631,254.368,17.215z"/>
				<path fill="#E0BF1E" d="M267.614,38.931c-0.564,1.924-2.581,3.028-4.506,2.46c-1.922-0.562-3.021-2.577-2.463-4.499
					c0.564-1.923,2.584-3.023,4.506-2.463C267.076,34.994,268.177,37.009,267.614,38.931z"/>
				<path fill="#E0BF1E" d="M158.522,6.49c-0.566,1.919-2.582,3.021-4.502,2.458c-1.922-0.564-3.028-2.577-2.463-4.503
					c0.563-1.921,2.58-3.022,4.498-2.459C157.983,2.549,159.084,4.562,158.522,6.49z"/>
			</g>
		</g>
		<g id="Tea" display="none">
			<g display="inline">
				<path fill="#588C6D" d="M94.615,251.313c0,0,42.87,21.082,83.923,0.759"/>
				<path fill="#588C6D" stroke="#FFFFFF" stroke-width="0.25" stroke-miterlimit="10" d="M50.634,222.863
					c0,0,5.324,32.414,92.715,32.414c0,0,58.172,3.414,76.056-32.354"/>
				<path fill="#75BC93" d="M72.532,178.229c0,0-18.199,15.265-26.329,15.265c0,0-33.737-4.879-34.957,14.226
					c0,0-3.659,12.194,30.892,11.787c0,0,9.756,1.627,28.047,16.666c0,0,21.137,10.976,40.24,4.065c0,0,41.459-8.537,60.563,3.252
					c0,0,26.827,0.812,43.086-17.074c0,0,9.756-9.754,36.583-9.348c0,0,25.607-21.138-14.229-23.168c0,0-13.818,2.03-25.201-5.285
					c0,0-6.004-3.418-19.012-5.043"/>
				<path fill="#F8ED32" d="M173.974,202.702c0,0,33.061,15.99,2.168,24.934c-22.414,6.486-83.645,7.711-95.656-10.567
					c-2.32-3.531-1.356-7.854,12.734-14.093"/>
				<path fill="#F8ED32" d="M205.851,112.165c0,0,59.857-53.312,71.267,2.987c2.362,11.648,0.419,31.554-36.456,30.492
					c-36.874-1.057-18.316,14.108-17.832,20.979c0.29,4.062-7.35,11.429-16.292-0.098c0,0-4.813-8.503,3.806-14.938
					c0,0,1.237-12.038-11.668-6.458"/>
				<path fill="#FFFFFF" d="M201.882,129.066c0,0,10.082-2.444,15.217,11.054c0,0,5.561-1.609,7.471-1.733
					c10.494-0.684,36.336,3.575,39.588-14.236c2.449-13.443-5.818-36.903-60.241-2.604L201.882,129.066z"/>
				<g>
					<path fill="#75BC93" d="M96.743,205.411c0,0-7.318,16.533,24.386,16.533c0,0,29.709,0.639,39.839-0.812
						c4.771-0.686,16.797-3.795,10.564-15.988"/>
				</g>
				<path fill="none" d="M195.921,175.063"/>
				<path fill="#75BC93" stroke="#FFFFFF" stroke-width="0.25" stroke-miterlimit="10" d="M31.205,64.169
					c0,0,45.755,39.092,39.252,91.66c0,0-10.299,54.738,64.493,56.363c0,0,63.41,4.338,62.865-56.363
					c0,0,1.494-67.208,42.682-91.596"/>
				<path fill="#BBBE9F" d="M243.349,61.044c0,8.677-47.896,12.408-107.311,12.408c-59.417,0-107.855-3.73-107.855-12.408
					c0-8.679,44.627-19.571,104.043-19.571S243.349,52.365,243.349,61.044z"/>
				<path fill="none" d="M48.386,83.264c0,0,72.475,14.572,171.863,0.096"/>
			</g>
		</g>
		<g id="Hat" display="none">
			<g display="inline">
				<path fill="#93764C" d="M197.989,78.469C141.075,11.281,98.906,66.458,89.734,90.978c-40.142,107.287-81.72,55.94-81.72,55.94
					S127.729,372.92,284.001,92.682c0,0-28.811-30.559-55.001,28.808C229,121.49,206.558,88.587,197.989,78.469z"/>
				<path fill="#9E8564" d="M229,121.49c0,0-30.282,143.438-163.856,90.185c10.535,7.363,92.707,79.621,172.59-84.505
					c6.419-12.702,22.263-37.979,42.777-37.542C280.511,89.626,252.573,67.141,229,121.49z"/>
				<path fill="#9D9D9D" d="M77.747,117.452c0,0,81.191,41.688,140.122-12.328l6.547,9.165c0,0-47.157,89.904-154.541,17.88
					L77.747,117.452z"/>
				<path fill="#83CDCC" d="M110.241,160.75c0,0-4.911,21.934,9.166,18.334c0,0,14.732-3.604-2.945-19.973
					C116.462,159.113,114.169,161.407,110.241,160.75z"/>
				<path fill="#83CDCC" d="M116.754,159.322c0,0,19.591,11.028,20.2-3.49c0,0,0.805-15.147-19.977-2.938
					C116.978,152.893,118.513,155.745,116.754,159.322z"/>
				<path fill="#83CDCC" d="M117.306,153.15c0,0,16.221-15.562,2.502-20.342c0,0-14.269-5.152-8.594,18.271
					C111.213,151.077,114.39,150.432,117.306,153.15z"/>
				<path fill="#83CDCC" d="M111.161,150.749c0,0-6.568-21.491-17.018-11.405c0,0-11.037,10.412,12.439,15.913
					C106.584,155.256,107.433,152.127,111.161,150.749z"/>
				<path fill="#83CDCC" d="M106.619,155.098c0,0-22.452,1.045-15.261,13.67c0,0,7.363,13.271,18.498-8.112
					C109.856,160.656,107.042,159.061,106.619,155.098z"/>
				<ellipse fill="#D3CB67" cx="112.287" cy="155.922" rx="5.729" ry="5.4"/>
			</g>
		</g>
		<g id="Jumper" display="none">
			<path display="inline" fill="#1A3A24" stroke="#152819" stroke-miterlimit="10" d="M-15.459,193.68l-0.38,13.146
				c0,0,22.689,10.222,46.914,1.457l0.385-11.315"/>
			<path display="inline" fill="#1A3A24" stroke="#152819" stroke-miterlimit="10" d="M54.313,209.684v13.146
				c0,0,100.767,24.828,162.106,0l0.187-10.812"/>
			<path display="inline" fill="#1A3A24" stroke="#152819" stroke-width="0.5" stroke-miterlimit="10" d="M241.987,199.49v8.76
				c0,0,20.434,6.207,46.722-0.364l-0.438-16.414"/>
			<path display="inline" fill="#1A3A24" stroke="#152819" stroke-width="0.5" stroke-miterlimit="10" d="M90.823-40.048
				c0,0-32.862,8.035-54.768,24.097c0,0-75.945,94.197-52.576,208.842c0,0,18.257,20.447,48.926,2.922
				c0,0,9.494-106.613,18.256-119.028c0,0-2.193,126.332,0.727,131.44c0,0,78.869,32.125,167.955,2.922
				c0,0,5.836-81.055,3.646-129.983c0,0,14.605,112.457,18.261,117.57c0,0,49.647,8.769,48.923-14.604
				c0,0,7.301-126.325-59.146-202.999c0,0-26.288-21.179-54.038-22.642L90.823-40.048z"/>
			<path display="inline" fill="none" stroke="#152819" stroke-width="0.5" stroke-miterlimit="10" d="M37.519-17.408
				c0,0,23.429,28.865,12.479,95.317"/>
			<path display="inline" fill="none" stroke="#152819" stroke-width="0.5" stroke-miterlimit="10" d="M226.642-21.791
				c0,0-17.978,58.417-3.379,105.516"/>
			<path display="inline" fill="none" stroke="#152819" stroke-width="0.5" stroke-miterlimit="10" d="M90.823-40.048
				c0,0,46.372,51.845,89.447-1.463"/>
			<path display="inline" fill="none" stroke="#152819" stroke-width="0.5" stroke-miterlimit="10" d="M97.216-39.864
				c0,0,39.971,38.191,77.4-1.604"/>
		</g>
		<g id="Book" display="none">
			<g display="inline">
				<path fill="none" stroke="#000000" stroke-miterlimit="10" d="M219.847,173.458"/>
				<path fill="#3C39D3" d="M216.126,176.93l7.91-0.213V-75.655H61.687l-22.971,22.35v252.373h163.901V-53.771L44.304-53.925
					l18.392-18.006h157.149l0.467,245.389c0,0-10.942,6.984-17.928,16.062"/>
				<path fill="none" stroke="#000000" stroke-miterlimit="10" d="M57.253-67.252"/>
				<polygon fill="#25258E" points="54.546,-52.839 54.585,199.031 38.716,199.008 38.716,-53.305 				"/>
				<text transform="matrix(1 0 0 1 79.9419 8.9502)" fill="#F3F2F1" font-family="'Lovefern-Regular'" font-size="43.7711">Pride and </text>
				<text transform="matrix(1 0 0 1 76.9009 42.9951)" fill="#F3F2F1" font-family="'Lovefern-Regular'" font-size="43.7711">Prejudice</text>
				<text transform="matrix(1 0 0 1 97.6948 194.7222)" fill="#F3F2F1" font-family="'Lovefern-Regular'" font-size="19.5565">Jane Austen</text>
				<polyline fill="none" stroke="#707075" stroke-width="0.25" stroke-miterlimit="10" points="46.32,-56.098 205.412,-56.098 
					205.318,186.055 				"/>
				<polyline fill="none" stroke="#707075" stroke-width="0.25" stroke-miterlimit="10" points="50.204,-59.976 209.138,-59.824 
					209.138,182.42 				"/>
				<polyline fill="none" stroke="#707075" stroke-width="0.25" stroke-miterlimit="10" points="54.081,-63.704 212.861,-63.549 
					212.861,179.045 				"/>
				<polyline fill="none" stroke="#707075" stroke-width="0.25" stroke-miterlimit="10" points="58.272,-67.739 216.587,-67.584 
					216.587,175.941 				"/>
				<polygon fill="#6D0909" points="55.013,-62.155 44.536,-53.46 44.536,-6.276 52.959,-16.21 61.536,-6.276 61.536,-53.771 
					70.845,-62.155 				"/>
			</g>
		</g>
	</g>
	<g id="Layer_2" display="none">
		<g display="inline">
			<g>
				<polygon fill="#ABB1B7" stroke="#545252" stroke-width="0.25" stroke-linecap="round" stroke-miterlimit="10" points="
					146.417,177.666 216.982,177.666 223.032,221.005 140.366,221.005 				"/>
				<polyline fill="#ABB1B7" stroke="#545252" stroke-width="0.25" stroke-linecap="round" stroke-miterlimit="10" points="
					140.387,221.167 140.387,232.52 223.012,232.52 223.012,221.167 				"/>
			</g>
			<g>
				<path d="M206.672,155.938c0,0-7.688,47.29-9.845,51.606c0,0,1.913,1.473,9.761,2.94v2.554h-9.811l-1.078-1.668h-0.295v1.668
					h-4.414c0,0,0-4.81,0.49-5.787c0,0,3.986-40.383-8.307-48.49l-1.254-0.01c-12.294,8.107-8.307,48.492-8.307,48.492
					c0.49,0.979,0.49,5.784,0.49,5.784h-4.414v-1.666h-0.295l-1.078,1.666h-9.811v-2.549c7.848-1.474,9.76-2.942,9.76-2.942
					c-2.158-4.316-9.955-52.445-9.955-52.445l23.805-6.737L206.672,155.938z"/>
				<polyline fill="#FF0000" stroke="#BC2828" stroke-width="0.15" stroke-miterlimit="10" points="180.639,109.052 
					178.029,126.219 181.562,136.52 185.387,126.611 182.966,109.049 				"/>
				<path fill="#1E202F" d="M171.359,99.733c0,0-2.844-0.49-3.825,1.079h-6.671c0,0-1.766-5.101-6.473-1.766l-11.674,48.557
					l8.928,0.688l6.277-28.839c0,0-2.943,30.605,0.393,36.294h18.246l5.688-7.062l6.278,7.062l18.146,0.192
					c0,0,3.238-17.851-1.666-41.197l9.222,9.809c0,0,2.551,1.57,4.119-0.393l16.873-20.404l-6.867-5.886l-12.557,14.714
					l-9.613-9.908c0,0-1.961-1.864-5.101-1.864h-7.259c0,0-0.307-0.946-0.59-0.981c-1.246-0.153-2.746,2.747-3.924,3.139
					c-1.178,0.392-0.195,15.303-7.65,33.548c0,0-7.455-19.226-7.848-34.137C173.812,102.382,171.85,100.617,171.359,99.733z"/>
				<path fill="#FAD3C0" d="M143.992,147.996l0.098,1.373c0,0-3.434,2.207-6.278,7.111c0,0-0.539,1.373,1.913,0.49l1.421-1.717
					c0,0,0.344-0.1,0.344,0.933l-0.785,8.044c0,0,0.638,1.52,1.471-0.146l1.03-6.229c0,0,0.833-0.539,0.735,0.491l-0.785,7.308
					c0,0,0.687,1.324,1.373-0.488l1.178-6.916c0,0,0.785-0.197,0.688,0.488l-0.59,6.867c0,0,0.785,1.128,1.228-0.245
					c0.44-1.374,0.883-6.671,0.883-6.671s0.637-0.343,0.588,0.439c-0.049,0.785,0,3.875,0,3.875s0.687,0.98,1.177-0.344
					c0,0,1.178-11.82,0.688-14.076"/>
				
					<line fill="none" stroke="#CECDCC" stroke-width="0.15" stroke-miterlimit="10" x1="179.928" y1="107.75" x2="174.891" y2="109.936"/>
				<path fill="#FAD3C0" d="M229.309,98.756l1.041-0.903c0,0-0.865-3.988,0.59-9.469c0,0,0.588-1.352,1.699,1.005l-0.207,2.223
					c0,0,0.172,0.311,0.901-0.417l5.132-6.243c0,0,1.526-0.624,0.938,1.145l-3.678,5.131c0,0,0.211,0.972,0.867,0.175l4.613-5.723
					c0,0,1.423-0.451,0.626,1.318l-4.06,5.723c0,0,0.416,0.693,0.834,0.138l4.438-5.272c0,0,1.352-0.242,0.691,1.041
					c-0.658,1.283-4.094,5.342-4.094,5.342s0.209,0.694,0.73,0.104c0.518-0.59,2.738-2.74,2.738-2.74s1.179-0.208,0.589,1.074
					c0,0-7.524,9.191-9.47,10.441"/>
				
					<line fill="none" stroke="#CECDCC" stroke-width="0.15" stroke-miterlimit="10" x1="183.816" y1="107.582" x2="188.134" y2="109.936"/>
				
					<rect x="180.21" y="105.87" transform="matrix(0.7118 0.7024 -0.7024 0.7118 128.0575 -96.748)" fill="#FF0000" stroke="#BC2828" stroke-width="0.15" stroke-miterlimit="10" width="3.424" height="3.604"/>
				<path d="M181.659,136.52l-13.046-24.817l1.373-3.041l-3.336-2.551l0.785-5.002c0,0,0.639-1.226,1.668-1.275l4.562,1.03"/>
				<path d="M182.052,136.322l12.429-23.947l-1.373-3.041l3.336-2.55l-0.783-5.003c0,0-0.639-1.226-1.668-1.275l-4.562,1.03"/>
				<g>
					<path fill="#FAD3C0" d="M228.504,42.847c-1.396,16.955-3.99,19.545-3.99,19.545h-2.99c-1.196,19.149-25.73,37.101-25.73,37.101
						s-10.329,5.694-14.132,5.638c-3.54-0.052-12.993-5.638-12.993-5.638c-15.957-10.174-27.575-38.57-27.575-38.57
						s-2.465,1.586-3.341,1.372c-1.65-0.403-1.396-15.958-1.396-15.958l5.285-46.773h84.072L228.504,42.847z"/>
					<path fill="#F7F3C1" d="M198.783-46.114c0,0,9.175,12.367,8.379,13.763c0,0-43.284-30.518-71.606,10.969
						c0,0,14.162-10.172,15.958-9.873c0,0-35.006,25.131-12.268,85.567c0,0,6.283-14.66,7.48-24.233c0,0,26.625-5.984,38.295-22.44
						c0,0-0.301,9.275-8.676,21.243c0,0,16.754-5.685,25.729-24.832c0,0-2.097,15.259-14.062,22.738c0,0,7.479,1.197,21.24-16.456
						c0,0,2.689,12.567,8.079,16.756l0.599-6.881c0,0,5.387,31.414,6.281,32.013c0,0,21.043-35.903,1.496-69.212
						c0,0,5.982,5.984,7.581,10.571c0,0,0.396-22.34-21.94-23.735C211.35-30.157,211.947-45.915,198.783-46.114z"/>
				</g>
				<path fill="none" stroke="#EAC2B2" stroke-width="0.5" stroke-linecap="round" stroke-miterlimit="10" d="M186.762,35.522V50.29
					c4.707,4.624,4.006,9.625,4.006,9.625h-4.59c-4.787,7.869-11.572-0.083-11.572-0.083l-2.607,0.115
					c-0.199-6.305,3.775-9.447,3.775-9.447V35.522"/>
				<path fill="#EAC2B2" stroke="#EAC2B2" stroke-miterlimit="10" d="M167.822,72.626c0,0,2.792,0,3.591-0.837
					c0,0,6.585-3.565,9.776,1.465c0,0,0.896,0.63,1.099,0.106c0,0,5.886-6.289,11.272-1.571c0,0,2.396,1.047,2.895,0.837
					s-13.27,3.982-14.665,3.982C181.79,76.608,168.32,74.62,167.822,72.626z"/>
				<path fill="none" stroke="#EAC2B2" stroke-width="0.5" stroke-miterlimit="10" d="M171.613,81.949h20.353
					C191.966,81.949,183.188,105.553,171.613,81.949z"/>
				<path fill="#EAC2B2" stroke="#EAC2B2" stroke-linecap="round" stroke-miterlimit="10" d="M169.844,37.933
					c0,0-2.595,4.61-7.584,2.934c0,0,1.399-2.725,4.592-2.096C166.852,38.77,169.895,38.037,169.844,37.933z"/>
				<path fill="none" stroke="#EAC2B2" stroke-width="0.5" stroke-linecap="round" stroke-miterlimit="10" d="M171.812,55.335
					c0,0-9.181,8.827-9.379,16.183"/>
				<path fill="none" stroke="#EAC2B2" stroke-width="0.5" stroke-linecap="round" stroke-miterlimit="10" d="M191.165,55.335
					c0,0,9.181,8.827,9.379,16.183"/>
				<path fill="none" stroke="#EAC2B2" stroke-width="0.5" stroke-linecap="round" stroke-miterlimit="10" d="M152.23,67.315
					c0,0,3.418,20.628,10.203,26.304"/>
				<path fill="#EAC2B2" stroke="#EAC2B2" stroke-linecap="round" stroke-miterlimit="10" d="M165.627,28.605h6.584V32.3
					C172.212,32.3,173.009,29.863,165.627,28.605z"/>
				<path fill="none" stroke="#EAC2B2" stroke-width="0.5" stroke-linecap="round" stroke-miterlimit="10" d="M202.062,93.621
					c6.783-5.676,10.595-26.304,10.595-26.304l1.438,0.146l-1.048,3.271l-1.178,1.438"/>
				<path fill="#EAC2B2" stroke="#EAC2B2" stroke-miterlimit="10" d="M191.336,37.933c0,0,2.596,4.61,7.583,2.934
					c0,0-1.399-2.725-4.592-2.096C194.327,38.77,191.285,38.037,191.336,37.933z"/>
				<path fill="#EAC2B2" stroke="#EAC2B2" stroke-miterlimit="10" d="M195.552,28.605h-6.584V32.3
					C188.968,32.3,188.171,29.863,195.552,28.605z"/>
				<path fill="#EAC2B2" stroke="#EAC2B2" stroke-width="0.5" stroke-miterlimit="10" d="M177.438,82.519c0,0-0.295,1.275,0.49,1.57
					c0.784,0.294,8.143,0,8.143,0s0.589-0.981,0.195-1.57C185.873,81.931,177.438,82.519,177.438,82.519z"/>
				<g>
					<path fill="none" stroke="#3A3533" stroke-width="0.15" stroke-linecap="round" stroke-miterlimit="10" d="M163.857,33.43
						c-0.696,1.886,3.229,1.551,4.265,1.151c2.438-0.946,0.198-4.088,0.198-4.088s-3.891,3.458-6.584,3.458
						s-3.293,3.774-3.293,3.774"/>
					<path fill="#34445B" stroke="#3A3533" stroke-width="0.15" stroke-linecap="round" stroke-miterlimit="10" d="M168.32,30.493
						c0,0,2.24,3.142-0.198,4.088c-1.035,0.4-4.961,0.735-4.265-1.151C163.857,33.43,168.125,31.388,168.32,30.493z"/>
				</g>
				<g>
					<path fill="none" stroke="#3A3533" stroke-width="0.15" stroke-linecap="round" stroke-miterlimit="10" d="M196.807,33.43
						c0.696,1.886-3.229,1.551-4.265,1.151c-2.438-0.946-0.198-4.088-0.198-4.088s3.891,3.458,6.586,3.458
						c2.691,0,3.291,3.774,3.291,3.774"/>
					<path fill="#34445B" stroke="#3A3533" stroke-width="0.15" stroke-linecap="round" stroke-miterlimit="10" d="M192.344,30.493
						c0,0-2.24,3.142,0.198,4.088c1.034,0.4,4.961,0.735,4.265-1.151C196.807,33.43,192.539,31.388,192.344,30.493z"/>
				</g>
			</g>
			<text transform="matrix(1.0005 0 0 1 143.958 229.3354)" fill="#FFFFFF" font-family="'Verdana-Bold'" font-size="8">BORIS JOHNSON</text>
			
				<text transform="matrix(1.0005 0 0 1 143.958 229.3354)" fill="none" stroke="#3A3533" stroke-width="0.1" stroke-linecap="round" stroke-miterlimit="10" font-family="'Verdana-Bold'" font-size="8">BORIS JOHNSON</text>
		</g>
	</g>
</g>
<g id="Biscuits" display="none">
	<g display="inline">
		<g>
			<path fill="#D6B05C" stroke="#AA8B4D" stroke-miterlimit="10" d="M110.301,112.233c0,0-6.632-4.622-13.265-0.403
				c0,0-8.238-4.822-16.479,1.008c0,0-11.855-2.814-17.483,3.417c0,0-11.654-1.81-16.279,6.032c0,0,4.02-0.606,4.421,0.398
				c0.402,1.006-7.635-1.406-10.65,1.006c0,0,3.417,0.201,3.819,0.804c0,0-6.631-2.208-10.65,3.618c0,0,4.421,0.201,5.225,1.203
				c0,0-9.044-4.622-15.474,10.249c0,0,8.44-4.42,10.047-2.411c0,0-16.479,0.4-14.67,16.075c0,0,10.449-10.852,12.258-8.24
				c0,0-18.688,5.225-10.851,22.911c0,0,7.034-10.853,8.039-8.442c0,0-19.293,10.249,3.014,23.716c0,0-0.805-12.662,1.607-16.079
				c0,0-7.034,23.918,10.25,23.918c0,0-0.604-13.065,0.602-14.872c0,0-6.431,22.309,16.881,21.303c0,0-1.809-13.061-0.202-15.472
				c0,0-7.234,23.31,15.272,19.089c0,0,4.019-2.213,4.421-3.817c0.402-1.607-2.612-6.233,0.2-15.678c0,0-7.437,32.557,18.489,18.69
				c0,0,3.115-10.146,2.596-18.584l-3.3,19.791c0,0,33.864,10.648,19.794-22.103c0,0,6.029,17.077,0.604,21.093
				c0,0,22.308,3.022,20.096-13.259c0,0,0.201,7.637-2.209,9.444c0,0,13.463-0.805,13.865-6.632
				C150.693,184.177,110.301,112.233,110.301,112.233z"/>
			<path fill="#D6B05C" stroke="#AA8B4D" stroke-miterlimit="10" d="M70.509,126.906c0,0,0.402,0.805,1.608,1.204
				c1.207,0.4,2.209,0.804,2.611,0.203c0.402-0.602,1.607-1.609,1.607-1.609s1.207-0.602,2.01-0.4"/>
			<path fill="#D6B05C" stroke="#AA8B4D" stroke-miterlimit="10" d="M51.419,133.333c0,0-0.805,0.603,0.804,1.207
				c1.608,0.602,2.212,0.402,2.212,0.402l2.01-1.008c0,0,0.402,0.404,1.404,0.805c1.007,0.4,2.01-1.41,2.01-1.41"/>
			<path fill="#D6B05C" stroke="#AA8B4D" stroke-miterlimit="10" d="M40.367,156.847c0,0,2.611-1.408,3.014-0.607
				c0.402,0.809,3.617,1.207,3.617,1.207s0.602,0.205,1.81,1.207c1.205,1.006,2.212-1.006,2.212-1.006s2.008-2.408,2.611-1.811
				c0.604,0.607,2.212-0.803,2.212-0.803"/>
			<path fill="#D6B05C" stroke="#AA8B4D" stroke-miterlimit="10" d="M41.973,145.994c0,0,1.809-1.004,2.412,0
				c0.604,1.008,1.407,1.207,2.612,1.609c1.205,0.402,2.612-1.008,2.612-1.008s1.606-2.611,2.209-2.006
				c0.604,0.604,2.01-1.008,2.01-1.008"/>
			<path fill="#D6B05C" stroke="#AA8B4D" stroke-miterlimit="10" d="M64.078,146.595c0,0,2.21,0.605,3.617,0.805
				c1.407,0.201,1.004-1.203,1.004-1.203s0-2.616,1.007-2.213c1.003,0.402,1.406-0.805,1.406-0.805"/>
			<path fill="#D6B05C" stroke="#AA8B4D" stroke-miterlimit="10" d="M83.774,129.112c0,0-1.81,2.816-2.814,3.219
				c-1.005,0.398-3.817,0.805-3.417,1.404c0.402,0.605,2.812,1.61,3.216,2.414c0.402,0.801,1.808,3.014,3.215,2.411
				C85.38,137.958,96.634,130.12,83.774,129.112z"/>
			<path fill="#D6B05C" stroke="#AA8B4D" stroke-miterlimit="10" d="M92.817,121.277c0,0,0.603,2.411,1.407,2.612
				c0.804,0.201,3.616,0.201,4.219,0.402c0.602,0.201,2.812-0.402,3.617-0.201c0.804,0.201,2.21-0.805,2.21-0.805l1.609-1.807"/>
			<path fill="#D6B05C" stroke="#AA8B4D" stroke-miterlimit="10" d="M96.031,131.326c0,0,1.407-0.605,2.01,0.199
				c0.602,0.805,1.606,0.201,2.612,0.201s2.813-0.4,2.813-0.4"/>
			<path fill="#D6B05C" stroke="#AA8B4D" stroke-miterlimit="10" d="M88.798,140.37c0,0,1.809,0.602,2.009,1.606
				c0.2,1.002,0.603,1.203,2.01,1.605c1.407,0.403,3.216,0,3.216,0l2.412-0.604"/>
			<path fill="#D6B05C" stroke="#AA8B4D" stroke-miterlimit="10" d="M82.97,151.621c0,0,1.204,0.201,2.411,0.402
				c1.208,0.199,2.413-1.609,2.413-1.609s0.805-2.209,1.607-1.404"/>
			<path fill="#D6B05C" stroke="#AA8B4D" stroke-miterlimit="10" d="M92.414,158.251c0,0,2.01-0.805,2.413-0.201
				s0.804,1.01,2.009,1.408c1.206,0.402,2.209,0,2.814,0c0.602,0,1.406-2.41,2.208-2.008"/>
			<path fill="#D6B05C" stroke="#AA8B4D" stroke-miterlimit="10" d="M77.745,163.88c0,0,2.209,0.402,3.014,1.808
				c0.803,1.407,1.205,1.407,2.412,1.407c1.205,0,2.612-1.403,3.617-0.397c1.005,1.002,2.211,0.197,2.812,0.397
				c0.605,0.202,1.81-1.005,1.81-1.005"/>
			<path fill="#D6B05C" stroke="#AA8B4D" stroke-miterlimit="10" d="M95.629,177.546c0,0,0.602,1.202,2.211,1.604
				c1.608,0.402,2.813-0.804,2.813-0.804s1.609-1.808,2.411-1.203c0.804,0.603,2.412-0.801,2.412-0.801l1.204-2.013"/>
			<path fill="#D6B05C" stroke="#AA8B4D" stroke-miterlimit="10" d="M105.277,164.686l2.009,1.202c0,0,0.202,1.409,1.608,1.812
				c1.407,0.402,1.407,0.402,1.407,0.402"/>
			<path fill="#D6B05C" stroke="#AA8B4D" stroke-miterlimit="10" d="M63.273,158.453c0,0,2.612,0.406,3.215,0.805
				c0.603,0.402,1.809-0.805,2.411-0.805c0.605,0,3.218-1.203,3.218-1.203l1.207-1.609l-0.604-3.416"/>
			<path fill="#D6B05C" stroke="#AA8B4D" stroke-miterlimit="10" d="M53.829,167.494c0,0,1.207,0.005,1.81,1.011
				c0.604,1.001,0.402,3.416,1.407,4.221c1.005,0.801,2.812-0.402,2.812-0.402s1.407-2.213,2.01-1.811
				c0.604,0.402,1.206-1.609,2.009-1.609"/>
			<path fill="#D6B05C" stroke="#AA8B4D" stroke-miterlimit="10" d="M74.729,178.552c0,0,0.402-0.205,1.607,0.401
				c1.207,0.605,2.613-1.009,2.613-1.009l1.005-2.612"/>
			<path fill="#D6B05C" stroke="#AA8B4D" stroke-miterlimit="10" d="M45.189,165.688c0,0-2.211,1.207-2.211,3.215
				c0,0-4.019-1.605-2.01,3.215c0,0-2.412,10.249,6.431,4.021C47.399,176.138,56.04,166.895,45.189,165.688z"/>
		</g>
		<g>
			<path fill="#D6B05C" stroke="#AA8B4D" stroke-miterlimit="10" d="M165.766,101.783c0,0-10.449-6.03-14.469,0
				c0,0-9.646-4.823-16.48,1.607c0,0-11.254-3.215-14.468,6.032c0,0-9.378,5.485-8.171,13.524c0,0,6.561-5.487,9.779-3.477
				c0,0-16.178,0.353-14.168,16.428c0,0,4.52-9.195,12.96-8.391c0,0-21.699,4.967-10.846,22.652c0,0,6.094-9.94,9.059-11.327
				c0.423-0.198,0.23-0.873,0.484-0.676c2.009,1.608-22.007,12.663-1.91,27.128c0,0,4.422-16.475,8.845-18.084
				c0,0-21.503,24.922,4.218,29.438c0,0,0.804-14.27,4.218-15.772c0,0-11.153,22.205,10.952,22.806c0,0,2.009-14.47,6.33-15.574
				c0,0-21.2,22.81,15.374,24.012c0,0,0.722-4.911,2.712-12.355c0,0-11.035,23.254,14.508,20.973
				c0.251-0.022,0.506-0.045,0.767-0.072c0,0,0.134-0.182,0.36-0.523c1.371-2.076,4.499-8.977,4.562-17.666
				c0,0-2.861,15.222-4.521,18.539c0,0,27.734,12.511,22.911-18.437c0,0,0.501,18.539-3.919,19.34c0,0,30.445,12.01,19.996-22.555
				c0,0,5.777,17.635-1.457,22.858c0,0,22.354,4.069,15.926-25.27c0,0,3.516,18.422-3.316,22.039c0,0,24.214-1.138,14.569-25.254
				c0,0,3.514,15.069,1.908,16.277c0,0,17.386-8.64,5.326-24.316c0,0,5.374,8.039,4.922,9.091
				c-0.451,1.055,7.688-9.342-6.329-20.041c0,0,4.372,3.013,4.823,3.312c0.451,0.304,2.263-10.097-7.234-14.165l2.259,0.3
				c0,0-4.218-14.167-18.839-19.143c0,0-4.821-7.083-16.577-9.344c0,0-3.618-7.989-18.69-6.783c0,0-3.618-9.044-19.895-5.426
				C182.244,103.491,173.703,96.155,165.766,101.783z"/>
			<path fill="#D6B05C" stroke="#AA8B4D" stroke-miterlimit="10" d="M151.043,120.072c0,0,1.357,1.66,1.206,2.712
				c0,0,7.082-8.59,12.663,0.757c0,0,4.67,5.424-2.866,4.819c0,0-0.903,4.672-5.876,0
				C156.17,128.36,148.029,129.565,151.043,120.072z"/>
			<path fill="#D6B05C" stroke="#AA8B4D" stroke-miterlimit="10" d="M226.104,123.235c0,0-1.811-3.917-5.124,0.756
				c0,0-6.783,4.221,2.107,5.875c0,0,4.673,3.466,6.331,1.507C229.419,131.374,233.341,124.592,226.104,123.235z"/>
			<path fill="#D6B05C" stroke="#AA8B4D" stroke-miterlimit="10" d="M204.853,164.234c0,0-7.839-2.414-4.222,5.271
				c3.619,7.688,6.479,1.66,6.934,0.757C208.018,169.354,212.689,163.027,204.853,164.234z"/>
			<path fill="#D6B05C" stroke="#AA8B4D" stroke-miterlimit="10" d="M170.488,131.977c0,0,2.108,4.073,3.314,3.468
				c1.209-0.606,4.976-0.151,5.127,0.605"/>
			<path fill="#D6B05C" stroke="#AA8B4D" stroke-miterlimit="10" d="M172.597,142.227c0,0,1.357,8.442,5.127,0.603"/>
			<path fill="#D6B05C" stroke="#AA8B4D" stroke-miterlimit="10" d="M165.815,150.367c0,0,2.412,8.743,7.237,1.505"/>
			<path fill="#D6B05C" stroke="#AA8B4D" stroke-miterlimit="10" d="M137.328,149.009c0,0,3.316,3.166,3.015,3.768
				c-0.302,0.605,4.975,0.905,5.122,0.302c0.152-0.606,3.77-0.606,3.922-0.149c0.148,0.449,1.203-1.809,1.203-1.809l2.263-1.662"/>
			<path fill="#D6B05C" stroke="#AA8B4D" stroke-miterlimit="10" d="M131.151,141.019l5.274,1.661c0,0,1.506-0.453,1.959-1.96
				c0.451-1.506,2.112-2.41,2.412-1.96"/>
			<path fill="#D6B05C" stroke="#AA8B4D" stroke-miterlimit="10" d="M128.286,126.25c0,0,1.809,0.452,1.658,1.357
				c-0.149,0.904,3.166,1.207,3.166,1.207l0.302,1.053c0,0,3.766-2.26,3.617-2.714c-0.15-0.452,2.562-0.452,2.562-0.452"/>
			<path fill="#D6B05C" stroke="#AA8B4D" stroke-miterlimit="10" d="M134.768,113.89c0,0,3.467,2.414,3.164,2.866
				c-0.301,0.447,0.904,0.447,1.357,0.447c0.449,0,0.565,1.701,1.055,1.661c0.803-0.062,0.601-3.164,0.601-3.164
				s0.453-1.96,0.904-1.507c0.453,0.452,2.264-1.055,2.264-1.055"/>
			<path fill="#D6B05C" stroke="#AA8B4D" stroke-miterlimit="10" d="M154.811,109.521c0,0,1.208,2.11,2.111,2.11
				s3.161,1.056,2.863,1.658c-0.302,0.605,0.754,1.207,0.754,1.207l1.056-1.809"/>
			<path fill="#D6B05C" stroke="#AA8B4D" stroke-miterlimit="10" d="M175.309,107.864c0,0,0.755,1.354,1.055,1.809
				c0.305,0.449,1.208,0.903,1.66,0.903s0.903,1.058,0.903,1.058s-0.152,0.602,1.055,0.602"/>
			<path fill="#D6B05C" stroke="#AA8B4D" stroke-miterlimit="10" d="M199.575,114.344c0,0,0.528,0.83,1.132,1.732
				c0.604,0.908,0.262,1.471,1.317,1.773c1.056,0.3,2.526,1.015,2.526,1.621c0,0.604-0.508,2.083,0,2.41
				c0.523,0.338,1.656-0.753,2.261-1.056"/>
			<path fill="#D6B05C" stroke="#AA8B4D" stroke-miterlimit="10" d="M187.82,122.784c0,0,1.055,1.357,1.958,1.507
				c0.903,0.15,1.206,0.908,1.206,0.908s-1.055,1.353,0.453,1.353c1.507,0,2.714-1.203,2.714-1.203s2.263-0.907,2.561-0.302
				c0.302,0.604,1.357-0.905,1.357-0.905"/>
			<path fill="#D6B05C" stroke="#AA8B4D" stroke-miterlimit="10" d="M210.729,134.239c0,0,0.904,1.28,1.056,1.735
				c0.152,0.45-0.075,1.394,0.979,1.693c1.055,0.302,2.186-0.718,2.186-0.718h1.054"/>
			<path fill="#D6B05C" stroke="#AA8B4D" stroke-miterlimit="10" d="M226.557,139.362c0,0,0.3,0.152,1.657,1.205
				c1.357,1.058,2.56,3.318,3.014,3.318s3.168-0.452,3.618-0.754c0.452-0.302,1.657-1.657,2.11-1.057c0.45,0.605,2.412,0,2.412,0"/>
			<path fill="#D6B05C" stroke="#AA8B4D" stroke-miterlimit="10" d="M200.479,141.775c0,0,1.055,1.958,1.055,2.562
				c0,0.602-1.508,1.96-0.151,2.258c1.358,0.304,1.358-1.056,2.262-0.903c0.903,0.149,1.81-0.905,1.959-0.45"/>
			<path fill="#D6B05C" stroke="#AA8B4D" stroke-miterlimit="10" d="M216.76,147.05c0,0,0.754,0.752,0.902,1.659
				c0.152,0.903-0.902,1.659,1.057,1.659s2.863,1.958,2.863,1.958s0.903,1.208,1.357,0.903c0.452-0.297,1.354-0.903,1.354-0.903"/>
			<path fill="#D6B05C" stroke="#AA8B4D" stroke-miterlimit="10" d="M234.092,155.492c0,0-0.152,1.507,0.903,1.807
				c1.055,0.305,1.656,1.059,2.562,1.207c0.903,0.148,3.615-0.902,3.615-0.902s3.467-0.756,3.767-0.152"/>
			<path fill="#D6B05C" stroke="#AA8B4D" stroke-miterlimit="10" d="M227.912,165.138c0,0,1.207,0.902,1.207,1.657
				c0,0.753,1.205,1.808,1.205,1.808l1.509-0.752c0,0,0.753,0.604,1.508,0.752c0.751,0.151,0-1.808,0-1.808s0.903-1.811,1.806-1.203
				"/>
			<path fill="#D6B05C" stroke="#AA8B4D" stroke-miterlimit="10" d="M208.469,151.121c0,0-0.151,1.354,0.151,2.262
				c0.303,0.903-0.299,2.408,0.605,2.861c0.903,0.451,1.206,0.152,1.655,0.906c0.454,0.752,1.506,1.355,1.506,1.355
				s2.111,0.301,2.415,1.056c0.299,0.756,1.354,1.355,1.354,1.355"/>
			<path fill="#D6B05C" stroke="#AA8B4D" stroke-miterlimit="10" d="M186.765,148.709c0,0,0.302,1.657,1.659,1.959
				c1.358,0.3,1.657,0.452,2.262,0.3c0.602-0.152,1.056-1.056,1.505-0.604c0.454,0.451,0.906,0.903,1.809,1.053
				c0.903,0.152,2.563-0.903,2.563-0.903l1.206,1.208"/>
			<path fill="#D6B05C" stroke="#AA8B4D" stroke-miterlimit="10" d="M186.765,158.354c0,0,0.452,2.11,1.207,2.258
				c0.755,0.151,1.507,0.305,1.507,0.305s-0.149,1.202,0.903,1.355c1.056,0.151,3.015-0.903,3.015-0.903l1.206,1.206"/>
			<path fill="#D6B05C" stroke="#AA8B4D" stroke-miterlimit="10" d="M163.104,162.875c0,0-0.302,2.11,0.602,2.562
				c0.904,0.451,1.959,0.756,2.411,0.903c0.451,0.152,1.657,0.152,2.261,0.751c0.604,0.608,2.562,1.057,2.562,1.057l1.354-1.204
				c0,0,1.209-0.451,1.509,0.3"/>
			<path fill="#D6B05C" stroke="#AA8B4D" stroke-miterlimit="10" d="M188.575,170.11c0,0,1.055,0.755,1.354,1.659
				c0.303,0.903-1.354,1.506,0.756,1.958c2.11,0.451,2.11,0.451,2.411,0.907c0.302,0.452-0.152,2.11-0.152,2.11
				s1.207,1.052,2.263,0.752"/>
			<path fill="#D6B05C" stroke="#AA8B4D" stroke-miterlimit="10" d="M222.035,168.603c0,0-3.165,0.451-3.165,1.354
				c0,0.907-1.811,2.111-1.811,2.111l-1.959-0.148l-1.811-0.304"/>
			<path fill="#D6B05C" stroke="#AA8B4D" stroke-miterlimit="10" d="M150.594,136.05c0,0,0.152,1.354,0.301,1.807
				c0.151,0.452,1.206,0.753,1.506,1.208c0.3,0.45-1.055,2.106,0.3,2.259c1.357,0.151,2.11-1.505,2.866-0.906
				c0.753,0.606-0.302,1.661,0.753,1.96"/>
			<path fill="#D6B05C" stroke="#AA8B4D" stroke-miterlimit="10" d="M168.225,118.864l1.057,2.56c0,0,2.109-0.45,2.562-0.297
				c0.451,0.15,1.66,1.055,2.111,1.355c0.452,0.302,2.108-0.905,2.108-0.905"/>
			<path fill="#D6B05C" stroke="#AA8B4D" stroke-miterlimit="10" d="M191.59,133.484c0,0,1.055,1.055,1.206,1.505
				c0.148,0.454,0,0.605,1.203,0.605c1.208,0,2.111-2.11,2.264-1.661c0.151,0.454,1.81,0.605,1.81,0.605l1.657-1.207"/>
		</g>
	</g>
</g>
<g id="Bangers">
	<g>
		<path fill="none" stroke="#93B1E2" stroke-width="0.5" stroke-miterlimit="10" d="M268.998,156.703
			c0,20.309-57.491,36.767-128.41,36.767c-70.918,0-128.409-16.458-128.409-36.767c0-20.306,57.491-36.768,128.409-36.768
			C211.507,119.935,268.998,136.396,268.998,156.703z"/>
		<path fill="none" stroke="#93B1E2" stroke-width="0.5" stroke-miterlimit="10" d="M60.167,185.741
			c0,0,85.311,33.429,159.879-0.151"/>
		<path fill="none" stroke="#FF0000" stroke-width="0.5" stroke-miterlimit="10" d="M247.158,115.379"/>
		<path fill="#EF5E4A" stroke="#CC4D40" stroke-width="0.5" stroke-miterlimit="10" d="M172.084,115.379
			c0,0,48.153-43.242,55.926-1.114l-40.76,23.849L172.084,115.379z"/>
		<path fill="#EBDA85" stroke="#D1C078" stroke-width="0.5" stroke-miterlimit="10" d="M201.848,126.078
			c26.73,7.133,47.648,24.594,47.648,24.594c-13.648,30.094-26.104,17.807-36.146,19.613c-24.772,4.462-29.441,11.73-38.613,8.62
			c-11.1-3.765-23.591,2.069-31.469,2.006c-24.644-0.194-24.386-7.524-32.546-6.168c-25.024,4.162-32.103,4.162-39.686-2.375
			c-7.381-6.362-22.158-5.593-27.679-10.849c-13.854-13.186,9.479-17.609,9.479-17.609c-0.38-14.042,16.303-12.037,16.303-12.037
			c4.74-16.494,21.233-14.71,21.233-14.71c1.327-10.476,17.442-9.362,17.442-9.362c25.025,3.566,26.161-5.572,26.161-5.572
			c3.413,2.675,2.276,7.579,2.276,7.579s-9.1,4.903-9.859,6.241c0,0,11.945-8.917,16.115-5.572c0,0,5.688-1.115,7.204-5.127
			c0,0,4.171-2.675,1.517,17.163l1.138-13.596c0,0,7.393-4.013,7.772-7.356c0,0,5.498,2.452,4.551,11.368
			c0,0-1.138,5.127-8.153,4.458c0,0,13.514-1.718,14.651-7.292c0,0,3.169,16.431-0.432,21.111c0,0,2.653-12.482,2.085-14.489
			c0,0,7.394-1.56,10.237-5.35c0,0,2.085,6.91,4.36,8.248c0,0,3.413,4.235,2.655,9.139c0,0-1.328-8.248-1.707-8.916
			c-0.379-0.669-0.379-0.669-0.379-0.669S202.417,119.392,201.848,126.078z"/>
		<path fill="#EF5E4A" stroke="#CC4D40" stroke-width="0.25" stroke-miterlimit="10" d="M242.176,114.71
			c0,0-55.948-6.647-53.854,42.796c0.189,4.503,5.85,36.747,35.025,6.541c5.347-5.536,7.494-19.023,22.066-21.103
			C251.133,142.129,267.443,119.912,242.176,114.71z"/>
	</g>
</g>
</svg>
