<?xml version="1.0" encoding="utf-8"?>
<!-- Generator: Adobe Illustrator 16.0.0, SVG Export Plug-In . SVG Version: 6.00 Build 0)  -->
<!DOCTYPE svg PUBLIC "-//W3C//DTD SVG 1.1//EN" "http://www.w3.org/Graphics/SVG/1.1/DTD/svg11.dtd">
<svg version="1.1" id="Layer_1" xmlns="http://www.w3.org/2000/svg" xmlns:xlink="http://www.w3.org/1999/xlink" x="0px" y="0px"
	 width="13.25px" height="11.625px" viewBox="0 0 13.25 11.625" enable-background="new 0 0 13.25 11.625" xml:space="preserve">
<g display="none">
	<path display="inline" fill="none" stroke="#0B132B" stroke-miterlimit="10" d="M5.292-16.537c0,0-0.849,0.105-0.602,0.992
		c0,0-3.577,1.698-0.672,4.566c0,0-0.813,0.284-0.318,0.672c0,0-5.383,1.949-5.561,2.48c0,0-1.699-0.603-1.735,1.097
		c0,0,0,1.133,0.92,0.991v1.027c0,0-0.92,0.035-0.424,1.098c0,0-2.869,0.566-4.07,3.187c0,0-3.188-6.939-7.755-6.515
		c0,0,1.273,1.522-0.072,2.903c0,0-0.071,0.531,0.568,0.425c0,0,0.104-1.134,0.672-0.92c0,0,1.38,0.92,1.875,3.788
		c0,0,0.603,5.63,3.399,6.834c0,0,0.744,4.284,3.541,5.878c0,0-1.203,1.876,0.071,2.833c0,0,11.001,6.29,20.925,0
		c0,0,1.773-1.24-0.174-2.975c0,0,2.512-1.664,2.938-4.569c0,0,1.311-1.485,6.197-0.988c0,0,5.451-7.331-4.355-11.333
		c0,0-2.799,1.452-4,2.797c0,0-0.887-0.919-2.799-1.31c0,0,0.672-0.955-0.602-1.098v-0.956c0,0,1.344-0.106,0.918-1.452
		c0,0-0.281-1.133-1.484-0.601c0,0-4.002-2.479-5.667-2.551c0,0,0.461-0.602-0.319-0.672c0,0,3.117-2.585-0.707-4.462
		C6-15.369,6.424-16.503,5.292-16.537z"/>
	<path display="inline" fill="none" stroke="#0B132B" stroke-miterlimit="10" d="M18.801,0.192c0,0,1.041,1.396,0.861,4.014
		c0,0,1.834-0.992,4.209-0.555c0,0,0.885-3.642-3.133-5.11C20.738-1.459,19.342-0.421,18.801,0.192z"/>
</g>
<g display="none">
	<path display="inline" fill="none" stroke="#0B132B" stroke-miterlimit="10" d="M-6.817-14.086c0,0-1.253,0.586-1.177,3.288
		c0,0-1.722,1.45-1.957,1.726c-0.234,0.272-0.039,0.43-0.664,1.134c-0.628,0.706-3.017,3.643-1.529,5.484
		c0,0,1.176,0.743,2.821-0.395l0.899-0.429c0,0,1.49,0.274,1.999-1.252c0,0,0.195-0.274,0.586,0.509c0,0,2.389,3.915,2.782,7.285
		c0,0-4.272,6.932-4.739,6.892c-0.47-0.037-2.233-1.41-2.233-1.41l-1.098,1.801c0,0,18.368,15.507,34.506-0.077l-1.566-1.764
		l-2.078,1.841c0,0-3.444-5.403-2.154-7.047c0,0,4.19-3.368,0.901-8.188c0,0,4.62-2.505,4.19,3.526c0,0-0.391,7.909,3.328,6.619
		c0,0-0.374-1.165-0.351-2.938c0.079-4.856,1.703-11.403-5.093-10.65c-0.943,0.101-1.643,0.505-3.209,2.034
		c0,0-3.252-2.311-7.324,0.706c0,0-5.562,2.857-8.067-0.158c0,0-4.818-5.249-7.21-4.817C-5.254-10.366-5.056-13.5-6.817-14.086z"/>
	<path display="inline" fill="none" stroke="#0B132B" stroke-miterlimit="10" d="M-5.184,11.435l5.062-6.523
		c0,0,5.955,2.973,11.959-0.684c0,0,0.522-0.052,0.992,0.576c0.472,0.628,4.802,7.205,4.802,7.205S9.07,18.695-5.184,11.435z"/>
</g>
<g display="none">
	<path display="inline" fill="none" stroke="#0B132B" stroke-miterlimit="10" d="M4.255-13.418l-1.196,1.617
		c0,0-10.751,3.161-12.577,4.144c0,0,0.984,5.551,2.812,6.323c0,0,3.232-1.685,5.06-1.123l-0.142,18.272c0,0,7.871,2.036,18.062,0
		l0.068-18.412l4.849,1.475c0,0,2.317-2.388,2.81-6.396c0,0-5.973-2.598-12.647-4.428l-0.974-1.771
		C10.379-13.716,7.979-12.856,4.255-13.418z"/>
	<path display="inline" fill="none" stroke="#0B132B" stroke-miterlimit="10" d="M6.714-9.203L5.309-7.69
		c0,0-1.054-0.177-2.107-3.938l0.982-1.298C4.184-12.927,5.554-9.832,6.714-9.203z"/>
	<path display="inline" fill="none" stroke="#0B132B" stroke-miterlimit="10" d="M7.733-9.343c0,0,2.003-1.474,2.601-3.69l1.019,1.3
		c0,0,0.141,1.758-2.108,4.006L7.733-9.343z"/>
	<line display="inline" fill="none" stroke="#0B132B" stroke-miterlimit="10" x1="6.749" y1="-9.343" x2="7.627" y2="-9.343"/>
</g>
<g display="none">
	<path display="inline" fill="none" stroke="#0B132B" stroke-miterlimit="10" d="M6.501-13.917c0,0-6.218-0.141-7.052,11.73
		l-2.097,0.07l-3.911,16.549h4.677c0,0,0.072,1.049,0.699,1.187c0,0,0.769,0.187,0.796-1.187l14.22-0.036
		c0,0-0.141,1.223,0.731,1.363c0.875,0.139,0.629-1.291,0.629-1.291L20,14.48L15.989-2.154l-1.388,0.014
		C14.602-2.141,12.877-14.803,6.501-13.917z"/>
	<path display="inline" fill="none" stroke="#0B132B" stroke-miterlimit="10" d="M0.25-2.15h13.514c0,0-1.224-11.14-6.74-11.176
		C7.023-13.326,1.121-13.895,0.25-2.15z"/>
	<path display="inline" fill="none" stroke="#0B132B" stroke-miterlimit="10" d="M-2.647-2.116c0,0,3.42,13.894,9.193,13.662
		c0,0,5.331,1.001,9.383-13.662"/>
</g>
<g display="none">
	<path display="inline" fill="none" stroke="#0B132B" stroke-miterlimit="10" d="M6.488-8.712c0,0-5.627-5.826-15.822-4.66V10.31
		c0,0,11.938-0.872,15.822,5.729c0,0,5.195-7.377,15.825-5.34V-13.18C22.313-13.18,14.835-15.315,6.488-8.712z"/>
	<line display="inline" fill="none" stroke="#0B132B" stroke-miterlimit="10" x1="6.585" y1="15.723" x2="6.585" y2="-8.63"/>
	<path display="inline" fill="none" stroke="#0B132B" stroke-miterlimit="10" d="M-9.626-11.238c0,0-3.153,0.099-3.153,0.389v25.773
		l15.918,0.193c0,0-0.099,1.214,0.874,1.214s2.425,0,2.425,0h3.058c0,0,0.678,0,0.535-1.265L26,15.116v-26.305
		c0,0-3.497-0.389-3.642-0.05"/>
</g>
<g display="none">
	<polygon display="inline" fill="none" stroke="#0B132B" stroke-miterlimit="10" points="-6.694,-5.312 -6.694,0.214 7.475,0.214 
		22,0.331 22,-5.312 	"/>
	<polyline display="inline" fill="none" stroke="#0B132B" stroke-miterlimit="10" points="-5.132,0.574 -5.132,15.58 20.559,15.58 
		20.559,0.393 	"/>
	<polyline display="inline" fill="none" stroke="#0B132B" stroke-miterlimit="10" points="7.835,15.699 7.835,0.691 7.893,-5.432 	
		"/>
	<path display="inline" fill="none" stroke="#0B132B" stroke-miterlimit="10" d="M7.715-6.152"/>
	<path display="inline" fill="none" stroke="#0B132B" stroke-miterlimit="10" d="M2.372-5.312c0,0-4.262-2.94-1.619-4.801
		c0,0,2.1-2.642,7.14,4.681"/>
	<path display="inline" fill="none" stroke="#0B132B" stroke-miterlimit="10" d="M5.763-8.043c0,0-0.899-5.641,2.068-5.761
		c2.972-0.12,2.244,4.946,2.244,4.946"/>
	<path display="inline" fill="none" stroke="#0B132B" stroke-miterlimit="10" d="M7.773-6.001c0,0,3.122-5.312,6.454-4.382
		c3.328,0.93-0.842,4.951-0.842,4.951"/>
</g>
<g>
	<path fill="none" stroke="#0B132B" stroke-width="0.5" stroke-linecap="round" stroke-linejoin="round" stroke-miterlimit="10" d="
		M10.588,4.067c0,0-0.48-1.444-0.999-1.444H1.084l1.621,4.568h7.223l1.191-5.648h1.328"/>
	<path fill="none" stroke="#0B132B" stroke-width="0.5" stroke-miterlimit="10" d="M2.998,8.406c0,0,6.412,0.045,6.591-0.045
		c0.181-0.09,0.339-1.17,0.339-1.17"/>
	<ellipse fill="none" stroke="#0B132B" stroke-width="0.5" stroke-miterlimit="10" cx="4.458" cy="9.965" rx="0.754" ry="0.73"/>
	<ellipse fill="none" stroke="#0B132B" stroke-width="0.5" stroke-miterlimit="10" cx="8.622" cy="9.965" rx="0.753" ry="0.732"/>
</g>
</svg>
