<?xml version="1.0" encoding="utf-8"?>
<!-- Generator: Adobe Illustrator 16.0.0, SVG Export Plug-In . SVG Version: 6.00 Build 0)  -->
<!DOCTYPE svg PUBLIC "-//W3C//DTD SVG 1.1//EN" "http://www.w3.org/Graphics/SVG/1.1/DTD/svg11.dtd">
<svg version="1.1" xmlns="http://www.w3.org/2000/svg" xmlns:xlink="http://www.w3.org/1999/xlink" x="0px" y="0px"
	 width="212.989px" height="115.494px" viewBox="0 0 212.989 115.494" enable-background="new 0 0 212.989 115.494"
	 xml:space="preserve">
<g id="Background" display="none">
	<rect x="-0.096" y="-0.094" display="inline" fill="#FFFFFF" width="213" height="116"/>
</g>
<g id="Layer_1">
	<g>
		<line fill="#F3F2F1" x1="49.746" y1="90.951" x2="58.28" y2="68.3"/>
	</g>
	<path fill="#F3F2F1" stroke="#ED474A" stroke-miterlimit="10" d="M60.261,85.33"/>
	<path fill="#F3F2F1" stroke="#ED474A" stroke-miterlimit="10" d="M46.01,82.486"/>
	<text transform="matrix(1 0 0 1 14.8799 27.3789)" fill="#0B132B" font-family="'Cutive-Regular'" font-size="21.5264">the</text>
	<text transform="matrix(1 0 0 1 14.8799 59.667)" fill="#0B132B" font-family="'Cutive-Regular'" font-size="36.9024">BREXIT</text>
	<text transform="matrix(1 0 0 1 112.2627 82.7314)" fill="#0B132B" font-family="'Cutive-Regular'" font-size="24.6016">SHOP</text>
	<g>
		<g id="XMLID_6_">
			<g>
				<polygon fill="#2F4858" points="108.651,86.106 94.907,111.519 83.09,85.154 				"/>
			</g>
			<g>
				<polygon fill="none" stroke="#2F4858" stroke-width="0.2" stroke-miterlimit="10" points="108.651,86.106 94.907,111.519 
					83.09,85.154 				"/>
			</g>
		</g>
		<path fill="none" stroke="#000000" stroke-width="0.05" stroke-miterlimit="10" d="M97.012,85.599"/>
		<polyline fill="#FFFFFF" points="94.026,85.574 93.625,97.033 94.32,97.12 94.723,85.604 94.025,85.528 		"/>
		<polygon fill="#FFFFFF" points="97.463,94.221 105.186,86.164 104.588,85.868 96.959,93.749 		"/>
		<polygon fill="#FFFFFF" points="98.244,96.559 108.332,86.029 106.381,86.048 96.967,95.907 		"/>
		<polygon fill="#FFFFFF" points="93.799,95.38 85.338,85.215 87.002,85.015 94.881,94.346 		"/>
		<polygon fill="#FFFFFF" points="92.368,95.703 83.453,85.057 83.941,85.137 93.019,95.818 		"/>
		<polygon fill="#FFFFFF" stroke="#000000" stroke-width="0.01" stroke-miterlimit="10" points="97.598,99.185 100.09,102.39 
			99.309,103.608 96.401,100.121 		"/>
		<polygon fill="#FFFFFF" points="90.661,102.061 93.35,99.514 92.475,98.311 90.03,100.81 		"/>
		<polygon fill="#FFFFFF" stroke="#000000" stroke-width="0.01" stroke-miterlimit="10" points="100.568,101.407 98.988,99.529 
			99.316,99.344 100.791,101.078 		"/>
		<polygon fill="#FFFFFF" points="93.735,100.636 91.232,103.173 91.554,103.381 93.762,101.146 		"/>
		<polygon fill="#FFFFFF" points="94.184,99.767 89.533,99.647 88.898,98.424 94.267,98.652 		"/>
		<polyline fill="#FFFFFF" points="96.321,95.746 103.752,96.051 103.252,97.106 96.192,96.813 96.279,95.697 		"/>
		<polygon fill="#ED474A" stroke="#ED474A" stroke-width="0.1" stroke-miterlimit="10" points="97.357,98.872 100.021,102.05 
			100.496,101.334 98.496,98.945 		"/>
		<polygon fill="#ED474A" stroke="#ED474A" stroke-width="0.1" stroke-miterlimit="10" points="90.809,102.124 93.678,99.243 
			94.032,100.061 91.217,103.092 		"/>
		<polyline fill="#FFFFFF" points="97.229,99.028 96.882,109.019 96.125,110.621 96.534,99.007 97.23,98.984 		"/>
		<polygon fill="#ED474A" stroke="#ED474A" stroke-width="0.1" stroke-miterlimit="10" points="84.108,85.131 93.157,95.869 
			93.953,95.665 85.249,85.208 		"/>
		<polygon fill="#ED474A" stroke="#ED474A" stroke-width="0.1" stroke-miterlimit="10" points="106.297,86.047 96.655,96.023 
			96.074,95.45 105.156,86.044 		"/>
		<polyline fill="#FFFFFF" points="93.65,99 93.331,108.201 93.979,109.619 94.348,99.026 93.652,98.952 		"/>
		<polygon fill="#FFFFFF" points="97.662,85.377 97.271,97.019 96.419,96.961 96.811,85.76 		"/>
		<polygon fill="#FFFFFF" points="96.228,99.836 101.244,100.01 101.934,98.919 96.221,98.721 		"/>
		<polygon fill="#F3F2F1" points="94.328,95.676 87.732,95.494 88.064,96.575 94.33,96.793 		"/>
		<polygon fill="#ED474A" stroke="#ED474A" stroke-width="0.05" stroke-miterlimit="10" points="101.902,98.896 88.898,98.424 
			87.861,96.104 102.959,96.632 		"/>
		<polygon fill="#ED474A" stroke="#ED474A" stroke-width="0.05" stroke-miterlimit="10" points="94.591,85.407 93.79,109.293 
			95.164,111.255 96.317,109.109 97.098,85.589 		"/>
		<g id="XMLID_5_">
			<g>
			</g>
			<g>
				<polygon fill="none" stroke="#2F4858" stroke-width="0.2" stroke-miterlimit="10" points="108.699,86.062 94.955,111.474 
					83.138,85.109 				"/>
			</g>
		</g>
	</g>
	<polygon fill="#FFFFFF" points="70.224,87.497 68.576,89.056 68.775,89.197 70.231,87.824 	"/>
	<g>
		<g id="XMLID_4_">
			<g>
				<polygon fill="#2F4858" points="70.506,84.246 52.165,106.569 45.596,78.434 58.361,81.717 				"/>
			</g>
			<g>
				<polygon fill="none" stroke="#2F4858" stroke-width="0.2" stroke-miterlimit="10" points="70.506,84.246 52.165,106.569 
					45.596,78.434 58.361,81.717 				"/>
			</g>
		</g>
		<path fill="none" stroke="#000000" stroke-width="0.05" stroke-miterlimit="10" d="M59.104,81.547"/>
		<polyline fill="#FFFFFF" points="56.175,80.957 53.596,92.131 54.263,92.345 56.857,81.117 56.19,80.91 		"/>
		<polygon fill="#FFFFFF" points="57.902,90.101 67.015,83.665 66.487,83.258 57.5,89.542 		"/>
		<polygon fill="#FFFFFF" points="58.221,92.542 70.135,84.132 68.215,83.773 57.093,91.663 		"/>
		<polygon fill="#FFFFFF" points="54.083,90.54 47.717,78.947 49.39,79.067 55.346,89.731 		"/>
		<polygon fill="#FFFFFF" points="52.62,90.584 45.896,78.431 46.363,78.605 53.237,90.82 		"/>
		<polygon fill="#FFFFFF" stroke="#000000" stroke-width="0.01" stroke-miterlimit="10" points="57.087,95 58.92,98.618 
			57.925,99.668 55.737,95.688 		"/>
		<polygon fill="#FFFFFF" points="49.727,96.495 52.852,94.516 52.221,93.163 49.348,95.149 		"/>
		<polygon fill="#FFFFFF" stroke="#000000" stroke-width="0.01" stroke-miterlimit="10" points="59.58,97.747 58.387,95.6 
			58.742,95.481 59.86,97.469 		"/>
		<polygon fill="#FFFFFF" points="53.625,94.918 49.083,93.912 48.693,92.592 53.918,93.841 		"/>
		<polyline fill="#FFFFFF" points="56.49,91.379 63.724,93.095 63.032,94.035 56.158,92.404 56.459,91.324 		"/>
		<polygon fill="#ED474A" stroke="#ED474A" stroke-width="0.1" stroke-miterlimit="10" points="56.915,94.646 58.917,98.27 
			59.523,97.658 58.014,94.935 		"/>
		<polygon fill="#ED474A" stroke="#ED474A" stroke-width="0.1" stroke-miterlimit="10" points="49.863,96.584 53.225,94.308 
			53.419,95.175 50.074,97.611 		"/>
		<polyline fill="#FFFFFF" points="56.759,94.775 54.508,104.515 53.463,105.947 56.075,94.624 56.769,94.733 		"/>
		<polygon fill="#ED474A" stroke="#ED474A" stroke-width="0.1" stroke-miterlimit="10" points="46.527,78.632 53.365,90.897 
			54.183,90.849 47.628,78.923 		"/>
		<polygon fill="#ED474A" stroke="#ED474A" stroke-width="0.1" stroke-miterlimit="10" points="68.133,83.758 56.765,91.715 
			56.303,91.04 67.012,83.536 		"/>
		<polyline fill="#FFFFFF" points="53.248,94.065 51.177,103.03 51.542,104.548 53.928,94.223 53.258,94.019 		"/>
		<polygon fill="#FFFFFF" points="59.685,81.907 57.182,92.81 56.357,92.591 58.875,81.669 		"/>
		<polygon fill="#FFFFFF" points="55.623,95.375 60.507,96.505 61.392,95.562 55.827,94.279 		"/>
		<polygon fill="#F3F2F1" points="54.552,90.928 48.107,89.486 48.23,90.619 54.335,92.025 		"/>
		<polygon fill="#ED474A" stroke="#ED474A" stroke-width="0.05" stroke-miterlimit="10" points="61.371,95.538 48.693,92.592 
			48.123,90.117 62.838,93.514 		"/>
		<polygon fill="#ED474A" stroke="#ED474A" stroke-width="0.05" stroke-miterlimit="10" points="56.655,81.372 51.42,104.188 
			52.394,106.383 53.935,104.493 59.144,81.773 		"/>
		<g id="XMLID_3_">
			<g>
			</g>
			<g>
				<polygon fill="none" stroke="#2F4858" stroke-width="0.2" stroke-miterlimit="10" points="70.511,84.237 52.17,106.56 
					45.6,78.425 58.67,81.839 				"/>
			</g>
		</g>
	</g>
	<path fill="none" stroke="#000000" stroke-width="0.25" stroke-miterlimit="10" d="M15.755,60.963c0,0,9.807,8.108,13.498,10.158
		c14.28,7.933,38.483,14.887,63.766,14.255c42.081-1.05,37.329,12.354,37.329,12.354"/>
	<path fill="#F3F2F1" stroke="#000000" stroke-width="0.25" stroke-miterlimit="10" d="M56.515,83.292"/>
</g>
</svg>
