<?xml version="1.0" encoding="utf-8"?>
<!-- Generator: Adobe Illustrator 16.0.0, SVG Export Plug-In . SVG Version: 6.00 Build 0)  -->
<!DOCTYPE svg PUBLIC "-//W3C//DTD SVG 1.1//EN" "http://www.w3.org/Graphics/SVG/1.1/DTD/svg11.dtd">
<svg version="1.1" xmlns="http://www.w3.org/2000/svg" xmlns:xlink="http://www.w3.org/1999/xlink" x="0px" y="0px" width="278.5px"
	 height="289.164px" viewBox="0 0 278.5 289.164" enable-background="new 0 0 278.5 289.164" xml:space="preserve">
<g id="Layer_1" display="none">
	<g id="Layer_1_1_" display="inline">
		<g id="Dentures" display="none">
			<path display="inline" fill="none" stroke="#101010" stroke-width="0.75" stroke-miterlimit="10" d="M41.642,166.01
				c0,0,0.357,17.06,7.941,16.731c7.583-0.332,9.485,0.245,12.203-0.66c1.491-6.364,1.256-21.651,0.267-23.963
				c0,0-10.496-5.227-14.777-2.486C41.663,157.178,41.642,166.01,41.642,166.01z"/>
			<path display="inline" fill="none" stroke="#101010" stroke-width="0.75" stroke-linejoin="round" stroke-miterlimit="10" d="
				M61.785,182.082c0,0,6.293,12.563,43.566,5.969c0,0,0.924-20.478,0.154-36.068"/>
			<path display="inline" fill="none" stroke="#101010" stroke-width="0.75" stroke-miterlimit="10" d="M105.592,188.072
				c0,0,15.535,14.536,43.993,0.935v-37.662"/>
			<path display="inline" fill="none" stroke="#101010" stroke-width="0.75" stroke-miterlimit="10" d="M149.19,189.006
				c0,0,21.111,15.497,45.849,0l0.335-41.118"/>
			<path display="inline" fill="none" stroke="#101010" stroke-width="0.75" stroke-miterlimit="10" d="M194.949,188.215
				c0,0,17.593,14.312,37.429-5.146v-32.586"/>
			<path display="inline" fill="none" stroke="#101010" stroke-width="0.75" stroke-miterlimit="10" d="M231.981,183.069
				c0,0,22.216,6.339,25.682-19.227"/>
			<path display="inline" fill="none" stroke="#101010" stroke-width="0.75" stroke-miterlimit="10" d="M46.942,182.41
				c0,0-10.552,19.79-10.224,25.726c0,0,9.563,22.759,27.045,14.509L62.113,183.4"/>
			<path display="inline" fill="none" stroke="#101010" stroke-width="0.75" stroke-miterlimit="10" d="M63.689,222.497
				c0,0,2.242,22.251,37.601,11.03v-45.101"/>
			<path display="inline" fill="none" stroke="#101010" stroke-width="0.75" stroke-miterlimit="10" d="M100.485,232.828
				c0,0,20.642,35.164,48.238,5.485v-49.889"/>
			<path display="inline" fill="none" stroke="#101010" stroke-width="0.75" stroke-miterlimit="10" d="M148.465,238.436
				c0,0,31.306,27.579,46.83-7.298v-42.712"/>
			<path display="inline" fill="none" stroke="#101010" stroke-width="0.75" stroke-miterlimit="10" d="M195.416,232.485
				c0,0,24.888,17.95,36.962-7.777v-40.593"/>
			<path display="inline" fill="none" stroke="#101010" stroke-width="0.75" stroke-miterlimit="10" d="M231.981,224.708
				c0,0,31.281,9.974,25.23-23.254c-0.988-5.431-6.931-21.819-6.931-21.819"/>
			<path display="inline" fill="#D88FBF" stroke="#101010" stroke-miterlimit="10" d="M255.735,194.303
				c-1.58-5.233,9.039,6.542,9.893,9.957c2.604,10.37-0.003,42.794-0.003,42.794c-124.678,104.829-235.506-1.328-235.506-1.328
				s-3.541-31.017,0.993-40.142c2.212-4.45,6.372-4.099,6.372-4.099s0.395,22.126,26.866,18.143c0,0,2.382,22.118,37.014,11.912
				c0,0,19.629,32.146,48.078,4.28c0,0,30.095,26.324,45.432-5.026c0,0,24.74,16.423,37.354-7.466
				C232.229,223.329,266.871,231.208,255.735,194.303z"/>
			<path display="inline" fill="#D88FBF" stroke="#101010" stroke-miterlimit="10" d="M36.377,134.585
				c0,0-1.647,20.172,5.265,31.425c0,0-1.313-18.123,20.41-7.892c0,0,17.78-35.814,43.454-6.137c0,0,17.774-38.885,43.449,0
				c0,0,23.705-35.816,46.419-4.094c0,0,18.767-18.418,37.523,4.094c0,0,27.653-5.117,24.692,12.278c0,0,9.876-9.212,1.975-36.839
				c0,0-29.627,2.048-61.229-14.326c0,0-25.675-16.373-49.38,6.141c0,0-25.675-21.49-57.276-2.56
				C91.678,116.678,53.825,139.294,36.377,134.585z"/>
			<g display="inline">
				<path fill="#E0BF1E" stroke="#101010" stroke-miterlimit="10" d="M156.644,68.943c0,0,6.598,12.937,6.419,33.361
					c0,0,31.599-2.86,61.754,17.998c0,0,8.936-14.496,23.539-24.679c0,0-32.966,20.698-13.071-17.28
					c0,0-33.762,35.951-26.265-16.051c0,0-22.693,47.547-31.228-1.206C177.792,61.084,174.201,103.228,156.644,68.943z"/>
				<path fill="#E0BF1E" stroke="#101010" stroke-miterlimit="10" d="M214.874,59.013c-0.749,2.539-3.412,3.994-5.948,3.25
					c-2.536-0.745-3.996-3.405-3.249-5.944c0.745-2.54,3.404-3.993,5.941-3.252C214.159,53.812,215.615,56.475,214.874,59.013z"/>
				<path fill="#E0BF1E" stroke="#101010" stroke-miterlimit="10" d="M181.472,57.576c-0.654,2.231-2.989,3.506-5.225,2.852
					c-2.222-0.653-3.503-2.987-2.849-5.213c0.654-2.229,2.99-3.507,5.217-2.853C180.844,53.014,182.122,55.351,181.472,57.576z"/>
				<path fill="#E0BF1E" stroke="#101010" stroke-miterlimit="10" d="M242.151,75.772c-0.654,2.226-2.984,3.503-5.214,2.851
					c-2.236-0.654-3.505-2.988-2.854-5.214c0.647-2.231,2.988-3.508,5.213-2.855C241.524,71.205,242.806,73.543,242.151,75.772z"/>
				<path fill="#E0BF1E" stroke="#101010" stroke-miterlimit="10" d="M253.575,94.5c-0.488,1.659-2.227,2.611-3.887,2.122
					c-1.657-0.485-2.605-2.223-2.124-3.88c0.488-1.658,2.229-2.607,3.887-2.124C253.11,91.104,254.06,92.842,253.575,94.5z"/>
				<path fill="#E0BF1E" stroke="#101010" stroke-miterlimit="10" d="M159.492,66.522c-0.489,1.655-2.228,2.605-3.883,2.12
					c-1.657-0.486-2.611-2.222-2.124-3.883c0.486-1.656,2.226-2.606,3.88-2.121C159.027,63.123,159.977,64.86,159.492,66.522z"/>
			</g>
		</g>
		<g id="Tea" display="none">
			<g display="inline">
				<path fill="#588C6D" stroke="#101010" stroke-miterlimit="10" d="M104.377,277.661c0,0,36.972,18.183,72.376,0.656"/>
				<path fill="#588C6D" stroke="#101010" stroke-width="0.25" stroke-miterlimit="10" d="M66.447,253.125
					c0,0,4.592,27.956,79.959,27.956c0,0,50.168,2.943,65.592-27.904"/>
				<path fill="#75BC93" stroke="#101010" stroke-miterlimit="10" d="M85.332,214.632c0,0-15.695,13.165-22.706,13.165
					c0,0-29.096-4.207-30.148,12.268c0,0-3.156,10.518,26.642,10.166c0,0,8.414,1.402,24.188,14.372c0,0,18.229,9.468,34.704,3.508
					c0,0,35.755-7.362,52.231,2.804c0,0,23.137,0.699,37.158-14.724c0,0,8.413-8.413,31.55-8.062c0,0,22.083-18.231-12.271-19.98
					c0,0-11.917,1.749-21.733-4.559c0,0-5.179-2.949-16.396-4.35"/>
				<path fill="#F8ED32" stroke="#101010" stroke-miterlimit="10" d="M172.817,235.738c0,0,28.513,13.79,1.87,21.504
					c-19.331,5.593-72.137,6.649-82.496-9.112c-2.001-3.046-1.17-6.776,10.982-12.156"/>
				<path fill="#F8ED32" stroke="#101010" stroke-miterlimit="10" d="M200.309,157.658c0,0,51.622-45.977,61.462,2.576
					c2.037,10.046,0.361,27.212-31.441,26.298c-31.801-0.911-15.796,12.167-15.378,18.093c0.25,3.502-6.339,9.854-14.051-0.085
					c0,0-4.15-7.334,3.283-12.884c0,0,1.066-10.382-10.063-5.568"/>
				<path fill="#FFFFFF" stroke="#101010" stroke-miterlimit="10" d="M196.886,172.234c0,0,8.695-2.108,13.123,9.532
					c0,0,4.796-1.386,6.443-1.494c9.05-0.59,31.337,3.085,34.142-12.278c2.112-11.593-5.019-31.825-51.953-2.244L196.886,172.234z"
					/>
				<g>
					<path fill="#75BC93" stroke="#101010" stroke-miterlimit="10" d="M106.212,238.075c0,0-6.311,14.26,21.031,14.26
						c0,0,25.621,0.55,34.357-0.703c4.115-0.59,14.486-3.271,9.111-13.787"/>
				</g>
				<path fill="none" stroke="#101010" stroke-miterlimit="10" d="M191.745,211.902"/>
				<path fill="#75BC93" stroke="#101010" stroke-width="0.25" stroke-miterlimit="10" d="M49.691,116.265
					c0,0,39.459,33.714,33.851,79.048c0,0-8.881,47.208,55.621,48.608c0,0,54.686,3.743,54.217-48.608
					c0,0,1.287-57.96,36.808-78.993"/>
				<path fill="#BBBE9F" stroke="#101010" stroke-miterlimit="10" d="M232.648,113.571c0,7.483-41.307,10.7-92.547,10.7
					c-51.243,0-93.017-3.216-93.017-10.7c0-7.485,38.487-16.879,89.729-16.879C188.055,96.691,232.648,106.085,232.648,113.571z"/>
				<path fill="none" stroke="#101010" stroke-miterlimit="10" d="M64.508,132.733c0,0,62.503,12.567,148.218,0.083"/>
			</g>
		</g>
		<g id="Hat" display="none">
			<g display="inline">
				<path fill="#93764C" stroke="#101010" stroke-miterlimit="10" d="M193.528,128.598c-49.083-57.944-85.45-10.359-93.36,10.787
					c-34.619,92.525-70.476,48.245-70.476,48.245s103.244,194.907,238.015-46.775c0,0-24.848-26.355-47.435,24.844
					C220.272,165.7,200.918,137.324,193.528,128.598z"/>
				<path fill="#9E8564" stroke="#101010" stroke-miterlimit="10" d="M220.272,165.7c0,0-26.114,123.703-141.312,77.777
					c9.085,6.35,79.953,68.666,148.844-72.879c5.536-10.954,19.2-32.754,36.892-32.377
					C264.696,138.22,240.604,118.828,220.272,165.7z"/>
				<path fill="#9D9D9D" stroke="#101010" stroke-miterlimit="10" d="M89.83,162.217c0,0,70.021,35.951,120.844-10.633l5.646,7.906
					c0,0-40.669,77.533-133.278,15.419L89.83,162.217z"/>
				<path fill="#83CDCC" stroke="#101010" stroke-miterlimit="10" d="M117.853,199.558c0,0-4.235,18.916,7.905,15.812
					c0,0,12.706-3.108-2.54-17.226C123.218,198.147,121.241,200.125,117.853,199.558z"/>
				<path fill="#83CDCC" stroke="#101010" stroke-miterlimit="10" d="M123.47,198.329c0,0,16.895,9.509,17.42-3.012
					c0,0,0.693-13.062-17.228-2.535C123.663,192.782,124.987,195.243,123.47,198.329z"/>
				<path fill="#83CDCC" stroke="#101010" stroke-miterlimit="10" d="M123.946,193.005c0,0,13.99-13.422,2.158-17.546
					c0,0-12.306-4.442-7.412,15.758C118.691,191.215,121.431,190.661,123.946,193.005z"/>
				<path fill="#83CDCC" stroke="#101010" stroke-miterlimit="10" d="M118.647,190.933c0,0-5.665-18.534-14.676-9.835
					c0,0-9.519,8.979,10.728,13.722C114.699,194.82,115.432,192.123,118.647,190.933z"/>
				<path fill="#83CDCC" stroke="#101010" stroke-miterlimit="10" d="M114.73,194.684c0,0-19.363,0.901-13.162,11.788
					c0,0,6.351,11.446,15.953-6.995C117.521,199.477,115.094,198.101,114.73,194.684z"/>
				<ellipse fill="#D3CB67" stroke="#101010" stroke-miterlimit="10" cx="119.618" cy="195.395" rx="4.941" ry="4.657"/>
			</g>
		</g>
		<g id="Jumper" display="none">
			<path display="inline" fill="#1A3A24" stroke="#101010" stroke-miterlimit="10" d="M9.448,227.958L9.12,239.295
				c0,0,19.568,8.813,40.459,1.257l0.332-9.76"/>
			<path display="inline" fill="#1A3A24" stroke="#101010" stroke-miterlimit="10" d="M69.621,241.759v11.338
				c0,0,86.903,21.412,139.803,0l0.161-9.325"/>
			<path display="inline" fill="#1A3A24" stroke="#101010" stroke-width="0.5" stroke-miterlimit="10" d="M231.474,232.969v7.555
				c0,0,17.622,5.354,40.294-0.315l-0.378-14.155"/>
			<path display="inline" fill="#1A3A24" stroke="#101010" stroke-width="0.5" stroke-miterlimit="10" d="M101.107,26.387
				c0,0-28.341,6.93-47.233,20.782c0,0-65.497,81.236-45.343,180.109c0,0,15.745,17.634,42.195,2.519
				c0,0,8.188-91.944,15.744-102.651c0,0-1.892,108.951,0.627,113.356c0,0,68.018,27.705,144.847,2.521
				c0,0,5.033-69.903,3.145-112.1c0,0,12.597,96.985,15.749,101.395c0,0,42.816,7.561,42.191-12.596
				c0,0,6.297-108.944-51.009-175.069c0,0-22.671-18.266-46.604-19.527L101.107,26.387z"/>
			<path display="inline" fill="none" stroke="#101010" stroke-width="0.5" stroke-miterlimit="10" d="M55.136,45.912
				c0,0,20.206,24.894,10.761,82.204"/>
			<path display="inline" fill="none" stroke="#101010" stroke-width="0.5" stroke-miterlimit="10" d="M218.239,42.132
				c0,0-15.504,50.38-2.914,90.998"/>
			<path display="inline" fill="none" stroke="#101010" stroke-width="0.5" stroke-miterlimit="10" d="M101.107,26.387
				c0,0,39.992,44.712,77.141-1.262"/>
			<path display="inline" fill="none" stroke="#101010" stroke-width="0.5" stroke-miterlimit="10" d="M106.62,26.545
				c0,0,34.472,32.937,66.751-1.383"/>
		</g>
		<g id="Book" display="none">
			<g display="inline">
				<path fill="none" stroke="#101010" stroke-miterlimit="10" d="M212.379,210.516"/>
				<path fill="#3C39D3" stroke="#101010" stroke-miterlimit="10" d="M209.17,213.511l6.823-0.181V-4.321H75.979l-19.81,19.275
					v217.65H197.52V14.552L60.988,14.419L76.849-1.11h135.528l0.402,211.626c0,0-9.436,6.024-15.461,13.854"/>
				<path fill="none" stroke="#101010" stroke-miterlimit="10" d="M72.155,2.925"/>
				<polygon fill="#25258E" stroke="#101010" stroke-miterlimit="10" points="69.821,15.356 69.854,232.574 56.169,232.553 
					56.169,14.954 				"/>
				
					<text transform="matrix(1 0 0 1 91.7227 68.644)" fill="#F3F2F1" stroke="#101010" stroke-miterlimit="10" font-family="'Lovefern-Regular'" font-size="37.749">Pride and </text>
				
					<text transform="matrix(1 0 0 1 89.1001 98.0044)" fill="#F3F2F1" stroke="#101010" stroke-miterlimit="10" font-family="'Lovefern-Regular'" font-size="37.749">Prejudice</text>
				
					<text transform="matrix(1 0 0 1 107.0327 228.8579)" fill="#F3F2F1" stroke="#101010" stroke-miterlimit="10" font-family="'Lovefern-Regular'" font-size="16.8659">Jane Austen</text>
				<polyline fill="none" stroke="#101010" stroke-width="0.25" stroke-miterlimit="10" points="62.728,12.545 199.93,12.545 
					199.85,221.381 				"/>
				<polyline fill="none" stroke="#101010" stroke-width="0.25" stroke-miterlimit="10" points="66.077,9.201 203.145,9.332 
					203.145,218.247 				"/>
				<polyline fill="none" stroke="#101010" stroke-width="0.25" stroke-miterlimit="10" points="69.42,5.985 206.354,6.119 
					206.354,215.336 				"/>
				<polyline fill="none" stroke="#101010" stroke-width="0.25" stroke-miterlimit="10" points="73.035,2.505 209.568,2.639 
					209.568,212.66 				"/>
				<polygon fill="#6D0909" stroke="#101010" stroke-miterlimit="10" points="70.224,7.322 61.188,14.82 61.188,55.512 
					68.453,46.945 75.85,55.512 75.85,14.552 83.877,7.322 				"/>
			</g>
		</g>
	</g>
	<g id="Layer_2">
		<g display="inline">
			<g>
				<polygon fill="#ABB1B7" stroke="#545252" stroke-width="0.25" stroke-linecap="round" stroke-miterlimit="10" points="
					146.417,177.666 216.982,177.666 223.032,221.005 140.366,221.005 				"/>
				<polyline fill="#ABB1B7" stroke="#545252" stroke-width="0.25" stroke-linecap="round" stroke-miterlimit="10" points="
					140.387,221.167 140.387,232.52 223.012,232.52 223.012,221.167 				"/>
			</g>
			<g>
				<path d="M206.672,155.938c0,0-7.688,47.29-9.845,51.606c0,0,1.913,1.473,9.761,2.94v2.554h-9.811l-1.078-1.668h-0.295v1.668
					h-4.414c0,0,0-4.81,0.49-5.787c0,0,3.986-40.383-8.307-48.49l-1.254-0.01c-12.294,8.107-8.307,48.492-8.307,48.492
					c0.49,0.979,0.49,5.784,0.49,5.784h-4.414v-1.666h-0.295l-1.078,1.666h-9.811v-2.549c7.848-1.474,9.76-2.942,9.76-2.942
					c-2.158-4.316-9.955-52.445-9.955-52.445l23.805-6.737L206.672,155.938z"/>
				<polyline fill="#FF0000" stroke="#BC2828" stroke-width="0.15" stroke-miterlimit="10" points="180.639,109.052 
					178.029,126.219 181.562,136.52 185.387,126.611 182.966,109.049 				"/>
				<path fill="#1E202F" d="M171.359,99.733c0,0-2.844-0.49-3.825,1.079h-6.671c0,0-1.766-5.101-6.473-1.766l-11.674,48.557
					l8.928,0.688l6.277-28.839c0,0-2.943,30.605,0.393,36.294h18.246l5.688-7.062l6.278,7.062l18.146,0.192
					c0,0,3.238-17.851-1.666-41.197l9.222,9.809c0,0,2.551,1.57,4.119-0.393l16.873-20.404l-6.867-5.886l-12.557,14.714
					l-9.613-9.908c0,0-1.961-1.864-5.101-1.864h-7.259c0,0-0.307-0.946-0.59-0.981c-1.246-0.153-2.746,2.747-3.924,3.139
					c-1.178,0.392-0.195,15.303-7.65,33.548c0,0-7.455-19.226-7.848-34.137C173.812,102.382,171.85,100.617,171.359,99.733z"/>
				<path fill="#FAD3C0" d="M143.992,147.996l0.098,1.373c0,0-3.434,2.207-6.278,7.111c0,0-0.539,1.373,1.913,0.49l1.421-1.717
					c0,0,0.344-0.1,0.344,0.933l-0.785,8.044c0,0,0.638,1.52,1.471-0.146l1.03-6.229c0,0,0.833-0.539,0.735,0.491l-0.785,7.308
					c0,0,0.687,1.324,1.373-0.488l1.178-6.916c0,0,0.785-0.197,0.688,0.488l-0.59,6.867c0,0,0.785,1.128,1.228-0.245
					c0.44-1.374,0.883-6.671,0.883-6.671s0.637-0.343,0.588,0.439c-0.049,0.785,0,3.875,0,3.875s0.687,0.98,1.177-0.344
					c0,0,1.178-11.82,0.688-14.076"/>
				
					<line fill="none" stroke="#CECDCC" stroke-width="0.15" stroke-miterlimit="10" x1="179.928" y1="107.75" x2="174.891" y2="109.936"/>
				<path fill="#FAD3C0" d="M229.309,98.756l1.041-0.903c0,0-0.865-3.988,0.59-9.469c0,0,0.588-1.352,1.699,1.005l-0.207,2.223
					c0,0,0.172,0.311,0.901-0.417l5.132-6.243c0,0,1.526-0.624,0.938,1.145l-3.678,5.131c0,0,0.211,0.972,0.867,0.175l4.613-5.723
					c0,0,1.423-0.451,0.626,1.318l-4.06,5.723c0,0,0.416,0.693,0.834,0.138l4.438-5.272c0,0,1.352-0.242,0.691,1.041
					c-0.658,1.283-4.094,5.342-4.094,5.342s0.209,0.694,0.73,0.104c0.518-0.59,2.738-2.74,2.738-2.74s1.179-0.208,0.589,1.074
					c0,0-7.524,9.191-9.47,10.441"/>
				
					<line fill="none" stroke="#CECDCC" stroke-width="0.15" stroke-miterlimit="10" x1="183.816" y1="107.582" x2="188.134" y2="109.936"/>
				
					<rect x="180.21" y="105.87" transform="matrix(0.7118 0.7024 -0.7024 0.7118 128.0575 -96.748)" fill="#FF0000" stroke="#BC2828" stroke-width="0.15" stroke-miterlimit="10" width="3.424" height="3.604"/>
				<path d="M181.659,136.52l-13.046-24.817l1.373-3.041l-3.336-2.551l0.785-5.002c0,0,0.639-1.226,1.668-1.275l4.562,1.03"/>
				<path d="M182.052,136.322l12.429-23.947l-1.373-3.041l3.336-2.55l-0.783-5.003c0,0-0.639-1.226-1.668-1.275l-4.562,1.03"/>
				<g>
					<path fill="#FAD3C0" d="M228.504,42.847c-1.396,16.955-3.99,19.545-3.99,19.545h-2.99c-1.196,19.149-25.73,37.101-25.73,37.101
						s-10.329,5.694-14.132,5.638c-3.54-0.052-12.993-5.638-12.993-5.638c-15.957-10.174-27.575-38.57-27.575-38.57
						s-2.465,1.586-3.341,1.372c-1.65-0.403-1.396-15.958-1.396-15.958l5.285-46.773h84.072L228.504,42.847z"/>
					<path fill="#F7F3C1" d="M198.783-46.114c0,0,9.175,12.367,8.379,13.763c0,0-43.284-30.518-71.606,10.969
						c0,0,14.162-10.172,15.958-9.873c0,0-35.006,25.131-12.268,85.567c0,0,6.283-14.66,7.48-24.233c0,0,26.625-5.984,38.295-22.44
						c0,0-0.301,9.275-8.676,21.243c0,0,16.754-5.685,25.729-24.832c0,0-2.097,15.259-14.062,22.738c0,0,7.479,1.197,21.24-16.456
						c0,0,2.689,12.567,8.079,16.756l0.599-6.881c0,0,5.387,31.414,6.281,32.013c0,0,21.043-35.903,1.496-69.212
						c0,0,5.982,5.984,7.581,10.571c0,0,0.396-22.34-21.94-23.735C211.35-30.157,211.947-45.915,198.783-46.114z"/>
				</g>
				<path fill="none" stroke="#EAC2B2" stroke-width="0.5" stroke-linecap="round" stroke-miterlimit="10" d="M186.762,35.522V50.29
					c4.707,4.624,4.006,9.625,4.006,9.625h-4.59c-4.787,7.869-11.572-0.083-11.572-0.083l-2.607,0.115
					c-0.199-6.305,3.775-9.447,3.775-9.447V35.522"/>
				<path fill="#EAC2B2" stroke="#EAC2B2" stroke-miterlimit="10" d="M167.822,72.626c0,0,2.792,0,3.591-0.837
					c0,0,6.585-3.565,9.776,1.465c0,0,0.896,0.63,1.099,0.106c0,0,5.886-6.289,11.272-1.571c0,0,2.396,1.047,2.895,0.837
					s-13.27,3.982-14.665,3.982C181.79,76.608,168.32,74.62,167.822,72.626z"/>
				<path fill="none" stroke="#EAC2B2" stroke-width="0.5" stroke-miterlimit="10" d="M171.613,81.949h20.353
					C191.966,81.949,183.188,105.553,171.613,81.949z"/>
				<path fill="#EAC2B2" stroke="#EAC2B2" stroke-linecap="round" stroke-miterlimit="10" d="M169.844,37.933
					c0,0-2.595,4.61-7.584,2.934c0,0,1.399-2.725,4.592-2.096C166.852,38.77,169.895,38.037,169.844,37.933z"/>
				<path fill="none" stroke="#EAC2B2" stroke-width="0.5" stroke-linecap="round" stroke-miterlimit="10" d="M171.812,55.335
					c0,0-9.181,8.827-9.379,16.183"/>
				<path fill="none" stroke="#EAC2B2" stroke-width="0.5" stroke-linecap="round" stroke-miterlimit="10" d="M191.165,55.335
					c0,0,9.181,8.827,9.379,16.183"/>
				<path fill="none" stroke="#EAC2B2" stroke-width="0.5" stroke-linecap="round" stroke-miterlimit="10" d="M152.23,67.315
					c0,0,3.418,20.628,10.203,26.304"/>
				<path fill="#EAC2B2" stroke="#EAC2B2" stroke-linecap="round" stroke-miterlimit="10" d="M165.627,28.605h6.584V32.3
					C172.212,32.3,173.009,29.863,165.627,28.605z"/>
				<path fill="none" stroke="#EAC2B2" stroke-width="0.5" stroke-linecap="round" stroke-miterlimit="10" d="M202.062,93.621
					c6.783-5.676,10.595-26.304,10.595-26.304l1.438,0.146l-1.048,3.271l-1.178,1.438"/>
				<path fill="#EAC2B2" stroke="#EAC2B2" stroke-miterlimit="10" d="M191.336,37.933c0,0,2.596,4.61,7.583,2.934
					c0,0-1.399-2.725-4.592-2.096C194.327,38.77,191.285,38.037,191.336,37.933z"/>
				<path fill="#EAC2B2" stroke="#EAC2B2" stroke-miterlimit="10" d="M195.552,28.605h-6.584V32.3
					C188.968,32.3,188.171,29.863,195.552,28.605z"/>
				<path fill="#EAC2B2" stroke="#EAC2B2" stroke-width="0.5" stroke-miterlimit="10" d="M177.438,82.519c0,0-0.295,1.275,0.49,1.57
					c0.784,0.294,8.143,0,8.143,0s0.589-0.981,0.195-1.57C185.873,81.931,177.438,82.519,177.438,82.519z"/>
				<g>
					<path fill="none" stroke="#3A3533" stroke-width="0.15" stroke-linecap="round" stroke-miterlimit="10" d="M163.857,33.43
						c-0.696,1.886,3.229,1.551,4.265,1.151c2.438-0.946,0.198-4.088,0.198-4.088s-3.891,3.458-6.584,3.458
						s-3.293,3.774-3.293,3.774"/>
					<path fill="#34445B" stroke="#3A3533" stroke-width="0.15" stroke-linecap="round" stroke-miterlimit="10" d="M168.32,30.493
						c0,0,2.24,3.142-0.198,4.088c-1.035,0.4-4.961,0.735-4.265-1.151C163.857,33.43,168.125,31.388,168.32,30.493z"/>
				</g>
				<g>
					<path fill="none" stroke="#3A3533" stroke-width="0.15" stroke-linecap="round" stroke-miterlimit="10" d="M196.807,33.43
						c0.696,1.886-3.229,1.551-4.265,1.151c-2.438-0.946-0.198-4.088-0.198-4.088s3.891,3.458,6.586,3.458
						c2.691,0,3.291,3.774,3.291,3.774"/>
					<path fill="#34445B" stroke="#3A3533" stroke-width="0.15" stroke-linecap="round" stroke-miterlimit="10" d="M192.344,30.493
						c0,0-2.24,3.142,0.198,4.088c1.034,0.4,4.961,0.735,4.265-1.151C196.807,33.43,192.539,31.388,192.344,30.493z"/>
				</g>
			</g>
			<text transform="matrix(1.0005 0 0 1 143.958 229.3354)" fill="#FFFFFF" font-family="'Verdana-Bold'" font-size="8">BORIS JOHNSON</text>
			
				<text transform="matrix(1.0005 0 0 1 143.958 229.3354)" fill="none" stroke="#3A3533" stroke-width="0.1" stroke-linecap="round" stroke-miterlimit="10" font-family="'Verdana-Bold'" font-size="8">BORIS JOHNSON</text>
		</g>
	</g>
	
		<image overflow="visible" width="1181" height="1181" xlink:href="../../../../brexit-files/bus.jpg"  transform="matrix(1 0 0 1 -441.25 -442.9185)">
	</image>
	<path display="inline" fill="none" stroke="#FFFFFF" stroke-miterlimit="10" d="M-158.25,339.082"/>
	<g display="inline">
		<g>
			<path fill="#EC1A25" d="M30.893,52.749h202.613c0,0,37.012,1.26,35.416,46.613l0.958,46.929h-2.553v85.352h-37.651v4.095h-12.23
				c0,0,7.231-24.356-18.507-27.296c0,0-24.674-1.26-19.357,27.717H52.589c0,0,7.232-20.998-13.614-27.086
				c0,0-21.059-6.3-25.526,19.736l-1.702-0.21v-30.865c0,0,1.277-8.006,6.382-8.846c0,0-0.32-41.653,1.489-41.128l-4.999-0.104
				v-10.394l4.946-72.859C19.565,64.402,21.001,53.221,30.893,52.749z"/>
			<path fill="#FFFFFF" d="M96.143,91.907c0,2.117-1.745,3.833-3.899,3.833H64.786c-2.154,0-3.9-1.716-3.9-3.833v-26.35
				c0-2.116,1.746-3.832,3.9-3.832h27.458c2.154,0,3.899,1.716,3.899,3.832V91.907z"/>
			<path fill="#FFFFFF" d="M136.187,91.907c0,2.117-1.746,3.833-3.899,3.833h-27.459c-2.153,0-3.899-1.716-3.899-3.833v-26.35
				c0-2.116,1.746-3.832,3.899-3.832h27.459c2.153,0,3.899,1.716,3.899,3.832V91.907z"/>
			<path fill="#FFFFFF" d="M176.231,92.064c0,2.117-1.745,3.833-3.9,3.833h-27.458c-2.154,0-3.899-1.716-3.899-3.833v-26.35
				c0-2.117,1.745-3.833,3.899-3.833h27.458c2.155,0,3.9,1.716,3.9,3.833V92.064z"/>
			<path fill="#FFFFFF" d="M216.594,92.222c0,2.117-1.745,3.833-3.899,3.833h-27.458c-2.154,0-3.9-1.716-3.9-3.833v-26.35
				c0-2.116,1.746-3.832,3.9-3.832h27.458c2.154,0,3.899,1.716,3.899,3.832V92.222z"/>
			<path fill="#FFFFFF" d="M96.492,183.712c0,2.116-1.746,3.832-3.899,3.832H65.133c-2.153,0-3.899-1.716-3.899-3.832v-26.35
				c0-2.117,1.746-3.832,3.899-3.832h27.459c2.154,0,3.899,1.715,3.899,3.832V183.712z"/>
			<path fill="#FFFFFF" d="M136.215,183.866c0,2.117-1.746,3.833-3.899,3.833h-27.459c-2.153,0-3.899-1.716-3.899-3.833v-26.35
				c0-2.116,1.746-3.833,3.899-3.833h27.459c2.154,0,3.899,1.717,3.899,3.833V183.866z"/>
			<path fill="#FFFFFF" d="M176.417,184.023c0,2.117-1.746,3.834-3.9,3.834h-27.459c-2.153,0-3.899-1.717-3.899-3.834v-26.35
				c0-2.116,1.746-3.832,3.899-3.832h27.459c2.154,0,3.9,1.716,3.9,3.832V184.023z"/>
			<path fill="#FFFFFF" d="M216.618,184.02c0,2.116-1.745,3.833-3.9,3.833h-27.459c-2.153,0-3.899-1.717-3.899-3.833v-26.351
				c0-2.116,1.746-3.832,3.899-3.832h27.459c2.155,0,3.9,1.716,3.9,3.832V184.02z"/>
			<path fill="#FFFFFF" d="M56.444,92.379c0,2.117-1.746,3.833-3.899,3.833H25.086c-2.153,0-2.064-1.558-2.064-3.675l2.127-26.246
				c0-2.117,1.038-4.094,3.191-4.094h24.205c2.154,0,3.899,1.715,3.899,3.832V92.379z"/>
			<path fill="#FFFFFF" d="M225.12,62.04c-2.153,0-3.899,1.716-3.899,3.832v26.35c0,2.117,1.746,3.833,3.899,3.833h27.459
				c2.154,0,3.899-1.716,3.899-3.833C256.479,92.222,258.692,57,225.12,62.04z"/>
			<path fill="#FFFFFF" d="M27.838,147.544c-1.908,0-3.455,1.716-3.455,3.833v26.35c0,2.116,1.547,3.833,3.455,3.833h24.329
				c1.908,0,3.454-1.717,3.454-3.833V158.73C55.621,158.73,51.106,145.65,27.838,147.544z"/>
			<path fill="#FFFFFF" d="M260.413,146.709v76.849H230.42v-62.99C230.42,160.568,229.144,147.339,260.413,146.709z"/>
			<ellipse fill="#211D1E" cx="33.977" cy="228.056" rx="19.889" ry="19.648"/>
			<ellipse fill="#BDC9CF" cx="33.764" cy="228.177" rx="9.891" ry="9.867"/>
			<ellipse fill="#211D1E" cx="198.194" cy="228.056" rx="19.889" ry="19.648"/>
			<ellipse fill="#BDC9CF" cx="197.98" cy="228.177" rx="9.892" ry="9.867"/>
		</g>
		<rect x="40.465" y="111.015" fill="#FCED61" width="201.017" height="17.953"/>
		<line fill="none" stroke="#FFFFFF" stroke-miterlimit="10" x1="14.62" y1="136.526" x2="269.241" y2="136.526"/>
		<path fill="none" stroke="#FFFFFF" stroke-miterlimit="10" d="M229.676,209.911h-7.658c0,0-23.611-23.622-45.308,0H55.781"/>
		<line fill="none" stroke="#FFFFFF" stroke-miterlimit="10" x1="55.781" y1="180.305" x2="55.781" y2="235.737"/>
		<path fill="none" stroke="#FFFFFF" stroke-miterlimit="10" d="M55.142,197.312c0,0-42.446-3.279-43.234,13.071"/>
		<line fill="none" stroke="#FFFFFF" stroke-miterlimit="10" x1="18.13" y1="188.887" x2="55.142" y2="189.124"/>
		<text transform="matrix(1.0131 0 0 1 65.5435 124.2725)"><tspan x="0" y="0" font-family="'Raleway-Bold'" font-size="11.3383">VOTE </tspan><tspan x="32.609" y="0" font-family="'Raleway-Regular'" font-size="11.3383">TO </tspan><tspan x="50.931" y="0" font-family="'Raleway-Bold'" font-size="11.3383">LEAVE </tspan><tspan x="89.299" y="0" font-family="'Raleway-Regular'" font-size="11.3383">ON JUNE 23</tspan></text>
	</g>
</g>
<g id="Biscuits" display="none">
	<g display="inline">
		<g>
			<path fill="#D6B05C" stroke="#AA8B4D" stroke-miterlimit="10" d="M110.301,112.233c0,0-6.632-4.622-13.265-0.403
				c0,0-8.238-4.822-16.479,1.008c0,0-11.855-2.814-17.483,3.417c0,0-11.654-1.81-16.279,6.032c0,0,4.02-0.606,4.421,0.398
				c0.402,1.006-7.635-1.406-10.65,1.006c0,0,3.417,0.201,3.819,0.804c0,0-6.631-2.208-10.65,3.618c0,0,4.421,0.201,5.225,1.203
				c0,0-9.044-4.622-15.474,10.249c0,0,8.44-4.42,10.047-2.411c0,0-16.479,0.4-14.67,16.075c0,0,10.449-10.852,12.258-8.24
				c0,0-18.688,5.225-10.851,22.911c0,0,7.034-10.853,8.039-8.442c0,0-19.293,10.249,3.014,23.716c0,0-0.805-12.662,1.607-16.079
				c0,0-7.034,23.918,10.25,23.918c0,0-0.604-13.065,0.602-14.872c0,0-6.431,22.309,16.881,21.303c0,0-1.809-13.061-0.202-15.472
				c0,0-7.234,23.31,15.272,19.089c0,0,4.019-2.213,4.421-3.817c0.402-1.607-2.612-6.233,0.2-15.678c0,0-7.437,32.557,18.489,18.69
				c0,0,3.115-10.146,2.596-18.584l-3.3,19.791c0,0,33.864,10.648,19.794-22.103c0,0,6.029,17.077,0.604,21.093
				c0,0,22.308,3.022,20.096-13.259c0,0,0.201,7.637-2.209,9.444c0,0,13.463-0.805,13.865-6.632
				C150.693,184.177,110.301,112.233,110.301,112.233z"/>
			<path fill="#D6B05C" stroke="#AA8B4D" stroke-miterlimit="10" d="M70.509,126.906c0,0,0.402,0.805,1.608,1.204
				c1.207,0.4,2.209,0.804,2.611,0.203c0.402-0.602,1.607-1.609,1.607-1.609s1.207-0.602,2.01-0.4"/>
			<path fill="#D6B05C" stroke="#AA8B4D" stroke-miterlimit="10" d="M51.419,133.333c0,0-0.805,0.603,0.804,1.207
				c1.608,0.602,2.212,0.402,2.212,0.402l2.01-1.008c0,0,0.402,0.404,1.404,0.805c1.007,0.4,2.01-1.41,2.01-1.41"/>
			<path fill="#D6B05C" stroke="#AA8B4D" stroke-miterlimit="10" d="M40.367,156.847c0,0,2.611-1.408,3.014-0.607
				c0.402,0.809,3.617,1.207,3.617,1.207s0.602,0.205,1.81,1.207c1.205,1.006,2.212-1.006,2.212-1.006s2.008-2.408,2.611-1.811
				c0.604,0.607,2.212-0.803,2.212-0.803"/>
			<path fill="#D6B05C" stroke="#AA8B4D" stroke-miterlimit="10" d="M41.973,145.994c0,0,1.809-1.004,2.412,0
				c0.604,1.008,1.407,1.207,2.612,1.609c1.205,0.402,2.612-1.008,2.612-1.008s1.606-2.611,2.209-2.006
				c0.604,0.604,2.01-1.008,2.01-1.008"/>
			<path fill="#D6B05C" stroke="#AA8B4D" stroke-miterlimit="10" d="M64.078,146.595c0,0,2.21,0.605,3.617,0.805
				c1.407,0.201,1.004-1.203,1.004-1.203s0-2.616,1.007-2.213c1.003,0.402,1.406-0.805,1.406-0.805"/>
			<path fill="#D6B05C" stroke="#AA8B4D" stroke-miterlimit="10" d="M83.774,129.112c0,0-1.81,2.816-2.814,3.219
				c-1.005,0.398-3.817,0.805-3.417,1.404c0.402,0.605,2.812,1.61,3.216,2.414c0.402,0.801,1.808,3.014,3.215,2.411
				C85.38,137.958,96.634,130.12,83.774,129.112z"/>
			<path fill="#D6B05C" stroke="#AA8B4D" stroke-miterlimit="10" d="M92.817,121.277c0,0,0.603,2.411,1.407,2.612
				c0.804,0.201,3.616,0.201,4.219,0.402c0.602,0.201,2.812-0.402,3.617-0.201c0.804,0.201,2.21-0.805,2.21-0.805l1.609-1.807"/>
			<path fill="#D6B05C" stroke="#AA8B4D" stroke-miterlimit="10" d="M96.031,131.326c0,0,1.407-0.605,2.01,0.199
				c0.602,0.805,1.606,0.201,2.612,0.201s2.813-0.4,2.813-0.4"/>
			<path fill="#D6B05C" stroke="#AA8B4D" stroke-miterlimit="10" d="M88.798,140.37c0,0,1.809,0.602,2.009,1.606
				c0.2,1.002,0.603,1.203,2.01,1.605c1.407,0.403,3.216,0,3.216,0l2.412-0.604"/>
			<path fill="#D6B05C" stroke="#AA8B4D" stroke-miterlimit="10" d="M82.97,151.621c0,0,1.204,0.201,2.411,0.402
				c1.208,0.199,2.413-1.609,2.413-1.609s0.805-2.209,1.607-1.404"/>
			<path fill="#D6B05C" stroke="#AA8B4D" stroke-miterlimit="10" d="M92.414,158.251c0,0,2.01-0.805,2.413-0.201
				s0.804,1.01,2.009,1.408c1.206,0.402,2.209,0,2.814,0c0.602,0,1.406-2.41,2.208-2.008"/>
			<path fill="#D6B05C" stroke="#AA8B4D" stroke-miterlimit="10" d="M77.745,163.88c0,0,2.209,0.402,3.014,1.808
				c0.803,1.407,1.205,1.407,2.412,1.407c1.205,0,2.612-1.403,3.617-0.397c1.005,1.002,2.211,0.197,2.812,0.397
				c0.605,0.202,1.81-1.005,1.81-1.005"/>
			<path fill="#D6B05C" stroke="#AA8B4D" stroke-miterlimit="10" d="M95.629,177.546c0,0,0.602,1.202,2.211,1.604
				c1.608,0.402,2.813-0.804,2.813-0.804s1.609-1.808,2.411-1.203c0.804,0.603,2.412-0.801,2.412-0.801l1.204-2.013"/>
			<path fill="#D6B05C" stroke="#AA8B4D" stroke-miterlimit="10" d="M105.277,164.686l2.009,1.202c0,0,0.202,1.409,1.608,1.812
				c1.407,0.402,1.407,0.402,1.407,0.402"/>
			<path fill="#D6B05C" stroke="#AA8B4D" stroke-miterlimit="10" d="M63.273,158.453c0,0,2.612,0.406,3.215,0.805
				c0.603,0.402,1.809-0.805,2.411-0.805c0.605,0,3.218-1.203,3.218-1.203l1.207-1.609l-0.604-3.416"/>
			<path fill="#D6B05C" stroke="#AA8B4D" stroke-miterlimit="10" d="M53.829,167.494c0,0,1.207,0.005,1.81,1.011
				c0.604,1.001,0.402,3.416,1.407,4.221c1.005,0.801,2.812-0.402,2.812-0.402s1.407-2.213,2.01-1.811
				c0.604,0.402,1.206-1.609,2.009-1.609"/>
			<path fill="#D6B05C" stroke="#AA8B4D" stroke-miterlimit="10" d="M74.729,178.552c0,0,0.402-0.205,1.607,0.401
				c1.207,0.605,2.613-1.009,2.613-1.009l1.005-2.612"/>
			<path fill="#D6B05C" stroke="#AA8B4D" stroke-miterlimit="10" d="M45.189,165.688c0,0-2.211,1.207-2.211,3.215
				c0,0-4.019-1.605-2.01,3.215c0,0-2.412,10.249,6.431,4.021C47.399,176.138,56.04,166.895,45.189,165.688z"/>
		</g>
		<g>
			<path fill="#D6B05C" stroke="#AA8B4D" stroke-miterlimit="10" d="M165.766,101.783c0,0-10.449-6.03-14.469,0
				c0,0-9.646-4.823-16.48,1.607c0,0-11.254-3.215-14.468,6.032c0,0-9.378,5.485-8.171,13.524c0,0,6.561-5.487,9.779-3.477
				c0,0-16.178,0.353-14.168,16.428c0,0,4.52-9.195,12.96-8.391c0,0-21.699,4.967-10.846,22.652c0,0,6.094-9.94,9.059-11.327
				c0.423-0.198,0.23-0.873,0.484-0.676c2.009,1.608-22.007,12.663-1.91,27.128c0,0,4.422-16.475,8.845-18.084
				c0,0-21.503,24.922,4.218,29.438c0,0,0.804-14.27,4.218-15.772c0,0-11.153,22.205,10.952,22.806c0,0,2.009-14.47,6.33-15.574
				c0,0-21.2,22.81,15.374,24.012c0,0,0.722-4.911,2.712-12.355c0,0-11.035,23.254,14.508,20.973
				c0.251-0.022,0.506-0.045,0.767-0.072c0,0,0.134-0.182,0.36-0.523c1.371-2.076,4.499-8.977,4.562-17.666
				c0,0-2.861,15.222-4.521,18.539c0,0,27.734,12.511,22.911-18.437c0,0,0.501,18.539-3.919,19.34c0,0,30.445,12.01,19.996-22.555
				c0,0,5.777,17.635-1.457,22.858c0,0,22.354,4.069,15.926-25.27c0,0,3.516,18.422-3.316,22.039c0,0,24.214-1.138,14.569-25.254
				c0,0,3.514,15.069,1.908,16.277c0,0,17.386-8.64,5.326-24.316c0,0,5.374,8.039,4.922,9.091
				c-0.451,1.055,7.688-9.342-6.329-20.041c0,0,4.372,3.013,4.823,3.312c0.451,0.304,2.263-10.097-7.234-14.165l2.259,0.3
				c0,0-4.218-14.167-18.839-19.143c0,0-4.821-7.083-16.577-9.344c0,0-3.618-7.989-18.69-6.783c0,0-3.618-9.044-19.895-5.426
				C182.244,103.491,173.703,96.155,165.766,101.783z"/>
			<path fill="#D6B05C" stroke="#AA8B4D" stroke-miterlimit="10" d="M151.043,120.072c0,0,1.357,1.66,1.206,2.712
				c0,0,7.082-8.59,12.663,0.757c0,0,4.67,5.424-2.866,4.819c0,0-0.903,4.672-5.876,0
				C156.17,128.36,148.029,129.565,151.043,120.072z"/>
			<path fill="#D6B05C" stroke="#AA8B4D" stroke-miterlimit="10" d="M226.104,123.235c0,0-1.811-3.917-5.124,0.756
				c0,0-6.783,4.221,2.107,5.875c0,0,4.673,3.466,6.331,1.507C229.419,131.374,233.341,124.592,226.104,123.235z"/>
			<path fill="#D6B05C" stroke="#AA8B4D" stroke-miterlimit="10" d="M204.853,164.234c0,0-7.839-2.414-4.222,5.271
				c3.619,7.688,6.479,1.66,6.934,0.757C208.018,169.354,212.689,163.027,204.853,164.234z"/>
			<path fill="#D6B05C" stroke="#AA8B4D" stroke-miterlimit="10" d="M170.488,131.977c0,0,2.108,4.073,3.314,3.468
				c1.209-0.606,4.976-0.151,5.127,0.605"/>
			<path fill="#D6B05C" stroke="#AA8B4D" stroke-miterlimit="10" d="M172.597,142.227c0,0,1.357,8.442,5.127,0.603"/>
			<path fill="#D6B05C" stroke="#AA8B4D" stroke-miterlimit="10" d="M165.815,150.367c0,0,2.412,8.743,7.237,1.505"/>
			<path fill="#D6B05C" stroke="#AA8B4D" stroke-miterlimit="10" d="M137.328,149.009c0,0,3.316,3.166,3.015,3.768
				c-0.302,0.605,4.975,0.905,5.122,0.302c0.152-0.606,3.77-0.606,3.922-0.149c0.148,0.449,1.203-1.809,1.203-1.809l2.263-1.662"/>
			<path fill="#D6B05C" stroke="#AA8B4D" stroke-miterlimit="10" d="M131.151,141.019l5.274,1.661c0,0,1.506-0.453,1.959-1.96
				c0.451-1.506,2.112-2.41,2.412-1.96"/>
			<path fill="#D6B05C" stroke="#AA8B4D" stroke-miterlimit="10" d="M128.286,126.25c0,0,1.809,0.452,1.658,1.357
				c-0.149,0.904,3.166,1.207,3.166,1.207l0.302,1.053c0,0,3.766-2.26,3.617-2.714c-0.15-0.452,2.562-0.452,2.562-0.452"/>
			<path fill="#D6B05C" stroke="#AA8B4D" stroke-miterlimit="10" d="M134.768,113.89c0,0,3.467,2.414,3.164,2.866
				c-0.301,0.447,0.904,0.447,1.357,0.447c0.449,0,0.565,1.701,1.055,1.661c0.803-0.062,0.601-3.164,0.601-3.164
				s0.453-1.96,0.904-1.507c0.453,0.452,2.264-1.055,2.264-1.055"/>
			<path fill="#D6B05C" stroke="#AA8B4D" stroke-miterlimit="10" d="M154.811,109.521c0,0,1.208,2.11,2.111,2.11
				s3.161,1.056,2.863,1.658c-0.302,0.605,0.754,1.207,0.754,1.207l1.056-1.809"/>
			<path fill="#D6B05C" stroke="#AA8B4D" stroke-miterlimit="10" d="M175.309,107.864c0,0,0.755,1.354,1.055,1.809
				c0.305,0.449,1.208,0.903,1.66,0.903s0.903,1.058,0.903,1.058s-0.152,0.602,1.055,0.602"/>
			<path fill="#D6B05C" stroke="#AA8B4D" stroke-miterlimit="10" d="M199.575,114.344c0,0,0.528,0.83,1.132,1.732
				c0.604,0.908,0.262,1.471,1.317,1.773c1.056,0.3,2.526,1.015,2.526,1.621c0,0.604-0.508,2.083,0,2.41
				c0.523,0.338,1.656-0.753,2.261-1.056"/>
			<path fill="#D6B05C" stroke="#AA8B4D" stroke-miterlimit="10" d="M187.82,122.784c0,0,1.055,1.357,1.958,1.507
				c0.903,0.15,1.206,0.908,1.206,0.908s-1.055,1.353,0.453,1.353c1.507,0,2.714-1.203,2.714-1.203s2.263-0.907,2.561-0.302
				c0.302,0.604,1.357-0.905,1.357-0.905"/>
			<path fill="#D6B05C" stroke="#AA8B4D" stroke-miterlimit="10" d="M210.729,134.239c0,0,0.904,1.28,1.056,1.735
				c0.152,0.45-0.075,1.394,0.979,1.693c1.055,0.302,2.186-0.718,2.186-0.718h1.054"/>
			<path fill="#D6B05C" stroke="#AA8B4D" stroke-miterlimit="10" d="M226.557,139.362c0,0,0.3,0.152,1.657,1.205
				c1.357,1.058,2.56,3.318,3.014,3.318s3.168-0.452,3.618-0.754c0.452-0.302,1.657-1.657,2.11-1.057c0.45,0.605,2.412,0,2.412,0"/>
			<path fill="#D6B05C" stroke="#AA8B4D" stroke-miterlimit="10" d="M200.479,141.775c0,0,1.055,1.958,1.055,2.562
				c0,0.602-1.508,1.96-0.151,2.258c1.358,0.304,1.358-1.056,2.262-0.903c0.903,0.149,1.81-0.905,1.959-0.45"/>
			<path fill="#D6B05C" stroke="#AA8B4D" stroke-miterlimit="10" d="M216.76,147.05c0,0,0.754,0.752,0.902,1.659
				c0.152,0.903-0.902,1.659,1.057,1.659s2.863,1.958,2.863,1.958s0.903,1.208,1.357,0.903c0.452-0.297,1.354-0.903,1.354-0.903"/>
			<path fill="#D6B05C" stroke="#AA8B4D" stroke-miterlimit="10" d="M234.092,155.492c0,0-0.152,1.507,0.903,1.807
				c1.055,0.305,1.656,1.059,2.562,1.207c0.903,0.148,3.615-0.902,3.615-0.902s3.467-0.756,3.767-0.152"/>
			<path fill="#D6B05C" stroke="#AA8B4D" stroke-miterlimit="10" d="M227.912,165.138c0,0,1.207,0.902,1.207,1.657
				c0,0.753,1.205,1.808,1.205,1.808l1.509-0.752c0,0,0.753,0.604,1.508,0.752c0.751,0.151,0-1.808,0-1.808s0.903-1.811,1.806-1.203
				"/>
			<path fill="#D6B05C" stroke="#AA8B4D" stroke-miterlimit="10" d="M208.469,151.121c0,0-0.151,1.354,0.151,2.262
				c0.303,0.903-0.299,2.408,0.605,2.861c0.903,0.451,1.206,0.152,1.655,0.906c0.454,0.752,1.506,1.355,1.506,1.355
				s2.111,0.301,2.415,1.056c0.299,0.756,1.354,1.355,1.354,1.355"/>
			<path fill="#D6B05C" stroke="#AA8B4D" stroke-miterlimit="10" d="M186.765,148.709c0,0,0.302,1.657,1.659,1.959
				c1.358,0.3,1.657,0.452,2.262,0.3c0.602-0.152,1.056-1.056,1.505-0.604c0.454,0.451,0.906,0.903,1.809,1.053
				c0.903,0.152,2.563-0.903,2.563-0.903l1.206,1.208"/>
			<path fill="#D6B05C" stroke="#AA8B4D" stroke-miterlimit="10" d="M186.765,158.354c0,0,0.452,2.11,1.207,2.258
				c0.755,0.151,1.507,0.305,1.507,0.305s-0.149,1.202,0.903,1.355c1.056,0.151,3.015-0.903,3.015-0.903l1.206,1.206"/>
			<path fill="#D6B05C" stroke="#AA8B4D" stroke-miterlimit="10" d="M163.104,162.875c0,0-0.302,2.11,0.602,2.562
				c0.904,0.451,1.959,0.756,2.411,0.903c0.451,0.152,1.657,0.152,2.261,0.751c0.604,0.608,2.562,1.057,2.562,1.057l1.354-1.204
				c0,0,1.209-0.451,1.509,0.3"/>
			<path fill="#D6B05C" stroke="#AA8B4D" stroke-miterlimit="10" d="M188.575,170.11c0,0,1.055,0.755,1.354,1.659
				c0.303,0.903-1.354,1.506,0.756,1.958c2.11,0.451,2.11,0.451,2.411,0.907c0.302,0.452-0.152,2.11-0.152,2.11
				s1.207,1.052,2.263,0.752"/>
			<path fill="#D6B05C" stroke="#AA8B4D" stroke-miterlimit="10" d="M222.035,168.603c0,0-3.165,0.451-3.165,1.354
				c0,0.907-1.811,2.111-1.811,2.111l-1.959-0.148l-1.811-0.304"/>
			<path fill="#D6B05C" stroke="#AA8B4D" stroke-miterlimit="10" d="M150.594,136.05c0,0,0.152,1.354,0.301,1.807
				c0.151,0.452,1.206,0.753,1.506,1.208c0.3,0.45-1.055,2.106,0.3,2.259c1.357,0.151,2.11-1.505,2.866-0.906
				c0.753,0.606-0.302,1.661,0.753,1.96"/>
			<path fill="#D6B05C" stroke="#AA8B4D" stroke-miterlimit="10" d="M168.225,118.864l1.057,2.56c0,0,2.109-0.45,2.562-0.297
				c0.451,0.15,1.66,1.055,2.111,1.355c0.452,0.302,2.108-0.905,2.108-0.905"/>
			<path fill="#D6B05C" stroke="#AA8B4D" stroke-miterlimit="10" d="M191.59,133.484c0,0,1.055,1.055,1.206,1.505
				c0.148,0.454,0,0.605,1.203,0.605c1.208,0,2.111-2.11,2.264-1.661c0.151,0.454,1.81,0.605,1.81,0.605l1.657-1.207"/>
		</g>
	</g>
</g>
<g id="Bangers" display="none">
	<g display="inline">
		<path fill="none" stroke="#93B1E2" stroke-width="0.5" stroke-miterlimit="10" d="M268.998,156.703
			c0,20.309-57.491,36.767-128.41,36.767c-70.918,0-128.409-16.458-128.409-36.767c0-20.306,57.491-36.768,128.409-36.768
			C211.507,119.935,268.998,136.396,268.998,156.703z"/>
		<path fill="none" stroke="#93B1E2" stroke-width="0.5" stroke-miterlimit="10" d="M60.167,185.741
			c0,0,85.311,33.429,159.879-0.151"/>
		<path fill="none" stroke="#FF0000" stroke-width="0.5" stroke-miterlimit="10" d="M247.158,115.379"/>
		<path fill="#EF5E4A" stroke="#CC4D40" stroke-width="0.5" stroke-miterlimit="10" d="M172.084,115.379
			c0,0,48.153-43.242,55.926-1.114l-40.76,23.849L172.084,115.379z"/>
		<path fill="#EBDA85" stroke="#D1C078" stroke-width="0.5" stroke-miterlimit="10" d="M201.848,126.078
			c26.73,7.133,47.648,24.594,47.648,24.594c-13.648,30.094-26.104,17.807-36.146,19.613c-24.772,4.462-29.441,11.73-38.613,8.62
			c-11.1-3.765-23.591,2.069-31.469,2.006c-24.644-0.194-24.386-7.524-32.546-6.168c-25.024,4.162-32.103,4.162-39.686-2.375
			c-7.381-6.362-22.158-5.593-27.679-10.849c-13.854-13.186,9.479-17.609,9.479-17.609c-0.38-14.042,16.303-12.037,16.303-12.037
			c4.74-16.494,21.233-14.71,21.233-14.71c1.327-10.476,17.442-9.362,17.442-9.362c25.025,3.566,26.161-5.572,26.161-5.572
			c3.413,2.675,2.276,7.579,2.276,7.579s-9.1,4.903-9.859,6.241c0,0,11.945-8.917,16.115-5.572c0,0,5.688-1.115,7.204-5.127
			c0,0,4.171-2.675,1.517,17.163l1.138-13.596c0,0,7.393-4.013,7.772-7.356c0,0,5.498,2.452,4.551,11.368
			c0,0-1.138,5.127-8.153,4.458c0,0,13.514-1.718,14.651-7.292c0,0,3.169,16.431-0.432,21.111c0,0,2.653-12.482,2.085-14.489
			c0,0,7.394-1.56,10.237-5.35c0,0,2.085,6.91,4.36,8.248c0,0,3.413,4.235,2.655,9.139c0,0-1.328-8.248-1.707-8.916
			c-0.379-0.669-0.379-0.669-0.379-0.669S202.417,119.392,201.848,126.078z"/>
		<path fill="#EF5E4A" stroke="#CC4D40" stroke-width="0.25" stroke-miterlimit="10" d="M242.176,114.71
			c0,0-55.948-6.647-53.854,42.796c0.189,4.503,5.85,36.747,35.025,6.541c5.347-5.536,7.494-19.023,22.066-21.103
			C251.133,142.129,267.443,119.912,242.176,114.71z"/>
	</g>
</g>
<g id="Paddington">
	
		<image display="none" overflow="visible" width="300" height="300" xlink:href="../../../../brexit-files/paddington.jpg"  transform="matrix(1 0 0 1 -11.918 90.0825)">
	</image>
	<g>
		<path fill="#D1AE95" d="M184.579,265.352c0,0,8.64-10.682,9.269-15.081c0.628-4.398-9.269-3.928-9.269-3.928
			S187.406,257.183,184.579,265.352z"/>
		<path fill="#04458A" d="M97.706,106.102c0,0-2.985,4.275-2.828,5.296c0.157,1.021-1.179-2.043-6.284,4.084
			c0,0,0.55,9.661,5.498,12.018c0,0-8.248,4.477-8.719,5.42c-0.471,0.942-35.346,25.45-36.996,29.926c0,0-2.592,0.472-2.356,1.649
			c0.232,1.162,4.814,20.635,29.987,26.61c0.368,0.087,0.74,0.173,1.117,0.253c0,0,4.948,0.707,2.356-4.006
			c0,0,4.477,0.942,5.655-6.833c0,0,2.828-1.649,1.65,4.713c0,0-6.833,14.373-8.012,24.978c0,0-3.063,24.271,0.943,32.047
			c0,0-1.885,13.667,6.833,10.604l3.535-1.178c0,0,18.144-38.41,48.542-5.419c0,0,28.513-33.697,48.071,5.184
			c0,0,14.373,1.413,14.845,4.006c0,0,6.362,3.534,5.42-7.54c0,0,4.713-1.415,4.478-7.541c0,0-0.707-53.255-4.478-55.376
			c0,0,0.236-3.299,0.942-3.534c0,0,4.478,10.604,12.254,8.012c0,0,24.507-19.323,23.093-25.449c0,0-26.863-33.933-41.709-35.347
			c0,0-0.942-6.362-2.592-7.305c0,0,0.471-7.305-10.368-6.833c0,0-0.707-6.833-1.885-7.07
			C185.521,107.235,97.706,106.102,97.706,106.102z"/>
		<path fill="#BD0D1E" stroke="#9E0E20" stroke-miterlimit="10" d="M142.32,7.402c0,0-8.796-1.571-15.395,3.771
			c-6.598,5.341-16.652,13.824-17.909,15.395c0,0-27.021,23.878-28.905,32.361c0,0-47.756,40.53-11.625,56.554h20.108
			c0,0,5.027-4.712,6.284-4.084c0,0,1.885-4.713,2.828-4.713s-12.253-19.794,0.942-30.791c0,0,49.17-35.189,92.058,5.969
			c0,0,2.514,16.81-2.2,23.722c0,0,10.056,0.941,11.312,3.612c0,0,15.708,12.725,29.062-6.44c0,0,2.985-29.847-21.834-45.086
			c0,0-30.477-25.134-31.105-28.59C175.939,29.081,164.628,6.146,142.32,7.402z"/>
		<path fill="none" stroke="#9E0E20" stroke-miterlimit="10" d="M69.115,114.776c0,0-25.685-9.19,13.667-46.657
			c0,0,45.007-51.37,51.134-48.071"/>
		<path fill="none" stroke="#9E0E20" stroke-miterlimit="10" d="M207.436,112.891c0,0,38.175-17.909-20.5-61.502"/>
		<g>
			<path fill="#D1AE95" stroke="#BA9C88" stroke-miterlimit="10" d="M97.706,106.102c0,0,16.416,21.041,23.957,22.246
				c7.541,1.204,7.776,1.204,8.483,2.167c0.707,0.964,19.793,6.987,42.415-6.505c0,0,10.604-14.938,12.961-15.419
				c0,0,8.483-5.542,4.477-27.948c0,0-43.828-46.74-95.905,0C94.093,80.644,87.417,97.349,97.706,106.102z"/>
			<path fill="#D1AE95" stroke="#BA9C88" stroke-miterlimit="10" d="M109.802,119.41c0,0-2.2-19.637,11.311-27.492
				c0,0,3.456-15.082,16.338-11.469c0,0,17.909-3.613,25.45,9.426c0,0,13.353,11.468,11.624,20.894c0,0,3.613,12.567-13.51,15.553
				c0,0-14.139,5.499-19.95,5.341c0,0-3.3,2.198-11.625-1.729C129.439,129.935,117.342,129.464,109.802,119.41z"/>
			<path fill="none" stroke="#110E0C" stroke-miterlimit="10" d="M121.741,114.226c0,0,18.694,26.392,39.744,0"/>
			<path fill="#D1AE95" stroke="#BA9C88" stroke-miterlimit="10" d="M141.064,126.479c0,0,2.984,3.928,4.869,4.242"/>
			<path fill="#110E0C" d="M131.481,104.014c0,0,9.111-6.126,17.594,0c0,0-2.514,8.798-11.625,6.913
				C137.451,110.927,132.423,108.883,131.481,104.014z"/>
			<ellipse fill="#110E0C" cx="119.935" cy="86.734" rx="2.749" ry="4.712"/>
			<ellipse fill="#110E0C" cx="162.038" cy="85.419" rx="2.75" ry="4.713"/>
		</g>
		<g>
			<path fill="#F4D94E" d="M135.88,143.13v29.22c0,0-21.522,2.67-24.35-11.782C111.53,160.568,106.346,145.801,135.88,143.13z"/>
			<path fill="none" stroke="#DBBF49" stroke-miterlimit="10" d="M133.209,147.84v21.224c0,0-16.455,1.939-18.616-8.558
				C114.593,160.506,110.629,149.78,133.209,147.84z"/>
		</g>
		<path fill="#A7121B" d="M136.352,145.801l0.156,21.523l24.884-0.171c0,0,5.165-11.016,0.626-21.353H136.352z"/>
		<g>
			<path fill="#F4D94E" d="M159.88,141.246v29.219c0,0,21.522,2.671,24.351-11.781C184.23,158.683,189.414,143.916,159.88,141.246z"
				/>
			<path fill="none" stroke="#DBBF49" stroke-miterlimit="10" d="M162.551,145.956v21.224c0,0,16.455,1.939,18.616-8.558
				C181.167,158.622,185.13,147.895,162.551,145.956z"/>
		</g>
		<g>
			<path fill="#F4D94E" d="M136.823,182.405v29.219c0,0-21.523,2.671-24.351-11.781
				C112.473,199.842,107.289,185.076,136.823,182.405z"/>
			<path fill="none" stroke="#DBBF49" stroke-miterlimit="10" d="M134.152,187.115v21.224c0,0-16.455,1.938-18.616-8.559
				C115.536,199.78,111.572,189.054,134.152,187.115z"/>
		</g>
		<path fill="#A7121B" d="M137.294,185.076l0.157,21.522l24.883-0.17c0,0,5.166-11.016,0.627-21.353H137.294z"/>
		<g>
			<path fill="#F4D94E" d="M160.822,180.52v29.219c0,0,21.522,2.671,24.351-11.782C185.173,197.957,190.356,183.19,160.822,180.52z"
				/>
			<path fill="none" stroke="#DBBF49" stroke-miterlimit="10" d="M163.493,185.23v21.223c0,0,16.455,1.939,18.616-8.557
				C182.109,197.896,186.072,187.168,163.493,185.23z"/>
		</g>
		<path fill="#D1AE95" stroke="#BA9C88" stroke-miterlimit="10" d="M49.447,172.362c0,0-18.728,32.062,4.36,27.341
			c4.761-0.974,12.889-5.325,16.04-10.974C69.847,188.729,51.955,176.135,49.447,172.362z"/>
		<path fill="#D1AE95" stroke="#BA9C88" stroke-miterlimit="10" d="M221.22,186.535c0,0,5.971,16.651,19.48,10.682
			c13.51-5.969,3.769-28.59,0.628-30.476C241.328,166.741,224.048,186.535,221.22,186.535z"/>
		<g>
			<ellipse fill="#D1AE95" stroke="#BA9C88" stroke-miterlimit="10" cx="115.771" cy="256.083" rx="24.35" ry="27.491"/>
			<ellipse fill="#D1AE95" stroke="#BA9C88" stroke-miterlimit="10" cx="161.172" cy="256.397" rx="24.821" ry="27.491"/>
		</g>
	</g>
</g>
</svg>
