<?xml version="1.0" encoding="utf-8"?>
<!-- Generator: Adobe Illustrator 16.0.0, SVG Export Plug-In . SVG Version: 6.00 Build 0)  -->
<!DOCTYPE svg PUBLIC "-//W3C//DTD SVG 1.1//EN" "http://www.w3.org/Graphics/SVG/1.1/DTD/svg11.dtd">
<svg version="1.1" xmlns="http://www.w3.org/2000/svg" xmlns:xlink="http://www.w3.org/1999/xlink" x="0px" y="0px" width="322px"
	 height="238px" viewBox="0 0 322 238" enable-background="new 0 0 322 238" xml:space="preserve">
<g id="Dentures" display="none">
	<path display="inline" fill="none" stroke="#759FAF" stroke-width="0.75" stroke-miterlimit="10" d="M57.335,92.004
		c0,0,0.414,19.782,9.208,19.401c8.792-0.385,10.998,0.285,14.149-0.766c1.729-7.378,1.457-25.105,0.31-27.785
		c0,0-12.17-6.06-17.135-2.882C57.359,81.764,57.335,92.004,57.335,92.004z"/>
	<path display="inline" fill="none" stroke="#759FAF" stroke-width="0.75" stroke-linejoin="round" stroke-miterlimit="10" d="
		M80.692,110.64c0,0,7.296,14.569,50.516,6.922c0,0,1.071-23.746,0.179-41.824"/>
	<path display="inline" fill="none" stroke="#759FAF" stroke-width="0.75" stroke-miterlimit="10" d="M131.488,117.584
		c0,0,18.013,16.86,51.012,1.086V75"/>
	<path display="inline" fill="none" stroke="#759FAF" stroke-width="0.75" stroke-miterlimit="10" d="M182.041,118.67
		c0,0,24.479,17.969,53.163,0l0.389-47.678"/>
	<path display="inline" fill="none" stroke="#759FAF" stroke-width="0.75" stroke-miterlimit="10" d="M235.099,117.751
		c0,0,20.401,16.595,43.401-5.968V74"/>
	<path display="inline" fill="none" stroke="#759FAF" stroke-width="0.75" stroke-miterlimit="10" d="M278.04,111.783
		c0,0,25.761,7.35,29.779-22.292"/>
	<path display="inline" fill="none" stroke="#759FAF" stroke-width="0.75" stroke-miterlimit="10" d="M63.481,111.021
		c0,0-12.236,22.948-11.855,29.829c0,0,11.089,26.388,31.36,16.823l-1.914-45.504"/>
	<path display="inline" fill="none" stroke="#759FAF" stroke-width="0.75" stroke-miterlimit="10" d="M82.9,157.504
		c0,0,2.6,25.798,43.6,12.789v-52.297"/>
	<path display="inline" fill="none" stroke="#759FAF" stroke-width="0.75" stroke-miterlimit="10" d="M125.566,169.482
		c0,0,23.935,40.775,55.934,6.36v-57.847"/>
	<path display="inline" fill="none" stroke="#759FAF" stroke-width="0.75" stroke-miterlimit="10" d="M181.199,175.987
		c0,0,36.301,31.977,54.301-8.464v-49.527"/>
	<path display="inline" fill="none" stroke="#759FAF" stroke-width="0.75" stroke-miterlimit="10" d="M235.641,169.086
		c0,0,28.859,20.811,42.859-9.017v-47.073"/>
	<path display="inline" fill="none" stroke="#759FAF" stroke-width="0.75" stroke-miterlimit="10" d="M278.04,160.069
		c0,0,36.272,11.563,29.257-26.965c-1.146-6.297-8.037-25.302-8.037-25.302"/>
	<path display="inline" fill="#D88FBF" d="M305.584,124.811c-1.834-6.069,10.48,7.586,11.471,11.544
		c3.017,12.026-0.004,49.622-0.004,49.622c-144.568,121.554-273.076-1.541-273.076-1.541s-4.106-35.964,1.151-46.544
		c2.565-5.159,7.387-4.753,7.387-4.753s0.459,25.657,31.153,21.038c0,0,2.761,25.645,42.919,13.812c0,0,22.761,37.275,55.747,4.963
		c0,0,34.896,30.522,52.679-5.829c0,0,28.687,19.043,43.315-8.655C278.327,158.468,318.496,167.604,305.584,124.811z"/>
	<path display="inline" fill="#D88FBF" d="M51.231,55.566c0,0-1.91,23.39,6.104,36.439c0,0-1.522-21.014,23.666-9.15
		c0,0,20.616-41.529,50.385-7.118c0,0,20.611-45.087,50.382,0c0,0,27.487-41.528,53.825-4.745c0,0,21.758-21.357,43.508,4.745
		c0,0,32.065-5.932,28.632,14.239c0,0,11.451-10.682,2.291-42.716c0,0-34.355,2.374-70.998-16.611c0,0-29.771-18.985-57.258,7.12
		c0,0-29.771-24.919-66.413-2.968C115.354,34.802,71.462,61.027,51.231,55.566z"/>
	<g display="inline">
		<path fill="#E0BF1E" d="M190.683-20.548c0,0,7.651,15.001,7.443,38.683c0,0,36.642-3.316,71.606,20.869
			c0,0,10.362-16.809,27.293-28.617c0,0-38.222,24-15.155-20.037c0,0-39.147,41.686-30.455-18.611c0,0-26.314,55.132-36.209-1.398
			C215.206-29.66,211.042,19.206,190.683-20.548z"/>
		<path fill="#E0BF1E" d="M258.203-32.062c-0.868,2.944-3.956,4.631-6.897,3.769c-2.942-0.863-4.632-3.949-3.768-6.893
			c0.864-2.945,3.948-4.63,6.89-3.771C257.374-38.093,259.063-35.005,258.203-32.062z"/>
		<path fill="#E0BF1E" d="M219.472-33.728c-0.758,2.587-3.465,4.066-6.058,3.306c-2.576-0.756-4.062-3.463-3.303-6.045
			c0.758-2.585,3.468-4.066,6.049-3.308C218.745-39.018,220.226-36.309,219.472-33.728z"/>
		<path fill="#E0BF1E" d="M289.832-12.63c-0.758,2.582-3.46,4.062-6.045,3.306c-2.593-0.758-4.065-3.465-3.308-6.046
			c0.75-2.587,3.465-4.068,6.042-3.311C289.105-17.925,290.591-15.214,289.832-12.63z"/>
		<path fill="#E0BF1E" d="M303.078,9.086c-0.565,1.924-2.581,3.028-4.506,2.46c-1.921-0.562-3.021-2.577-2.463-4.499
			c0.566-1.923,2.585-3.023,4.506-2.463C302.54,5.149,303.64,7.164,303.078,9.086z"/>
		<path fill="#E0BF1E" d="M193.986-23.355c-0.566,1.919-2.581,3.021-4.502,2.458c-1.921-0.564-3.028-2.577-2.463-4.503
			c0.565-1.921,2.58-3.022,4.498-2.459C193.447-27.296,194.548-25.282,193.986-23.355z"/>
	</g>
</g>
<g id="Tea">
	<g>
		<path fill="#588C6D" d="M130.079,221.468c0,0,42.87,21.083,83.923,0.759"/>
		<path fill="#588C6D" stroke="#FFFFFF" stroke-width="0.25" stroke-miterlimit="10" d="M86.097,193.018
			c0,0,5.325,32.413,92.715,32.413c0,0,58.172,3.414,76.056-32.355"/>
		<path fill="#75BC93" d="M107.996,148.385c0,0-18.199,15.263-26.329,15.263c0,0-33.738-4.879-34.957,14.225
			c0,0-3.659,12.195,30.892,11.788c0,0,9.755,1.626,28.046,16.666c0,0,21.137,10.975,40.241,4.065c0,0,41.458-8.536,60.563,3.252
			c0,0,26.827,0.812,43.086-17.074c0,0,9.756-9.754,36.583-9.347c0,0,25.608-21.137-14.228-23.169c0,0-13.819,2.032-25.201-5.285
			c0,0-6.004-3.417-19.012-5.042"/>
		<path fill="#F8ED32" d="M209.438,172.858c0,0,33.059,15.989,2.167,24.932c-22.414,6.488-83.644,7.711-95.657-10.567
			c-2.32-3.531-1.356-7.856,12.735-14.092"/>
		<path fill="#F8ED32" d="M241.314,82.32c0,0,59.859-53.312,71.267,2.987c2.362,11.648,0.419,31.554-36.456,30.492
			c-36.874-1.057-18.317,14.109-17.832,20.979c0.29,4.061-7.35,11.427-16.292-0.099c0,0-4.814-8.501,3.805-14.938
			c0,0,1.238-12.038-11.668-6.459"/>
		<path fill="#FFFFFF" d="M237.345,99.221c0,0,10.083-2.444,15.217,11.054c0,0,5.56-1.609,7.47-1.733
			c10.495-0.684,36.336,3.575,39.588-14.236c2.45-13.443-5.818-36.903-60.241-2.604L237.345,99.221z"/>
		<g>
			<path fill="#75BC93" d="M132.207,175.566c0,0-7.318,16.533,24.386,16.533c0,0,29.709,0.639,39.838-0.813
				c4.772-0.685,16.798-3.794,10.565-15.988"/>
		</g>
		<path fill="none" d="M231.385,145.219"/>
		<path fill="#75BC93" stroke="#FFFFFF" stroke-width="0.25" stroke-miterlimit="10" d="M66.669,34.324
			c0,0,45.755,39.092,39.252,91.661c0,0-10.299,54.737,64.493,56.363c0,0,63.41,4.337,62.866-56.363c0,0,1.494-67.209,42.681-91.597
			"/>
		<path fill="#BBBE9F" d="M278.812,31.199c0,8.677-47.894,12.408-107.309,12.408c-59.417,0-107.855-3.73-107.855-12.408
			c0-8.679,44.626-19.571,104.042-19.571C227.106,11.628,278.812,22.52,278.812,31.199z"/>
		<path fill="none" d="M83.849,53.419c0,0,72.475,14.572,171.864,0.096"/>
	</g>
</g>
<g id="Hat" display="none">
	<g display="inline">
		<path fill="#93764C" d="M233.453,48.624c-56.914-67.188-99.083-12.011-108.255,12.509c-40.141,107.287-81.719,55.94-81.719,55.94
			s119.715,226.003,275.986-54.236c0,0-28.81-30.559-55.001,28.808C264.464,91.645,242.021,58.742,233.453,48.624z"/>
		<path fill="#9E8564" d="M264.464,91.645c0,0-30.282,143.439-163.856,90.185c10.534,7.363,92.707,79.621,172.589-84.506
			c6.419-12.702,22.263-37.979,42.778-37.542C315.975,59.781,288.037,37.296,264.464,91.645z"/>
		<path fill="#9D9D9D" d="M113.211,87.607c0,0,81.191,41.688,140.122-12.328l6.547,9.165c0,0-47.158,89.903-154.541,17.88
			L113.211,87.607z"/>
		<path fill="#83CDCC" d="M145.705,130.906c0,0-4.911,21.933,9.166,18.333c0,0,14.732-3.603-2.945-19.972
			C151.926,129.268,149.633,131.562,145.705,130.906z"/>
		<path fill="#83CDCC" d="M152.218,129.476c0,0,19.59,11.029,20.2-3.49c0,0,0.804-15.147-19.976-2.937
			C152.442,123.049,153.976,125.901,152.218,129.476z"/>
		<path fill="#83CDCC" d="M152.77,123.304c0,0,16.22-15.561,2.501-20.341c0,0-14.268-5.152-8.594,18.271
			C146.677,121.233,149.854,120.588,152.77,123.304z"/>
		<path fill="#83CDCC" d="M146.625,120.905c0,0-6.568-21.492-17.018-11.406c0,0-11.036,10.411,12.44,15.912
			C142.048,125.411,142.896,122.283,146.625,120.905z"/>
		<path fill="#83CDCC" d="M142.083,125.254c0,0-22.452,1.045-15.26,13.67c0,0,7.362,13.272,18.497-8.113
			C145.32,130.811,142.506,129.217,142.083,125.254z"/>
		<ellipse fill="#D3CB67" cx="147.751" cy="126.077" rx="5.73" ry="5.4"/>
	</g>
</g>
<g id="Jumper" display="none">
	<path display="inline" fill="#1A3A24" stroke="#152819" stroke-miterlimit="10" d="M20.005,163.835l-0.38,13.145
		c0,0,22.689,10.221,46.914,1.458l0.385-11.317"/>
	<path display="inline" fill="#1A3A24" stroke="#152819" stroke-miterlimit="10" d="M89.777,179.839v13.145
		c0,0,100.767,24.829,162.107,0l0.187-10.81"/>
	<path display="inline" fill="#1A3A24" stroke="#152819" stroke-width="0.5" stroke-miterlimit="10" d="M277.451,169.644v8.761
		c0,0,20.434,6.206,46.722-0.366l-0.438-16.414"/>
	<path display="inline" fill="#1A3A24" stroke="#152819" stroke-width="0.5" stroke-miterlimit="10" d="M126.287-69.893
		c0,0-32.862,8.035-54.768,24.097c0,0-75.945,94.197-52.576,208.843c0,0,18.257,20.447,48.926,2.921
		c0,0,9.494-106.613,18.256-119.028c0,0-2.194,126.332,0.727,131.441c0,0,78.868,32.125,167.954,2.921
		c0,0,5.836-81.055,3.646-129.983c0,0,14.607,112.457,18.261,117.57c0,0,49.649,8.767,48.923-14.604
		c0,0,7.299-126.325-59.148-202.999c0,0-26.288-21.179-54.038-22.642L126.287-69.893z"/>
	<path display="inline" fill="none" stroke="#152819" stroke-width="0.5" stroke-miterlimit="10" d="M72.982-47.253
		c0,0,23.429,28.865,12.479,95.317"/>
	<path display="inline" fill="none" stroke="#152819" stroke-width="0.5" stroke-miterlimit="10" d="M262.106-51.636
		c0,0-17.977,58.417-3.38,105.516"/>
	<path display="inline" fill="none" stroke="#152819" stroke-width="0.5" stroke-miterlimit="10" d="M126.287-69.893
		c0,0,46.372,51.845,89.448-1.463"/>
	<path display="inline" fill="none" stroke="#152819" stroke-width="0.5" stroke-miterlimit="10" d="M132.68-69.709
		c0,0,39.971,38.191,77.4-1.604"/>
</g>
<g id="Book" display="none">
	<g display="inline">
		<path fill="none" stroke="#000000" stroke-miterlimit="10" d="M255.31,143.613"/>
		<path fill="#3C39D3" d="M251.59,147.085l7.91-0.212V-105.5H97.15L74.179-83.15v252.373h163.902V-83.615L79.768-83.77
			l18.391-18.006h157.15l0.466,245.389c0,0-10.942,6.984-17.927,16.064"/>
		<path fill="none" stroke="#000000" stroke-miterlimit="10" d="M92.717-97.097"/>
		<polygon fill="#25258E" points="90.01,-82.684 90.049,169.185 74.179,169.164 74.179,-83.15 		"/>
		<text transform="matrix(1 0 0 1 115.4058 -20.8945)" fill="#F3F2F1" font-family="'Lovefern-Regular'" font-size="43.7711">Pride and </text>
		<text transform="matrix(1 0 0 1 112.3647 13.1504)" fill="#F3F2F1" font-family="'Lovefern-Regular'" font-size="43.7711">Prejudice</text>
		<text transform="matrix(1 0 0 1 133.1587 164.8779)" fill="#F3F2F1" font-family="'Lovefern-Regular'" font-size="19.5565">Jane Austen</text>
		<polyline fill="none" stroke="#707075" stroke-width="0.25" stroke-miterlimit="10" points="81.784,-85.943 240.876,-85.943 
			240.782,156.21 		"/>
		<polyline fill="none" stroke="#707075" stroke-width="0.25" stroke-miterlimit="10" points="85.668,-89.821 244.601,-89.669 
			244.601,152.576 		"/>
		<polyline fill="none" stroke="#707075" stroke-width="0.25" stroke-miterlimit="10" points="89.545,-93.549 248.325,-93.394 
			248.325,149.201 		"/>
		<polyline fill="none" stroke="#707075" stroke-width="0.25" stroke-miterlimit="10" points="93.736,-97.584 252.051,-97.429 
			252.051,146.096 		"/>
		<polygon fill="#6D0909" points="90.476,-92 80,-83.305 80,-36.121 88.423,-46.055 97,-36.121 97,-83.615 106.308,-92 		"/>
	</g>
</g>
<g id="Boris" display="none">
	<g display="inline">
		<polygon fill="#ABB1B7" stroke="#545252" stroke-width="0.25" stroke-linecap="round" stroke-miterlimit="10" points="
			130.417,103.666 200.982,103.666 207.032,147.005 124.366,147.005 		"/>
		<polyline fill="#ABB1B7" stroke="#545252" stroke-width="0.25" stroke-linecap="round" stroke-miterlimit="10" points="
			124.387,147.168 124.387,158.519 207.012,158.519 207.012,147.168 		"/>
	</g>
	<g display="inline">
		<path d="M190.672,81.938c0,0-7.687,47.291-9.845,51.607c0,0,1.913,1.472,9.761,2.942v2.551h-9.81l-1.079-1.668h-0.294v1.668
			h-4.415c0,0,0-4.807,0.491-5.787c0,0,3.987-40.383-8.306-48.49l-1.254-0.01c-12.294,8.109-8.306,48.492-8.306,48.492
			c0.491,0.98,0.491,5.787,0.491,5.787h-4.415v-1.667h-0.294l-1.079,1.667h-9.81v-2.55c7.848-1.472,9.76-2.943,9.76-2.943
			c-2.158-4.316-9.956-52.446-9.956-52.446l23.805-6.737L190.672,81.938z"/>
		<polyline fill="#FF0000" stroke="#BC2828" stroke-width="0.15" stroke-miterlimit="10" points="164.639,35.052 162.03,52.219 
			165.562,62.519 169.387,52.611 166.966,35.049 		"/>
		<path fill="#1E202F" d="M155.36,25.733c0,0-2.845-0.49-3.826,1.079h-6.67c0,0-1.766-5.101-6.474-1.766l-11.673,48.557l8.927,0.687
			l6.278-28.84c0,0-2.943,30.605,0.393,36.295h18.245l5.689-7.062l6.278,7.062l18.146,0.193c0,0,3.238-17.851-1.666-41.197
			l9.221,9.809c0,0,2.551,1.57,4.12-0.392l16.872-20.404l-6.867-5.886l-12.556,14.714l-9.613-9.908c0,0-1.962-1.864-5.101-1.864
			h-7.259c0,0-0.306-0.946-0.589-0.981c-1.247-0.153-2.746,2.747-3.924,3.139c-1.177,0.392-0.196,15.303-7.651,33.548
			c0,0-7.455-19.226-7.847-34.137C157.812,28.382,155.85,26.616,155.36,25.733z"/>
		<path fill="#FAD3C0" d="M127.992,73.995l0.098,1.374c0,0-3.434,2.207-6.278,7.111c0,0-0.539,1.373,1.913,0.49l1.422-1.716
			c0,0,0.343-0.099,0.343,0.932l-0.785,8.044c0,0,0.638,1.52,1.471-0.147l1.03-6.229c0,0,0.833-0.539,0.735,0.491l-0.785,7.308
			c0,0,0.687,1.324,1.374-0.49l1.177-6.916c0,0,0.785-0.196,0.687,0.49l-0.589,6.867c0,0,0.785,1.128,1.227-0.245
			c0.441-1.374,0.883-6.671,0.883-6.671s0.637-0.343,0.588,0.441c-0.049,0.785,0,3.875,0,3.875s0.687,0.98,1.177-0.344
			c0,0,1.177-11.82,0.687-14.076"/>
		
			<line fill="none" stroke="#CECDCC" stroke-width="0.15" stroke-miterlimit="10" x1="163.928" y1="33.75" x2="158.891" y2="35.935"/>
		<path fill="#FAD3C0" d="M213.309,24.756l1.041-0.903c0,0-0.866-3.988,0.59-9.469c0,0,0.588-1.352,1.699,1.005l-0.207,2.223
			c0,0,0.172,0.311,0.901-0.417l5.132-6.243c0,0,1.526-0.624,0.937,1.145l-3.677,5.131c0,0,0.21,0.972,0.867,0.175l4.613-5.723
			c0,0,1.423-0.451,0.626,1.318l-4.059,5.723c0,0,0.416,0.693,0.833,0.138l4.439-5.272c0,0,1.35-0.242,0.692,1.041
			c-0.659,1.283-4.093,5.342-4.093,5.342s0.209,0.694,0.73,0.104c0.518-0.59,2.738-2.74,2.738-2.74s1.179-0.208,0.589,1.074
			c0,0-7.524,9.191-9.469,10.441"/>
		
			<line fill="none" stroke="#CECDCC" stroke-width="0.15" stroke-miterlimit="10" x1="167.817" y1="33.581" x2="172.134" y2="35.935"/>
		
			<rect x="164.21" y="31.867" transform="matrix(0.712 0.7022 -0.7022 0.712 71.4258 -106.8094)" fill="#FF0000" stroke="#BC2828" stroke-width="0.15" stroke-miterlimit="10" width="3.425" height="3.604"/>
		<path d="M165.659,62.519l-13.046-24.817l1.373-3.041l-3.335-2.551l0.785-5.002c0,0,0.638-1.226,1.667-1.275l4.562,1.03"/>
		<path d="M166.052,62.322l12.429-23.947l-1.373-3.041l3.335-2.55l-0.784-5.003c0,0-0.638-1.226-1.668-1.275l-4.562,1.03"/>
		<g>
			<path fill="#FAD3C0" d="M212.504-31.154c-1.396,16.955-3.99,19.545-3.99,19.545h-2.991
				c-1.197,19.149-25.731,37.101-25.731,37.101s-10.329,5.694-14.132,5.638c-3.54-0.052-12.993-5.638-12.993-5.638
				c-15.957-10.174-27.575-38.57-27.575-38.57s-2.465,1.586-3.341,1.372c-1.65-0.403-1.396-15.958-1.396-15.958l5.285-46.773h84.072
				L212.504-31.154z"/>
			<path fill="#F7F3C1" d="M182.783-120.114c0,0,9.175,12.367,8.379,13.763c0,0-43.284-30.518-71.606,10.969
				c0,0,14.162-10.172,15.957-9.873c0,0-35.005,25.131-12.267,85.567c0,0,6.283-14.66,7.48-24.233c0,0,26.626-5.984,38.296-22.44
				c0,0-0.301,9.275-8.677,21.243c0,0,16.754-5.685,25.731-24.832c0,0-2.096,15.259-14.063,22.738c0,0,7.479,1.197,21.242-16.456
				c0,0,2.691,12.567,8.079,16.756l0.598-6.881c0,0,5.386,31.414,6.282,32.013c0,0,21.043-35.903,1.496-69.212
				c0,0,5.984,5.984,7.581,10.571c0,0,0.396-22.34-21.942-23.735C195.35-104.157,195.947-119.915,182.783-120.114z"/>
		</g>
		<path fill="none" stroke="#EAC2B2" stroke-width="0.5" stroke-linecap="round" stroke-miterlimit="10" d="M170.761-38.478v14.768
			c4.708,4.624,4.006,9.625,4.006,9.625h-4.589c-4.788,7.869-11.572-0.083-11.572-0.083l-2.609,0.115
			c-0.199-6.305,3.777-9.447,3.777-9.447v-14.978"/>
		<path fill="#EAC2B2" stroke="#EAC2B2" stroke-miterlimit="10" d="M151.822-1.374c0,0,2.792,0,3.591-0.837
			c0,0,6.585-3.565,9.777,1.465c0,0,0.896,0.63,1.098,0.106c0,0,5.886-6.289,11.272-1.571c0,0,2.396,1.047,2.895,0.837
			s-13.269,3.982-14.665,3.982C165.79,2.608,152.32,0.619,151.822-1.374z"/>
		<path fill="none" stroke="#EAC2B2" stroke-width="0.5" stroke-miterlimit="10" d="M155.614,7.948h20.352
			C175.966,7.948,167.187,31.553,155.614,7.948z"/>
		<path fill="#EAC2B2" stroke="#EAC2B2" stroke-linecap="round" stroke-miterlimit="10" d="M153.844-36.068
			c0,0-2.595,4.61-7.584,2.934c0,0,1.399-2.725,4.592-2.096C150.852-35.231,153.895-35.964,153.844-36.068z"/>
		<path fill="none" stroke="#EAC2B2" stroke-width="0.5" stroke-linecap="round" stroke-miterlimit="10" d="M155.813-18.665
			c0,0-9.18,8.827-9.379,16.183"/>
		<path fill="none" stroke="#EAC2B2" stroke-width="0.5" stroke-linecap="round" stroke-miterlimit="10" d="M175.165-18.665
			c0,0,9.18,8.827,9.379,16.183"/>
		<path fill="none" stroke="#EAC2B2" stroke-width="0.5" stroke-linecap="round" stroke-miterlimit="10" d="M136.231-6.685
			c0,0,3.418,20.628,10.202,26.304"/>
		<path fill="#EAC2B2" stroke="#EAC2B2" stroke-linecap="round" stroke-miterlimit="10" d="M149.627-45.395h6.584v3.695
			C156.212-41.7,157.009-44.137,149.627-45.395z"/>
		<path fill="none" stroke="#EAC2B2" stroke-width="0.5" stroke-linecap="round" stroke-miterlimit="10" d="M186.062,19.62
			c6.784-5.676,10.595-26.304,10.595-26.304l1.439,0.146l-1.047,3.271l-1.178,1.438"/>
		<path fill="#EAC2B2" stroke="#EAC2B2" stroke-miterlimit="10" d="M175.336-36.068c0,0,2.595,4.61,7.583,2.934
			c0,0-1.399-2.725-4.592-2.096C178.327-35.231,175.285-35.964,175.336-36.068z"/>
		<path fill="#EAC2B2" stroke="#EAC2B2" stroke-miterlimit="10" d="M179.552-45.395h-6.584v3.695
			C172.968-41.7,172.171-44.137,179.552-45.395z"/>
		<path fill="#EAC2B2" stroke="#EAC2B2" stroke-width="0.5" stroke-miterlimit="10" d="M161.437,8.518c0,0-0.294,1.275,0.491,1.57
			c0.784,0.294,8.142,0,8.142,0s0.588-0.981,0.196-1.57C169.873,7.93,161.437,8.518,161.437,8.518z"/>
		<g>
			<path fill="none" stroke="#3A3533" stroke-width="0.15" stroke-linecap="round" stroke-miterlimit="10" d="M147.858-40.571
				c-0.697,1.886,3.229,1.551,4.264,1.151c2.438-0.946,0.198-4.088,0.198-4.088s-3.89,3.458-6.584,3.458
				c-2.693,0-3.292,3.774-3.292,3.774"/>
			<path fill="#34445B" stroke="#3A3533" stroke-width="0.15" stroke-linecap="round" stroke-miterlimit="10" d="M152.32-43.508
				c0,0,2.241,3.142-0.198,4.088c-1.035,0.4-4.961,0.735-4.264-1.151C147.858-40.571,152.125-42.613,152.32-43.508z"/>
		</g>
		<g>
			<path fill="none" stroke="#3A3533" stroke-width="0.15" stroke-linecap="round" stroke-miterlimit="10" d="M180.806-40.571
				c0.697,1.886-3.229,1.551-4.264,1.151c-2.438-0.946-0.198-4.088-0.198-4.088s3.891,3.458,6.585,3.458
				c2.692,0,3.292,3.774,3.292,3.774"/>
			<path fill="#34445B" stroke="#3A3533" stroke-width="0.15" stroke-linecap="round" stroke-miterlimit="10" d="M176.344-43.508
				c0,0-2.24,3.142,0.198,4.088c1.034,0.4,4.961,0.735,4.264-1.151C180.806-40.571,176.539-42.613,176.344-43.508z"/>
		</g>
	</g>
	
		<text transform="matrix(1.0005 0 0 1 228.291 152.3359)" display="inline" fill="#FFFFFF" stroke="#3A3533" stroke-width="0.1" stroke-linecap="round" stroke-miterlimit="10" font-family="'Verdana-Bold'" font-size="8">BORIS JOHNSON</text>
</g>
</svg>
