<?xml version="1.0" encoding="utf-8"?>
<!-- Generator: Adobe Illustrator 16.0.0, SVG Export Plug-In . SVG Version: 6.00 Build 0)  -->
<!DOCTYPE svg PUBLIC "-//W3C//DTD SVG 1.1//EN" "http://www.w3.org/Graphics/SVG/1.1/DTD/svg11.dtd">
<svg version="1.1" xmlns="http://www.w3.org/2000/svg" xmlns:xlink="http://www.w3.org/1999/xlink" x="0px" y="0px" width="278.5px"
	 height="289.163px" viewBox="43.5 -51.163 278.5 289.163" enable-background="new 43.5 -51.163 278.5 289.163"
	 xml:space="preserve">
<g id="Layer_1" display="none">
	<g id="Dentures">
		<path display="inline" fill="none" stroke="#759FAF" stroke-width="0.75" stroke-miterlimit="10" d="M57.335,92.004
			c0,0,0.414,19.782,9.208,19.401c8.792-0.385,10.998,0.285,14.149-0.766c1.729-7.378,1.457-25.105,0.31-27.785
			c0,0-12.17-6.06-17.135-2.882C57.359,81.764,57.335,92.004,57.335,92.004z"/>
		<path display="inline" fill="none" stroke="#759FAF" stroke-width="0.75" stroke-linejoin="round" stroke-miterlimit="10" d="
			M80.692,110.64c0,0,7.296,14.569,50.516,6.922c0,0,1.071-23.746,0.179-41.824"/>
		<path display="inline" fill="none" stroke="#759FAF" stroke-width="0.75" stroke-miterlimit="10" d="M131.488,117.584
			c0,0,18.013,16.859,51.012,1.086V75"/>
		<path display="inline" fill="none" stroke="#759FAF" stroke-width="0.75" stroke-miterlimit="10" d="M182.041,118.67
			c0,0,24.479,17.969,53.163,0l0.389-47.678"/>
		<path display="inline" fill="none" stroke="#759FAF" stroke-width="0.75" stroke-miterlimit="10" d="M235.1,117.751
			c0,0,20.4,16.595,43.4-5.968V74"/>
		<path display="inline" fill="none" stroke="#759FAF" stroke-width="0.75" stroke-miterlimit="10" d="M278.04,111.783
			c0,0,25.761,7.35,29.778-22.292"/>
		<path display="inline" fill="none" stroke="#759FAF" stroke-width="0.75" stroke-miterlimit="10" d="M63.481,111.021
			c0,0-12.236,22.948-11.855,29.829c0,0,11.089,26.389,31.36,16.823l-1.914-45.504"/>
		<path display="inline" fill="none" stroke="#759FAF" stroke-width="0.75" stroke-miterlimit="10" d="M82.9,157.504
			c0,0,2.6,25.798,43.6,12.789v-52.297"/>
		<path display="inline" fill="none" stroke="#759FAF" stroke-width="0.75" stroke-miterlimit="10" d="M125.566,169.482
			c0,0,23.935,40.774,55.934,6.359v-57.847"/>
		<path display="inline" fill="none" stroke="#759FAF" stroke-width="0.75" stroke-miterlimit="10" d="M181.199,175.986
			c0,0,36.301,31.978,54.301-8.463v-49.527"/>
		<path display="inline" fill="none" stroke="#759FAF" stroke-width="0.75" stroke-miterlimit="10" d="M235.641,169.086
			c0,0,28.859,20.811,42.859-9.018v-47.072"/>
		<path display="inline" fill="none" stroke="#759FAF" stroke-width="0.75" stroke-miterlimit="10" d="M278.04,160.068
			c0,0,36.272,11.563,29.257-26.965c-1.146-6.297-8.037-25.302-8.037-25.302"/>
		<path display="inline" fill="#D88FBF" d="M305.584,124.811c-1.834-6.068,10.48,7.586,11.471,11.545
			c3.018,12.025-0.004,49.621-0.004,49.621c-144.568,121.555-273.076-1.541-273.076-1.541s-4.106-35.963,1.151-46.543
			c2.565-5.16,7.387-4.754,7.387-4.754s0.459,25.657,31.153,21.038c0,0,2.761,25.646,42.919,13.812c0,0,22.761,37.275,55.747,4.964
			c0,0,34.896,30.522,52.68-5.829c0,0,28.687,19.043,43.314-8.655C278.327,158.468,318.496,167.604,305.584,124.811z"/>
		<path display="inline" fill="#D88FBF" d="M51.231,55.566c0,0-1.91,23.39,6.104,36.439c0,0-1.522-21.014,23.666-9.15
			c0,0,20.616-41.529,50.385-7.118c0,0,20.611-45.087,50.381,0c0,0,27.487-41.528,53.825-4.745c0,0,21.759-21.357,43.509,4.745
			c0,0,32.064-5.932,28.631,14.239c0,0,11.451-10.682,2.291-42.716c0,0-34.354,2.374-70.998-16.611c0,0-29.771-18.985-57.258,7.12
			c0,0-29.771-24.919-66.413-2.968C115.354,34.802,71.462,61.027,51.231,55.566z"/>
		<g display="inline">
			<path fill="#E0BF1E" d="M190.684-20.548c0,0,7.65,15.001,7.442,38.683c0,0,36.642-3.316,71.606,20.869
				c0,0,10.361-16.809,27.293-28.617c0,0-38.223,24-15.155-20.037c0,0-39.147,41.686-30.455-18.611c0,0-26.313,55.132-36.209-1.398
				C215.206-29.66,211.042,19.206,190.684-20.548z"/>
			<path fill="#E0BF1E" d="M258.203-32.062c-0.868,2.944-3.956,4.631-6.896,3.769c-2.942-0.863-4.633-3.949-3.769-6.893
				c0.864-2.945,3.948-4.63,6.89-3.771C257.374-38.093,259.062-35.005,258.203-32.062z"/>
			<path fill="#E0BF1E" d="M219.473-33.728c-0.759,2.587-3.466,4.066-6.059,3.306c-2.576-0.756-4.062-3.463-3.303-6.045
				c0.758-2.585,3.468-4.066,6.049-3.308C218.745-39.018,220.227-36.309,219.473-33.728z"/>
			<path fill="#E0BF1E" d="M289.832-12.63c-0.758,2.582-3.46,4.062-6.045,3.306c-2.594-0.758-4.064-3.465-3.309-6.046
				c0.75-2.587,3.465-4.068,6.043-3.311C289.105-17.925,290.591-15.214,289.832-12.63z"/>
			<path fill="#E0BF1E" d="M303.078,9.086c-0.564,1.924-2.581,3.028-4.506,2.46c-1.922-0.562-3.021-2.577-2.463-4.499
				c0.565-1.923,2.584-3.023,4.506-2.463C302.54,5.149,303.641,7.164,303.078,9.086z"/>
			<path fill="#E0BF1E" d="M193.986-23.355c-0.566,1.919-2.582,3.021-4.502,2.458c-1.922-0.564-3.028-2.577-2.463-4.503
				c0.564-1.921,2.58-3.022,4.498-2.459C193.447-27.296,194.548-25.282,193.986-23.355z"/>
		</g>
	</g>
	<g id="Tea" display="inline">
		<g>
			<path fill="#588C6D" d="M130.079,221.468c0,0,42.87,21.083,83.923,0.759"/>
			<path fill="#588C6D" stroke="#FFFFFF" stroke-width="0.25" stroke-miterlimit="10" d="M86.097,193.018
				c0,0,5.325,32.414,92.715,32.414c0,0,58.172,3.414,76.056-32.355"/>
			<path fill="#75BC93" d="M107.996,148.385c0,0-18.199,15.264-26.329,15.264c0,0-33.738-4.879-34.957,14.225
				c0,0-3.659,12.195,30.892,11.788c0,0,9.755,1.626,28.046,16.666c0,0,21.137,10.975,40.241,4.065c0,0,41.458-8.537,60.563,3.252
				c0,0,26.827,0.812,43.086-17.074c0,0,9.756-9.754,36.583-9.348c0,0,25.607-21.137-14.229-23.168c0,0-13.818,2.031-25.201-5.285
				c0,0-6.004-3.418-19.012-5.043"/>
			<path fill="#F8ED32" d="M209.438,172.857c0,0,33.06,15.99,2.168,24.933c-22.414,6.487-83.645,7.711-95.657-10.567
				c-2.32-3.531-1.356-7.855,12.735-14.092"/>
			<path fill="#F8ED32" d="M241.314,82.32c0,0,59.858-53.312,71.267,2.987c2.362,11.648,0.419,31.554-36.456,30.492
				c-36.874-1.057-18.316,14.109-17.832,20.979c0.29,4.062-7.35,11.428-16.292-0.098c0,0-4.813-8.502,3.806-14.938
				c0,0,1.237-12.038-11.668-6.459"/>
			<path fill="#FFFFFF" d="M237.346,99.221c0,0,10.082-2.444,15.217,11.054c0,0,5.56-1.609,7.47-1.733
				c10.495-0.684,36.336,3.575,39.588-14.236c2.45-13.443-5.818-36.903-60.241-2.604L237.346,99.221z"/>
			<g>
				<path fill="#75BC93" d="M132.207,175.566c0,0-7.318,16.533,24.386,16.533c0,0,29.709,0.639,39.839-0.813
					c4.771-0.685,16.797-3.794,10.564-15.988"/>
			</g>
			<path fill="none" d="M231.385,145.219"/>
			<path fill="#75BC93" stroke="#FFFFFF" stroke-width="0.25" stroke-miterlimit="10" d="M66.669,34.324
				c0,0,45.755,39.092,39.252,91.66c0,0-10.299,54.738,64.493,56.363c0,0,63.41,4.338,62.865-56.363c0,0,1.494-67.208,42.682-91.596
				"/>
			<path fill="#BBBE9F" d="M278.812,31.199c0,8.677-47.895,12.408-107.31,12.408c-59.417,0-107.855-3.73-107.855-12.408
				c0-8.679,44.626-19.571,104.042-19.571C227.105,11.628,278.812,22.52,278.812,31.199z"/>
			<path fill="none" d="M83.849,53.419c0,0,72.475,14.572,171.864,0.096"/>
		</g>
	</g>
	<g id="Hat">
		<g display="inline">
			<path fill="#93764C" d="M233.453,48.624c-56.914-67.188-99.083-12.011-108.255,12.509c-40.141,107.287-81.719,55.94-81.719,55.94
				s119.714,226.003,275.986-54.236c0,0-28.811-30.559-55.001,28.808C264.464,91.645,242.021,58.742,233.453,48.624z"/>
			<path fill="#9E8564" d="M264.464,91.645c0,0-30.282,143.439-163.856,90.185c10.534,7.363,92.707,79.621,172.589-84.506
				c6.419-12.702,22.263-37.979,42.777-37.542C315.975,59.781,288.037,37.296,264.464,91.645z"/>
			<path fill="#9D9D9D" d="M113.211,87.607c0,0,81.191,41.688,140.122-12.328l6.547,9.165c0,0-47.157,89.904-154.541,17.88
				L113.211,87.607z"/>
			<path fill="#83CDCC" d="M145.705,130.906c0,0-4.911,21.933,9.166,18.333c0,0,14.732-3.603-2.945-19.972
				C151.926,129.268,149.633,131.562,145.705,130.906z"/>
			<path fill="#83CDCC" d="M152.218,129.477c0,0,19.591,11.028,20.2-3.49c0,0,0.805-15.147-19.976-2.938
				C152.442,123.049,153.976,125.9,152.218,129.477z"/>
			<path fill="#83CDCC" d="M152.77,123.305c0,0,16.22-15.562,2.501-20.342c0,0-14.268-5.152-8.594,18.271
				C146.677,121.232,149.854,120.588,152.77,123.305z"/>
			<path fill="#83CDCC" d="M146.625,120.904c0,0-6.568-21.491-17.018-11.405c0,0-11.036,10.411,12.44,15.912
				C142.048,125.411,142.896,122.283,146.625,120.904z"/>
			<path fill="#83CDCC" d="M142.083,125.254c0,0-22.452,1.045-15.26,13.67c0,0,7.362,13.271,18.497-8.113
				C145.32,130.811,142.506,129.217,142.083,125.254z"/>
			<ellipse fill="#D3CB67" cx="147.751" cy="126.077" rx="5.73" ry="5.4"/>
		</g>
	</g>
	<g id="Jumper">
		<path display="inline" fill="#1A3A24" stroke="#152819" stroke-miterlimit="10" d="M20.005,163.835l-0.38,13.146
			c0,0,22.689,10.221,46.914,1.457l0.385-11.316"/>
		<path display="inline" fill="#1A3A24" stroke="#152819" stroke-miterlimit="10" d="M89.777,179.839v13.146
			c0,0,100.767,24.828,162.107,0l0.187-10.811"/>
		<path display="inline" fill="#1A3A24" stroke="#152819" stroke-width="0.5" stroke-miterlimit="10" d="M277.451,169.645v8.76
			c0,0,20.434,6.207,46.722-0.365l-0.438-16.414"/>
		<path display="inline" fill="#1A3A24" stroke="#152819" stroke-width="0.5" stroke-miterlimit="10" d="M126.287-69.893
			c0,0-32.862,8.035-54.768,24.097c0,0-75.945,94.197-52.576,208.843c0,0,18.257,20.447,48.926,2.921
			c0,0,9.494-106.613,18.256-119.028c0,0-2.194,126.332,0.727,131.441c0,0,78.869,32.125,167.955,2.921
			c0,0,5.836-81.055,3.646-129.983c0,0,14.606,112.457,18.261,117.57c0,0,49.648,8.768,48.923-14.604
			c0,0,7.3-126.325-59.147-202.999c0,0-26.288-21.179-54.038-22.642L126.287-69.893z"/>
		<path display="inline" fill="none" stroke="#152819" stroke-width="0.5" stroke-miterlimit="10" d="M72.982-47.253
			c0,0,23.429,28.865,12.479,95.317"/>
		<path display="inline" fill="none" stroke="#152819" stroke-width="0.5" stroke-miterlimit="10" d="M262.105-51.636
			c0,0-17.977,58.417-3.379,105.516"/>
		<path display="inline" fill="none" stroke="#152819" stroke-width="0.5" stroke-miterlimit="10" d="M126.287-69.893
			c0,0,46.372,51.845,89.447-1.463"/>
		<path display="inline" fill="none" stroke="#152819" stroke-width="0.5" stroke-miterlimit="10" d="M132.68-69.709
			c0,0,39.97,38.191,77.4-1.604"/>
	</g>
	<g id="Book">
		<g display="inline">
			<path fill="none" stroke="#000000" stroke-miterlimit="10" d="M255.311,143.613"/>
			<path fill="#3C39D3" d="M251.59,147.085l7.91-0.212V-105.5H97.15L74.179-83.15v252.373h163.902V-83.615L79.768-83.77
				l18.391-18.006h157.149l0.467,245.389c0,0-10.942,6.984-17.928,16.063"/>
			<path fill="none" stroke="#000000" stroke-miterlimit="10" d="M92.717-97.097"/>
			<polygon fill="#25258E" points="90.01,-82.684 90.049,169.186 74.179,169.164 74.179,-83.15 			"/>
			<text transform="matrix(1 0 0 1 115.4058 -20.8945)" fill="#F3F2F1" font-family="'Lovefern-Regular'" font-size="43.7711">Pride and </text>
			<text transform="matrix(1 0 0 1 112.3647 13.1504)" fill="#F3F2F1" font-family="'Lovefern-Regular'" font-size="43.7711">Prejudice</text>
			<text transform="matrix(1 0 0 1 133.1587 164.8779)" fill="#F3F2F1" font-family="'Lovefern-Regular'" font-size="19.5565">Jane Austen</text>
			<polyline fill="none" stroke="#707075" stroke-width="0.25" stroke-miterlimit="10" points="81.784,-85.943 240.876,-85.943 
				240.782,156.21 			"/>
			<polyline fill="none" stroke="#707075" stroke-width="0.25" stroke-miterlimit="10" points="85.668,-89.821 244.602,-89.669 
				244.602,152.576 			"/>
			<polyline fill="none" stroke="#707075" stroke-width="0.25" stroke-miterlimit="10" points="89.545,-93.549 248.325,-93.394 
				248.325,149.201 			"/>
			<polyline fill="none" stroke="#707075" stroke-width="0.25" stroke-miterlimit="10" points="93.736,-97.584 252.051,-97.429 
				252.051,146.096 			"/>
			<polygon fill="#6D0909" points="90.476,-92 80,-83.305 80,-36.121 88.423,-46.055 97,-36.121 97,-83.615 106.308,-92 			"/>
		</g>
	</g>
</g>
<g id="Layer_2">
	<g>
		<g>
			<polygon fill="#ABB1B7" stroke="#545252" stroke-width="0.25" stroke-linecap="round" stroke-miterlimit="10" points="
				146.417,177.666 216.982,177.666 223.032,221.006 140.366,221.006 			"/>
			<polyline fill="#ABB1B7" stroke="#545252" stroke-width="0.25" stroke-linecap="round" stroke-miterlimit="10" points="
				140.387,221.168 140.387,232.52 223.012,232.52 223.012,221.168 			"/>
		</g>
		<g>
			<path d="M206.672,155.938c0,0-7.688,47.29-9.845,51.606c0,0,1.913,1.473,9.761,2.941v2.553h-9.811l-1.078-1.668h-0.295v1.668
				h-4.414c0,0,0-4.809,0.49-5.787c0,0,3.987-40.383-8.306-48.49l-1.254-0.01c-12.294,8.108-8.306,48.492-8.306,48.492
				c0.49,0.979,0.49,5.785,0.49,5.785h-4.414v-1.666h-0.295l-1.078,1.666h-9.811v-2.549c7.848-1.473,9.76-2.943,9.76-2.943
				c-2.158-4.316-9.956-52.445-9.956-52.445l23.805-6.737L206.672,155.938z"/>
			<polyline fill="#FF0000" stroke="#BC2828" stroke-width="0.15" stroke-miterlimit="10" points="180.639,109.052 178.029,126.219 
				181.562,136.52 185.387,126.611 182.966,109.049 			"/>
			<path fill="#1E202F" d="M171.359,99.733c0,0-2.844-0.49-3.825,1.079h-6.67c0,0-1.766-5.101-6.474-1.766l-11.673,48.557
				l8.927,0.688l6.278-28.84c0,0-2.943,30.605,0.393,36.295h18.246l5.688-7.062l6.278,7.062l18.146,0.192
				c0,0,3.238-17.851-1.666-41.197l9.222,9.809c0,0,2.551,1.57,4.119-0.393l16.872-20.404l-6.866-5.886l-12.557,14.714l-9.613-9.908
				c0,0-1.961-1.864-5.101-1.864h-7.259c0,0-0.307-0.946-0.59-0.981c-1.246-0.153-2.746,2.747-3.924,3.139
				c-1.177,0.392-0.195,15.303-7.65,33.548c0,0-7.455-19.226-7.848-34.137C173.812,102.382,171.85,100.617,171.359,99.733z"/>
			<path fill="#FAD3C0" d="M143.992,147.996l0.098,1.373c0,0-3.434,2.207-6.278,7.111c0,0-0.539,1.373,1.913,0.49l1.422-1.717
				c0,0,0.343-0.099,0.343,0.933l-0.785,8.044c0,0,0.638,1.52,1.471-0.146l1.03-6.229c0,0,0.833-0.539,0.735,0.491l-0.785,7.308
				c0,0,0.687,1.324,1.374-0.489l1.177-6.916c0,0,0.785-0.197,0.687,0.489l-0.589,6.867c0,0,0.785,1.128,1.227-0.245
				c0.441-1.374,0.883-6.671,0.883-6.671s0.637-0.343,0.588,0.44c-0.049,0.785,0,3.875,0,3.875s0.687,0.98,1.177-0.344
				c0,0,1.177-11.82,0.687-14.076"/>
			
				<line fill="none" stroke="#CECDCC" stroke-width="0.15" stroke-miterlimit="10" x1="179.928" y1="107.75" x2="174.891" y2="109.936"/>
			<path fill="#FAD3C0" d="M229.309,98.756l1.041-0.903c0,0-0.865-3.988,0.59-9.469c0,0,0.588-1.352,1.699,1.005l-0.207,2.223
				c0,0,0.172,0.311,0.901-0.417l5.132-6.243c0,0,1.526-0.624,0.938,1.145l-3.678,5.131c0,0,0.211,0.972,0.867,0.175l4.613-5.723
				c0,0,1.423-0.451,0.626,1.318l-4.06,5.723c0,0,0.416,0.693,0.834,0.138l4.438-5.272c0,0,1.351-0.242,0.692,1.041
				c-0.659,1.283-4.094,5.342-4.094,5.342s0.209,0.694,0.73,0.104c0.518-0.59,2.738-2.74,2.738-2.74s1.179-0.208,0.589,1.074
				c0,0-7.524,9.191-9.47,10.441"/>
			
				<line fill="none" stroke="#CECDCC" stroke-width="0.15" stroke-miterlimit="10" x1="183.816" y1="107.582" x2="188.134" y2="109.936"/>
			
				<rect x="180.208" y="105.872" transform="matrix(-0.7118 -0.7024 0.7024 -0.7118 235.782 312.0944)" fill="#FF0000" stroke="#BC2828" stroke-width="0.15" stroke-miterlimit="10" width="3.424" height="3.604"/>
			<path d="M181.659,136.52l-13.046-24.817l1.373-3.041l-3.336-2.551l0.785-5.002c0,0,0.639-1.226,1.668-1.275l4.562,1.03"/>
			<path d="M182.052,136.322l12.429-23.947l-1.373-3.041l3.336-2.55l-0.784-5.003c0,0-0.638-1.226-1.668-1.275l-4.562,1.03"/>
			<g>
				<path fill="#FAD3C0" d="M228.504,42.847c-1.396,16.955-3.99,19.545-3.99,19.545h-2.99
					c-1.197,19.149-25.731,37.101-25.731,37.101s-10.329,5.694-14.132,5.638c-3.54-0.052-12.993-5.638-12.993-5.638
					c-15.957-10.174-27.575-38.57-27.575-38.57s-2.465,1.586-3.341,1.372c-1.65-0.403-1.396-15.958-1.396-15.958l5.285-46.773
					h84.072L228.504,42.847z"/>
				<path fill="#F7F3C1" d="M198.783-46.114c0,0,9.175,12.367,8.379,13.763c0,0-43.284-30.518-71.606,10.969
					c0,0,14.162-10.172,15.957-9.873c0,0-35.005,25.131-12.267,85.567c0,0,6.283-14.66,7.48-24.233c0,0,26.625-5.984,38.295-22.44
					c0,0-0.301,9.275-8.676,21.243c0,0,16.754-5.685,25.73-24.832c0,0-2.096,15.259-14.062,22.738c0,0,7.479,1.197,21.241-16.456
					c0,0,2.69,12.567,8.079,16.756l0.598-6.881c0,0,5.387,31.414,6.282,32.013c0,0,21.043-35.903,1.496-69.212
					c0,0,5.983,5.984,7.581,10.571c0,0,0.396-22.34-21.941-23.735C211.35-30.157,211.947-45.915,198.783-46.114z"/>
			</g>
			<path fill="none" stroke="#EAC2B2" stroke-width="0.5" stroke-linecap="round" stroke-miterlimit="10" d="M186.762,35.522v14.768
				c4.707,4.624,4.006,9.625,4.006,9.625h-4.59c-4.787,7.869-11.572-0.083-11.572-0.083l-2.608,0.115
				c-0.199-6.305,3.776-9.447,3.776-9.447V35.522"/>
			<path fill="#EAC2B2" stroke="#EAC2B2" stroke-miterlimit="10" d="M167.822,72.626c0,0,2.792,0,3.591-0.837
				c0,0,6.585-3.565,9.776,1.465c0,0,0.896,0.63,1.099,0.106c0,0,5.886-6.289,11.272-1.571c0,0,2.396,1.047,2.895,0.837
				s-13.27,3.982-14.665,3.982C181.79,76.608,168.32,74.62,167.822,72.626z"/>
			<path fill="none" stroke="#EAC2B2" stroke-width="0.5" stroke-miterlimit="10" d="M171.613,81.949h20.353
				C191.966,81.949,183.188,105.553,171.613,81.949z"/>
			<path fill="#EAC2B2" stroke="#EAC2B2" stroke-linecap="round" stroke-miterlimit="10" d="M169.844,37.933
				c0,0-2.595,4.61-7.584,2.934c0,0,1.399-2.725,4.592-2.096C166.852,38.77,169.895,38.037,169.844,37.933z"/>
			<path fill="none" stroke="#EAC2B2" stroke-width="0.5" stroke-linecap="round" stroke-miterlimit="10" d="M171.812,55.335
				c0,0-9.18,8.827-9.379,16.183"/>
			<path fill="none" stroke="#EAC2B2" stroke-width="0.5" stroke-linecap="round" stroke-miterlimit="10" d="M191.165,55.335
				c0,0,9.181,8.827,9.379,16.183"/>
			<path fill="none" stroke="#EAC2B2" stroke-width="0.5" stroke-linecap="round" stroke-miterlimit="10" d="M152.231,67.315
				c0,0,3.418,20.628,10.203,26.304"/>
			<path fill="#EAC2B2" stroke="#EAC2B2" stroke-linecap="round" stroke-miterlimit="10" d="M165.627,28.605h6.584V32.3
				C172.212,32.3,173.009,29.863,165.627,28.605z"/>
			<path fill="none" stroke="#EAC2B2" stroke-width="0.5" stroke-linecap="round" stroke-miterlimit="10" d="M202.062,93.621
				c6.783-5.676,10.595-26.304,10.595-26.304l1.438,0.146l-1.047,3.271l-1.178,1.438"/>
			<path fill="#EAC2B2" stroke="#EAC2B2" stroke-miterlimit="10" d="M191.336,37.933c0,0,2.596,4.61,7.583,2.934
				c0,0-1.399-2.725-4.592-2.096C194.327,38.77,191.285,38.037,191.336,37.933z"/>
			<path fill="#EAC2B2" stroke="#EAC2B2" stroke-miterlimit="10" d="M195.552,28.605h-6.584V32.3
				C188.968,32.3,188.171,29.863,195.552,28.605z"/>
			<path fill="#EAC2B2" stroke="#EAC2B2" stroke-width="0.5" stroke-miterlimit="10" d="M177.438,82.519c0,0-0.295,1.275,0.49,1.57
				c0.784,0.294,8.143,0,8.143,0s0.588-0.981,0.195-1.57C185.873,81.931,177.438,82.519,177.438,82.519z"/>
			<g>
				<path fill="none" stroke="#3A3533" stroke-width="0.15" stroke-linecap="round" stroke-miterlimit="10" d="M163.857,33.43
					c-0.696,1.886,3.229,1.551,4.265,1.151c2.438-0.946,0.198-4.088,0.198-4.088s-3.891,3.458-6.584,3.458s-3.292,3.774-3.292,3.774
					"/>
				<path fill="#34445B" stroke="#3A3533" stroke-width="0.15" stroke-linecap="round" stroke-miterlimit="10" d="M168.32,30.493
					c0,0,2.24,3.142-0.198,4.088c-1.035,0.4-4.961,0.735-4.265-1.151C163.857,33.43,168.125,31.388,168.32,30.493z"/>
			</g>
			<g>
				<path fill="none" stroke="#3A3533" stroke-width="0.15" stroke-linecap="round" stroke-miterlimit="10" d="M196.807,33.43
					c0.696,1.886-3.229,1.551-4.265,1.151c-2.438-0.946-0.198-4.088-0.198-4.088s3.891,3.458,6.586,3.458
					c2.691,0,3.291,3.774,3.291,3.774"/>
				<path fill="#34445B" stroke="#3A3533" stroke-width="0.15" stroke-linecap="round" stroke-miterlimit="10" d="M192.344,30.493
					c0,0-2.24,3.142,0.198,4.088c1.034,0.4,4.961,0.735,4.265-1.151C196.807,33.43,192.539,31.388,192.344,30.493z"/>
			</g>
		</g>
		
			<text transform="matrix(1.0005 0 0 1 143.958 229.3359)" fill="#FFFFFF" stroke="#3A3533" stroke-width="0.1" stroke-linecap="round" stroke-miterlimit="10" font-family="'Verdana-Bold'" font-size="8">BORIS JOHNSON</text>
	</g>
</g>
</svg>
