<?xml version="1.0" encoding="utf-8"?>
<!-- Generator: Adobe Illustrator 16.0.0, SVG Export Plug-In . SVG Version: 6.00 Build 0)  -->
<!DOCTYPE svg PUBLIC "-//W3C//DTD SVG 1.1//EN" "http://www.w3.org/Graphics/SVG/1.1/DTD/svg11.dtd">
<svg version="1.1" id="Layer_1" xmlns="http://www.w3.org/2000/svg" xmlns:xlink="http://www.w3.org/1999/xlink" x="0px" y="0px"
	 width="351.686px" height="315.73px" viewBox="0 0 351.686 315.73" enable-background="new 0 0 351.686 315.73"
	 xml:space="preserve">
<path fill="none" stroke="#759FAF" stroke-width="0.75" stroke-miterlimit="10" d="M56.65,148.206c0,0,0.414,19.782,9.208,19.401
	c8.792-0.385,10.998,0.285,14.149-0.766c1.729-7.378,1.457-25.105,0.31-27.785c0,0-12.17-6.06-17.135-2.882
	C56.673,137.966,56.65,148.206,56.65,148.206z"/>
<path fill="none" stroke="#759FAF" stroke-width="0.75" stroke-linejoin="round" stroke-miterlimit="10" d="M80.006,166.842
	c0,0,7.296,14.569,50.516,6.922c0,0,1.071-23.746,0.179-41.824"/>
<path fill="none" stroke="#759FAF" stroke-width="0.75" stroke-miterlimit="10" d="M130.802,173.786c0,0,18.013,16.86,51.012,1.086
	v-43.67"/>
<path fill="none" stroke="#759FAF" stroke-width="0.75" stroke-miterlimit="10" d="M181.355,174.872c0,0,24.479,17.969,53.163,0
	l0.389-47.678"/>
<path fill="none" stroke="#759FAF" stroke-width="0.75" stroke-miterlimit="10" d="M234.413,173.953c0,0,20.401,16.595,43.401-5.968
	v-37.783"/>
<path fill="none" stroke="#759FAF" stroke-width="0.75" stroke-miterlimit="10" d="M277.354,167.985c0,0,25.761,7.35,29.779-22.292"
	/>
<path fill="none" stroke="#759FAF" stroke-width="0.75" stroke-miterlimit="10" d="M62.795,167.223c0,0-12.236,22.948-11.855,29.829
	c0,0,11.089,26.388,31.36,16.823l-1.914-45.504"/>
<path fill="none" stroke="#759FAF" stroke-width="0.75" stroke-miterlimit="10" d="M82.215,213.706c0,0,2.6,25.798,43.6,12.789
	v-52.297"/>
<path fill="none" stroke="#759FAF" stroke-width="0.75" stroke-miterlimit="10" d="M124.88,225.685c0,0,23.935,40.775,55.934,6.36
	v-57.847"/>
<path fill="none" stroke="#759FAF" stroke-width="0.75" stroke-miterlimit="10" d="M180.514,232.189c0,0,36.301,31.977,54.301-8.464
	v-49.527"/>
<path fill="none" stroke="#759FAF" stroke-width="0.75" stroke-miterlimit="10" d="M234.955,225.288c0,0,28.859,20.811,42.859-9.017
	v-47.073"/>
<path fill="none" stroke="#759FAF" stroke-width="0.75" stroke-miterlimit="10" d="M277.354,216.271
	c0,0,36.272,11.563,29.257-26.965c-1.146-6.297-8.037-25.302-8.037-25.302"/>
<path fill="#D88FBF" d="M304.898,181.013c-1.834-6.069,10.48,7.586,11.471,11.544c3.017,12.026-0.004,49.622-0.004,49.622
	C171.797,363.732,43.29,240.638,43.29,240.638s-4.106-35.964,1.151-46.544c2.565-5.159,7.387-4.753,7.387-4.753
	s0.459,25.657,31.153,21.038c0,0,2.761,25.645,42.919,13.812c0,0,22.761,37.275,55.747,4.963c0,0,34.896,30.522,52.679-5.829
	c0,0,28.687,19.043,43.315-8.655C277.642,214.67,317.811,223.807,304.898,181.013z"/>
<path fill="#D88FBF" d="M50.546,111.769c0,0-1.91,23.39,6.104,36.439c0,0-1.522-21.014,23.666-9.15c0,0,20.616-41.529,50.385-7.118
	c0,0,20.611-45.087,50.382,0c0,0,27.487-41.528,53.825-4.745c0,0,21.758-21.357,43.508,4.745c0,0,32.065-5.932,28.632,14.239
	c0,0,11.451-10.682,2.291-42.716c0,0-34.355,2.374-70.998-16.611c0,0-29.771-18.985-57.258,7.12c0,0-29.771-24.919-66.413-2.968
	C114.669,91.004,70.777,117.229,50.546,111.769z"/>
<g>
	<path fill="#E0BF1E" d="M189.997,35.654c0,0,7.651,15.001,7.443,38.683c0,0,36.642-3.316,71.606,20.869
		c0,0,10.362-16.809,27.293-28.617c0,0-38.222,24-15.155-20.037c0,0-39.147,41.686-30.455-18.611c0,0-26.314,55.132-36.209-1.398
		C214.521,26.542,210.356,75.408,189.997,35.654z"/>
	<path fill="#E0BF1E" d="M257.518,24.14c-0.868,2.944-3.956,4.631-6.897,3.769c-2.942-0.863-4.632-3.949-3.768-6.893
		c0.864-2.945,3.948-4.63,6.89-3.771C256.688,18.109,258.378,21.197,257.518,24.14z"/>
	<path fill="#E0BF1E" d="M218.786,22.475c-0.758,2.587-3.465,4.066-6.058,3.306c-2.576-0.756-4.062-3.463-3.303-6.045
		c0.758-2.585,3.468-4.066,6.049-3.308C218.06,17.185,219.54,19.893,218.786,22.475z"/>
	<path fill="#E0BF1E" d="M289.146,43.572c-0.758,2.582-3.46,4.062-6.045,3.306c-2.593-0.758-4.065-3.465-3.308-6.046
		c0.75-2.587,3.465-4.068,6.042-3.311C288.42,38.277,289.905,40.988,289.146,43.572z"/>
	<path fill="#E0BF1E" d="M302.393,65.289c-0.565,1.924-2.581,3.028-4.506,2.46c-1.921-0.562-3.021-2.577-2.463-4.499
		c0.566-1.923,2.585-3.023,4.506-2.463C301.854,61.352,302.954,63.366,302.393,65.289z"/>
	<path fill="#E0BF1E" d="M193.301,32.847c-0.566,1.919-2.581,3.021-4.502,2.458c-1.921-0.564-3.028-2.577-2.463-4.503
		c0.565-1.921,2.58-3.022,4.498-2.459C192.762,28.906,193.862,30.92,193.301,32.847z"/>
</g>
</svg>
