<?xml version="1.0" encoding="utf-8"?>
<!-- Generator: Adobe Illustrator 16.0.0, SVG Export Plug-In . SVG Version: 6.00 Build 0)  -->
<!DOCTYPE svg PUBLIC "-//W3C//DTD SVG 1.1//EN" "http://www.w3.org/Graphics/SVG/1.1/DTD/svg11.dtd">
<svg version="1.1" xmlns="http://www.w3.org/2000/svg" xmlns:xlink="http://www.w3.org/1999/xlink" x="0px" y="0px" width="750px"
	 height="300px" viewBox="0 0 750 300" enable-background="new 0 0 750 300" xml:space="preserve">
<g id="Layer_2">
	<rect x="2" y="-5" fill="#F2F2F2" width="751" height="303"/>
</g>
<g id="Shape_1_">
	<path fill="#ED9498" d="M555.56,37.215c30.485,58.442-86.118,187.039-195.761,244.229c-109.641,57.188,21.223-79.503-9.26-137.947
		c-30.483-58.442-242.765-13.593-133.121-70.781C327.058,15.528,525.075-21.229,555.56,37.215z"/>
	
		<text transform="matrix(0.9942 -0.1076 0.1076 0.9942 368.2583 192.7783)" fill="#FFFFFF" font-family="'Raleway-Light'" font-size="18">(bobblehead)</text>
</g>
<g id="Text">
	
		<text transform="matrix(0.997 -0.0777 0.0777 0.997 270.9961 138.9858)" fill="#FFFFFF" stroke="#0B132B" stroke-width="2" stroke-miterlimit="10" font-family="'MarketingScript'" font-size="71.0793">Boris</text>
	<text transform="matrix(1 0 0 1 333.1616 77.4028)" fill="#FFFFFF" font-family="'Raleway-Regular'" font-size="35.5396">your very</text>
	<text transform="matrix(1 0 0 1 432.2754 105.0449)" fill="#FFFFFF" font-family="'Raleway-Regular'" font-size="24.8777">own</text>
	
		<text transform="matrix(0.9935 -0.1138 0.1138 0.9935 295.1387 175.2178)" fill="#FFFFFF" stroke="#0B132B" stroke-width="1.75" stroke-miterlimit="10" font-family="'MarketingScript'" font-size="48">Johnson</text>
</g>
<g id="Layer_1">
	<g>
		<polygon fill="#ABB1B7" stroke="#545252" stroke-width="0.25" stroke-linecap="round" stroke-miterlimit="10" points="
			164.128,225.557 234.653,225.557 240.701,268.87 158.083,268.87 		"/>
		<polyline fill="#ABB1B7" stroke="#545252" stroke-width="0.25" stroke-linecap="round" stroke-miterlimit="10" points="
			158.104,269.035 158.104,280.378 240.681,280.378 240.681,269.035 		"/>
		<g>
			<g>
				<path d="M218.897,203.945c0,0-6.818,41.952-8.732,45.78c0,0,1.697,1.305,8.658,2.611v2.262h-8.702l-0.957-1.479h-0.261v1.479
					h-3.916c0,0,0-4.264,0.435-5.135c0,0,3.537-35.82-7.368-43.014l-1.112-0.008c-10.905,7.193-7.367,43.016-7.367,43.016
					c0.435,0.87,0.435,5.134,0.435,5.134h-3.915v-1.479h-0.261l-0.958,1.479h-8.701v-2.263c6.961-1.305,8.657-2.609,8.657-2.609
					c-1.914-3.829-8.832-46.524-8.832-46.524l21.116-5.977L218.897,203.945z"/>
				<polyline fill="#FF0000" stroke="#BC2828" stroke-width="0.15" stroke-miterlimit="10" points="195.805,162.355 193.49,177.583 
					196.623,186.72 200.017,177.931 197.869,162.353 				"/>
				<path fill="#1E202F" d="M187.574,154.089c0,0-2.523-0.435-3.394,0.958h-5.917c0,0-1.566-4.525-5.744-1.566l-10.354,43.072
					l7.918,0.608l5.569-25.582c0,0-2.61,27.148,0.348,32.195h16.185l5.047-6.265l5.569,6.265l16.097,0.171
					c0,0,2.873-15.834-1.478-36.543l8.18,8.701c0,0,2.263,1.393,3.654-0.348l14.967-18.1l-6.092-5.221l-11.138,13.053l-8.527-8.789
					c0,0-1.74-1.652-4.524-1.652H207.5c0,0-0.271-0.84-0.521-0.871c-1.107-0.136-2.437,2.437-3.481,2.785
					c-1.044,0.348-0.174,13.574-6.787,29.759c0,0-6.613-17.055-6.961-30.281C189.749,156.438,188.009,154.872,187.574,154.089z"/>
				<path fill="#FAD3C0" d="M163.296,196.9l0.086,1.219c0,0-3.045,1.957-5.569,6.309c0,0-0.479,1.218,1.697,0.435l1.262-1.522
					c0,0,0.304-0.088,0.304,0.826l-0.696,7.136c0,0,0.566,1.349,1.306-0.131l0.914-5.525c0,0,0.74-0.479,0.653,0.435l-0.696,6.483
					c0,0,0.609,1.175,1.218-0.436l1.044-6.135c0,0,0.696-0.174,0.608,0.436l-0.522,6.092c0,0,0.697,1,1.088-0.218
					c0.392-1.219,0.783-5.918,0.783-5.918s0.566-0.305,0.522,0.393c-0.043,0.696,0,3.437,0,3.437s0.609,0.87,1.044-0.305
					c0,0,1.044-10.485,0.609-12.486"/>
				
					<line fill="none" stroke="#CECDCC" stroke-width="0.15" stroke-miterlimit="10" x1="195.174" y1="161.199" x2="190.706" y2="163.139"/>
				<path fill="#FAD3C0" d="M238.979,153.222l0.923-0.802c0,0-0.769-3.537,0.523-8.399c0,0,0.522-1.199,1.508,0.892l-0.185,1.972
					c0,0,0.152,0.276,0.8-0.37l4.552-5.538c0,0,1.354-0.553,0.831,1.016l-3.262,4.551c0,0,0.187,0.862,0.771,0.156l4.092-5.077
					c0,0,1.262-0.399,0.555,1.169l-3.601,5.077c0,0,0.37,0.614,0.739,0.122l3.938-4.677c0,0,1.199-0.214,0.615,0.924
					c-0.584,1.138-3.63,4.738-3.63,4.738s0.185,0.617,0.647,0.092c0.459-0.523,2.43-2.431,2.43-2.431s1.045-0.185,0.521,0.953
					c0,0-6.675,8.153-8.399,9.262"/>
				
					<line fill="none" stroke="#CECDCC" stroke-width="0.15" stroke-miterlimit="10" x1="198.625" y1="161.051" x2="202.453" y2="163.139"/>
				
					<rect x="195.424" y="159.53" transform="matrix(0.7121 0.7021 -0.7021 0.7121 169.8356 -91.8819)" fill="#FF0000" stroke="#BC2828" stroke-width="0.15" stroke-miterlimit="10" width="3.039" height="3.197"/>
				<path d="M196.71,186.72l-11.574-22.015l1.219-2.698l-2.959-2.262l0.696-4.438c0,0,0.565-1.087,1.479-1.131l4.046,0.914"/>
				<path d="M197.058,186.545l11.025-21.242l-1.218-2.697l2.958-2.262l-0.695-4.438c0,0-0.566-1.087-1.479-1.131l-4.046,0.913"/>
				<g>
					<path fill="#FAD3C0" d="M238.264,103.625c-1.238,15.04-3.538,17.338-3.538,17.338h-2.655
						c-1.061,16.987-22.824,32.911-22.824,32.911s-9.163,5.051-12.536,5.001c-3.141-0.047-11.526-5.001-11.526-5.001
						c-14.156-9.025-24.461-34.215-24.461-34.215s-2.186,1.407-2.963,1.217c-1.464-0.358-1.238-14.156-1.238-14.156l4.688-41.491
						h74.577L238.264,103.625z"/>
					<path fill="#F7F3C1" d="M211.9,24.712c0,0,8.139,10.97,7.433,12.208c0,0-38.396-27.071-63.521,9.731
						c0,0,12.562-9.023,14.155-8.758c0,0-31.052,22.293-10.881,75.905c0,0,5.574-13.005,6.635-21.497c0,0,23.62-5.309,33.972-19.906
						c0,0-0.266,8.228-7.696,18.844c0,0,14.862-5.043,22.825-22.028c0,0-1.858,13.536-12.474,20.17c0,0,6.633,1.062,18.843-14.598
						c0,0,2.388,11.147,7.166,14.863l0.53-6.104c0,0,4.777,27.866,5.573,28.398c0,0,18.666-31.849,1.326-61.396
						c0,0,5.309,5.309,6.725,9.377c0,0,0.354-19.817-19.464-21.055C223.047,38.868,223.578,24.889,211.9,24.712z"/>
				</g>
				<path fill="none" stroke="#EAC2B2" stroke-width="0.5" stroke-linecap="round" stroke-miterlimit="10" d="M201.235,97.129v13.1
					c4.176,4.102,3.554,8.539,3.554,8.539h-4.071c-4.248,6.98-10.265-0.074-10.265-0.074l-2.314,0.102
					c-0.176-5.593,3.351-8.38,3.351-8.38V97.129"/>
				<path fill="#EAC2B2" stroke="#EAC2B2" stroke-miterlimit="10" d="M184.436,130.042c0,0,2.478,0,3.186-0.743
					c0,0,5.841-3.162,8.673,1.301c0,0,0.796,0.558,0.974,0.093c0,0,5.221-5.579,10-1.394c0,0,2.125,0.929,2.567,0.743
					c0.441-0.186-11.771,3.533-13.009,3.533C196.826,133.576,184.877,131.81,184.436,130.042z"/>
				<path fill="none" stroke="#EAC2B2" stroke-width="0.5" stroke-miterlimit="10" d="M187.799,138.312h18.054
					C205.853,138.312,198.064,159.251,187.799,138.312z"/>
				<path fill="#EAC2B2" stroke="#EAC2B2" stroke-linecap="round" stroke-miterlimit="10" d="M186.229,99.267
					c0,0-2.302,4.089-6.727,2.602c0,0,1.241-2.417,4.073-1.859C183.575,100.01,186.273,99.359,186.229,99.267z"/>
				<path fill="none" stroke="#EAC2B2" stroke-width="0.5" stroke-linecap="round" stroke-miterlimit="10" d="M187.976,114.705
					c0,0-8.143,7.83-8.319,14.354"/>
				<path fill="none" stroke="#EAC2B2" stroke-width="0.5" stroke-linecap="round" stroke-miterlimit="10" d="M205.143,114.705
					c0,0,8.143,7.83,8.319,14.354"/>
				<path fill="none" stroke="#EAC2B2" stroke-width="0.5" stroke-linecap="round" stroke-miterlimit="10" d="M170.605,125.332
					c0,0,3.032,18.299,9.05,23.333"/>
				<path fill="#EAC2B2" stroke="#EAC2B2" stroke-linecap="round" stroke-miterlimit="10" d="M182.488,90.993h5.841v3.278
					C188.33,94.271,189.037,92.109,182.488,90.993z"/>
				<path fill="none" stroke="#EAC2B2" stroke-width="0.5" stroke-linecap="round" stroke-miterlimit="10" d="M214.809,148.665
					c6.019-5.034,9.398-23.333,9.398-23.333l1.276,0.129l-0.929,2.901l-1.044,1.276"/>
				<path fill="#EAC2B2" stroke="#EAC2B2" stroke-miterlimit="10" d="M205.293,99.267c0,0,2.302,4.089,6.727,2.602
					c0,0-1.241-2.417-4.073-1.859C207.947,100.01,205.249,99.359,205.293,99.267z"/>
				<path fill="#EAC2B2" stroke="#EAC2B2" stroke-miterlimit="10" d="M209.034,90.993h-5.841v3.278
					C203.193,94.271,202.486,92.109,209.034,90.993z"/>
				<path fill="#EAC2B2" stroke="#EAC2B2" stroke-width="0.5" stroke-miterlimit="10" d="M192.965,138.818
					c0,0-0.261,1.131,0.435,1.392c0.696,0.261,7.222,0,7.222,0s0.522-0.87,0.174-1.392
					C200.448,138.296,192.965,138.818,192.965,138.818z"/>
				<g>
					<path fill="none" stroke="#3A3533" stroke-width="0.15" stroke-linecap="round" stroke-miterlimit="10" d="M180.919,95.271
						c-0.618,1.673,2.865,1.376,3.783,1.021c2.163-0.839,0.175-3.626,0.175-3.626s-3.451,3.068-5.841,3.068
						c-2.389,0-2.92,3.347-2.92,3.347"/>
					<path fill="#34445B" stroke="#3A3533" stroke-width="0.15" stroke-linecap="round" stroke-miterlimit="10" d="M184.877,92.667
						c0,0,1.988,2.787-0.175,3.626c-0.918,0.355-4.401,0.652-3.783-1.021C180.919,95.271,184.705,93.461,184.877,92.667z"/>
				</g>
				<g>
					<path fill="none" stroke="#3A3533" stroke-width="0.15" stroke-linecap="round" stroke-miterlimit="10" d="M210.146,95.271
						c0.619,1.673-2.864,1.376-3.782,1.021c-2.163-0.839-0.175-3.626-0.175-3.626s3.45,3.068,5.841,3.068
						c2.389,0,2.92,3.347,2.92,3.347"/>
					<path fill="#34445B" stroke="#3A3533" stroke-width="0.15" stroke-linecap="round" stroke-miterlimit="10" d="M206.188,92.667
						c0,0-1.988,2.787,0.175,3.626c0.918,0.355,4.401,0.652,3.782-1.021C210.146,95.271,206.36,93.461,206.188,92.667z"/>
				</g>
			</g>
			
				<text transform="matrix(1.0005 0 0 1 161.9531 277.9404)" fill="#FFFFFF" stroke="#3A3533" stroke-width="0.1" stroke-linecap="round" stroke-miterlimit="10" font-family="'Verdana-Bold'" font-size="8">BORIS JOHNSON</text>
		</g>
	</g>
</g>
</svg>
