<?xml version="1.0" encoding="utf-8"?>
<!-- Generator: Adobe Illustrator 16.0.0, SVG Export Plug-In . SVG Version: 6.00 Build 0)  -->
<!DOCTYPE svg PUBLIC "-//W3C//DTD SVG 1.1//EN" "http://www.w3.org/Graphics/SVG/1.1/DTD/svg11.dtd">
<svg version="1.1" xmlns="http://www.w3.org/2000/svg" xmlns:xlink="http://www.w3.org/1999/xlink" x="0px" y="0px" width="750px"
	 height="300px" viewBox="0 0 750 300" enable-background="new 0 0 750 300" xml:space="preserve">
<g id="Layer_2">
	<rect x="-1" y="-2" fill="#F3F2F1" width="751" height="303"/>
	<text transform="matrix(1 0 0 1 21 54)" fill="#0B132B" font-family="'Raleway-SemiBold'" font-size="35">Wool Jumper.</text>
	<text transform="matrix(1 0 0 1 21 80)" font-family="'Raleway-Light'" font-size="18">We know you’re itching for one.</text>
</g>
<g id="Layer_1">
	<g>
		<path fill="#1A3A24" stroke="#0B140C" stroke-width="0.5" stroke-miterlimit="10" d="M277.234,239.301l-0.292,10.095
			c0,0,17.426,7.852,36.032,1.119l0.295-8.69"/>
		<path fill="#1A3A24" stroke="#0B140C" stroke-width="0.5" stroke-miterlimit="10" d="M330.821,251.594v10.096
			c0,0,77.396,19.068,124.505,0l0.143-8.302"/>
		<path fill="#1A3A24" stroke="#0B140C" stroke-width="0.5" stroke-miterlimit="10" d="M474.961,243.764v6.729
			c0,0,15.697,4.767,35.888-0.282l-0.335-12.608"/>
		<g>
			<path fill="#1A3A24" stroke="#0B140C" stroke-width="0.5" stroke-miterlimit="10" d="M358.862,59.789
				c0,0-25.237,6.169-42.062,18.507c0,0-58.329,72.348-40.38,160.4c0,0,14.022,15.704,37.577,2.243c0,0,7.292-81.885,14.022-91.418
				c0,0-1.686,97.029,0.559,100.953c0,0,60.574,24.673,128.995,2.241c0,0,4.485-62.252,2.803-99.828c0,0,11.22,86.367,14.021,90.295
				c0,0,38.133,6.732,37.573-11.216c0,0,5.607-97.024-45.427-155.913c0,0-20.189-16.266-41.5-17.387L358.862,59.789z"/>
		</g>
		<path fill="none" stroke="#0B140C" stroke-width="0.5" stroke-miterlimit="10" d="M317.923,77.175c0,0,17.995,22.172,9.582,73.209
			"/>
		<path fill="none" stroke="#0B140C" stroke-width="0.5" stroke-miterlimit="10" d="M463.182,73.811c0,0-13.812,44.865-2.599,81.039
			"/>
		<path fill="none" stroke="#0B140C" stroke-width="0.5" stroke-miterlimit="10" d="M358.862,59.789c0,0,35.615,39.817,68.702-1.123
			"/>
		<path fill="none" stroke="#0B140C" stroke-width="0.5" stroke-miterlimit="10" d="M363.771,59.93c0,0,30.703,29.332,59.446-1.232"
			/>
	</g>
</g>
</svg>
