<?xml version="1.0" encoding="utf-8"?>
<!-- Generator: Adobe Illustrator 16.0.0, SVG Export Plug-In . SVG Version: 6.00 Build 0)  -->
<!DOCTYPE svg PUBLIC "-//W3C//DTD SVG 1.1//EN" "http://www.w3.org/Graphics/SVG/1.1/DTD/svg11.dtd">
<svg version="1.1" id="Layer_1" xmlns="http://www.w3.org/2000/svg" xmlns:xlink="http://www.w3.org/1999/xlink" x="0px" y="0px"
	 width="750px" height="300px" viewBox="0 0 750 300" enable-background="new 0 0 750 300" xml:space="preserve">
<g id="Layer_3">
	<rect x="-1" y="-2" fill="#F3F2F1" width="751" height="303"/>
</g>
<path fill="#588C6D" d="M356.079,238.488c0,0,38.229,18.802,74.838,0.677"/>
<path fill="#588C6D" stroke="#FFFFFF" stroke-width="0.25" stroke-miterlimit="10" d="M316.857,213.117
	c0,0,4.75,28.906,82.683,28.906c0,0,51.875,3.043,67.824-28.855"/>
<path fill="#75BC93" d="M336.386,173.314c0,0-16.229,13.61-23.479,13.61c0,0-30.086-4.35-31.174,12.688
	c0,0-3.262,10.873,27.549,10.512c0,0,8.7,1.449,25.011,14.861c0,0,18.85,9.787,35.885,3.625c0,0,36.975-7.612,54.012,2.898
	c0,0,23.923,0.727,38.423-15.224c0,0,8.698-8.7,32.623-8.338c0,0,22.837-18.849-12.688-20.66c0,0-12.324,1.812-22.474-4.713
	c0,0-5.358-3.048-16.957-4.498"/>
<path fill="#F8ED32" d="M426.849,195.141c0,0,29.482,14.26,1.934,22.233c-19.986,5.786-74.59,6.876-85.304-9.425
	c-2.068-3.149-1.209-7.006,11.357-12.564"/>
<path fill="#F8ED32" d="M455.277,114.401c0,0,53.378-47.542,63.553,2.665c2.107,10.387,0.374,28.137-32.51,27.191
	c-32.885-0.943-16.334,12.582-15.903,18.708c0.257,3.621-6.557,10.188-14.527-0.088c0,0-4.293-7.581,3.394-13.322
	c0,0,1.101-10.734-10.408-5.759"/>
<path fill="#F3F2F1" d="M451.737,129.472c0,0,8.988-2.179,13.569,9.859c0,0,4.954-1.437,6.661-1.547
	c9.356-0.608,32.401,3.188,35.299-12.695c2.189-11.987-5.188-32.909-53.719-2.322L451.737,129.472z"/>
<g>
	<path fill="#75BC93" d="M357.977,197.557c0,0-6.526,14.743,21.748,14.743c0,0,26.493,0.569,35.523-0.726
		c4.257-0.612,14.98-3.385,9.422-14.26"/>
</g>
<path fill="none" d="M446.419,170.493"/>
<path fill="#75BC93" stroke="#FFFFFF" stroke-width="0.25" stroke-miterlimit="10" d="M299.532,71.6c0,0,40.804,34.86,35.003,81.74
	c0,0-9.184,48.812,57.513,50.264c0,0,56.547,3.869,56.064-50.264c0,0,1.331-59.935,38.061-81.683"/>
<path fill="#BBBE9F" d="M488.714,68.813c0,7.737-42.708,11.064-95.694,11.064c-52.984,0-96.182-3.328-96.182-11.064
	c0-7.739,39.797-17.453,92.782-17.453C442.605,51.361,488.714,61.074,488.714,68.813z"/>
<path fill="none" d="M314.853,88.628c0,0,64.629,12.994,153.26,0.085"/>
<g>
	<g>
		<path fill="#D6B05C" stroke="#AA8B4D" stroke-miterlimit="10" d="M207.662,196.925c0,0-3.412-2.378-6.825-0.207
			c0,0-4.239-2.481-8.479,0.519c0,0-6.1-1.448-8.996,1.758c0,0-5.997-0.932-8.376,3.104c0,0,2.068-0.312,2.275,0.205
			c0.207,0.518-3.929-0.724-5.48,0.518c0,0,1.758,0.104,1.965,0.414c0,0-3.412-1.137-5.48,1.861c0,0,2.275,0.104,2.688,0.619
			c0,0-4.653-2.378-7.962,5.273c0,0,4.343-2.274,5.17-1.24c0,0-8.479,0.206-7.548,8.271c0,0,5.376-5.584,6.307-4.24
			c0,0-9.616,2.688-5.583,11.789c0,0,3.619-5.584,4.136-4.344c0,0-9.927,5.273,1.551,12.202c0,0-0.414-6.516,0.827-8.272
			c0,0-3.619,12.306,5.274,12.306c0,0-0.311-6.722,0.31-7.651c0,0-3.309,11.479,8.686,10.961c0,0-0.931-6.722-0.104-7.961
			c0,0-3.722,11.993,7.858,9.822c0,0,2.068-1.139,2.275-1.966c0.207-0.826-1.344-3.206,0.103-8.065c0,0-3.826,16.752,9.513,9.617
			c0,0,1.603-5.222,1.336-9.562l-1.698,10.184c0,0,17.424,5.479,10.185-11.374c0,0,3.102,8.788,0.311,10.854
			c0,0,11.478,1.554,10.34-6.822c0,0,0.104,3.93-1.137,4.859c0,0,6.928-0.414,7.135-3.412
			C228.446,233.943,207.662,196.925,207.662,196.925z"/>
		<path fill="#D6B05C" stroke="#AA8B4D" stroke-miterlimit="10" d="M187.188,204.475c0,0,0.207,0.414,0.827,0.619
			c0.621,0.206,1.137,0.414,1.344,0.104s0.827-0.828,0.827-0.828s0.621-0.31,1.034-0.206"/>
		<path fill="#D6B05C" stroke="#AA8B4D" stroke-miterlimit="10" d="M177.365,207.781c0,0-0.414,0.311,0.414,0.621
			c0.827,0.31,1.138,0.207,1.138,0.207l1.034-0.519c0,0,0.207,0.208,0.723,0.414c0.518,0.206,1.034-0.726,1.034-0.726"/>
		<path fill="#D6B05C" stroke="#AA8B4D" stroke-miterlimit="10" d="M171.678,219.88c0,0,1.344-0.724,1.551-0.312
			c0.207,0.416,1.861,0.621,1.861,0.621s0.31,0.104,0.931,0.621c0.62,0.518,1.138-0.518,1.138-0.518s1.034-1.24,1.344-0.932
			c0.311,0.312,1.138-0.413,1.138-0.413"/>
		<path fill="#D6B05C" stroke="#AA8B4D" stroke-miterlimit="10" d="M172.505,214.296c0,0,0.931-0.517,1.241,0
			c0.311,0.519,0.724,0.621,1.344,0.828c0.62,0.207,1.344-0.519,1.344-0.519s0.827-1.344,1.137-1.032
			c0.311,0.311,1.034-0.519,1.034-0.519"/>
		<path fill="#D6B05C" stroke="#AA8B4D" stroke-miterlimit="10" d="M183.879,214.605c0,0,1.137,0.312,1.861,0.414
			c0.724,0.104,0.517-0.619,0.517-0.619s0-1.346,0.518-1.139c0.516,0.207,0.723-0.414,0.723-0.414"/>
		<path fill="#D6B05C" stroke="#AA8B4D" stroke-miterlimit="10" d="M194.013,205.609c0,0-0.931,1.449-1.448,1.656
			c-0.517,0.205-1.964,0.414-1.758,0.723c0.207,0.312,1.447,0.828,1.655,1.242c0.207,0.412,0.93,1.551,1.654,1.24
			C194.84,210.161,200.63,206.128,194.013,205.609z"/>
		<path fill="#D6B05C" stroke="#AA8B4D" stroke-miterlimit="10" d="M198.666,201.578c0,0,0.31,1.24,0.724,1.344
			s1.861,0.104,2.171,0.207s1.447-0.207,1.861-0.104s1.137-0.414,1.137-0.414l0.828-0.93"/>
		<path fill="#D6B05C" stroke="#AA8B4D" stroke-miterlimit="10" d="M200.32,206.749c0,0,0.724-0.312,1.034,0.103
			s0.827,0.104,1.344,0.104c0.518,0,1.448-0.206,1.448-0.206"/>
		<path fill="#D6B05C" stroke="#AA8B4D" stroke-miterlimit="10" d="M196.598,211.402c0,0,0.931,0.31,1.034,0.826
			c0.103,0.516,0.31,0.619,1.034,0.826s1.655,0,1.655,0l1.241-0.311"/>
		<path fill="#D6B05C" stroke="#AA8B4D" stroke-miterlimit="10" d="M193.599,217.191c0,0,0.62,0.104,1.241,0.207
			c0.621,0.103,1.241-0.828,1.241-0.828s0.414-1.137,0.827-0.723"/>
		<path fill="#D6B05C" stroke="#AA8B4D" stroke-miterlimit="10" d="M198.459,220.604c0,0,1.034-0.414,1.241-0.104
			s0.414,0.52,1.034,0.725c0.62,0.207,1.137,0,1.448,0c0.31,0,0.724-1.24,1.137-1.033"/>
		<path fill="#D6B05C" stroke="#AA8B4D" stroke-miterlimit="10" d="M190.911,223.499c0,0,1.137,0.207,1.551,0.931
			c0.413,0.725,0.62,0.725,1.241,0.725c0.62,0,1.344-0.723,1.861-0.206s1.137,0.103,1.447,0.206
			c0.311,0.104,0.931-0.518,0.931-0.518"/>
		<path fill="#D6B05C" stroke="#AA8B4D" stroke-miterlimit="10" d="M200.113,230.531c0,0,0.31,0.619,1.138,0.826
			c0.827,0.207,1.447-0.414,1.447-0.414s0.828-0.93,1.241-0.619c0.414,0.311,1.241-0.413,1.241-0.413l0.62-1.035"/>
		<path fill="#D6B05C" stroke="#AA8B4D" stroke-miterlimit="10" d="M205.077,223.913l1.034,0.62c0,0,0.104,0.725,0.827,0.931
			c0.724,0.207,0.724,0.207,0.724,0.207"/>
		<path fill="#D6B05C" stroke="#AA8B4D" stroke-miterlimit="10" d="M183.465,220.707c0,0,1.344,0.208,1.654,0.414
			c0.31,0.207,0.931-0.414,1.241-0.414c0.311,0,1.655-0.62,1.655-0.62l0.621-0.827l-0.311-1.758"/>
		<path fill="#D6B05C" stroke="#AA8B4D" stroke-miterlimit="10" d="M178.605,225.359c0,0,0.621,0.002,0.931,0.519
			c0.311,0.517,0.207,1.759,0.724,2.172c0.517,0.413,1.447-0.207,1.447-0.207s0.724-1.138,1.034-0.931
			c0.311,0.207,0.621-0.828,1.034-0.828"/>
		<path fill="#D6B05C" stroke="#AA8B4D" stroke-miterlimit="10" d="M189.359,231.048c0,0,0.207-0.104,0.827,0.207
			c0.621,0.312,1.345-0.519,1.345-0.519l0.517-1.344"/>
		<path fill="#D6B05C" stroke="#AA8B4D" stroke-miterlimit="10" d="M174.16,224.43c0,0-1.138,0.62-1.138,1.654
			c0,0-2.068-0.826-1.034,1.654c0,0-1.241,5.273,3.309,2.068C175.297,229.807,179.743,225.051,174.16,224.43z"/>
	</g>
	<g>
		<path fill="#D6B05C" stroke="#AA8B4D" stroke-miterlimit="10" d="M236.201,191.548c0,0-5.377-3.103-7.445,0
			c0,0-4.963-2.481-8.479,0.827c0,0-5.791-1.654-7.445,3.104c0,0-4.825,2.822-4.204,6.959c0,0,3.376-2.823,5.031-1.789
			c0,0-8.324,0.182-7.29,8.453c0,0,2.326-4.731,6.669-4.317c0,0-11.165,2.556-5.581,11.655c0,0,3.136-5.114,4.661-5.828
			c0.218-0.102,0.119-0.449,0.249-0.348c1.034,0.827-11.323,6.516-0.982,13.959c0,0,2.275-8.478,4.55-9.306
			c0,0-11.064,12.822,2.171,15.147c0,0,0.414-7.342,2.171-8.116c0,0-5.739,11.426,5.635,11.735c0,0,1.034-7.445,3.257-8.014
			c0,0-10.909,11.736,7.91,12.355c0,0,0.371-2.528,1.396-6.358c0,0-5.678,11.966,7.464,10.792c0.13-0.012,0.261-0.023,0.395-0.038
			c0,0,0.069-0.094,0.185-0.269c0.706-1.068,2.316-4.62,2.348-9.09c0,0-1.473,7.832-2.326,9.539c0,0,14.27,6.438,11.788-9.486
			c0,0,0.258,9.539-2.017,9.951c0,0,15.666,6.179,10.289-11.605c0,0,2.973,9.073-0.75,11.762c0,0,11.503,2.094,8.195-13.003
			c0,0,1.81,9.479-1.706,11.341c0,0,12.459-0.586,7.496-12.994c0,0,1.809,7.754,0.982,8.375c0,0,8.945-4.445,2.74-12.512
			c0,0,2.766,4.137,2.534,4.678c-0.233,0.543,3.955-4.808-3.257-10.312c0,0,2.249,1.551,2.481,1.705
			c0.233,0.156,1.164-5.195-3.722-7.289l1.163,0.154c0,0-2.171-7.289-9.694-9.85c0,0-2.481-3.645-8.53-4.808
			c0,0-1.861-4.11-9.617-3.49c0,0-1.861-4.653-10.237-2.792C244.68,192.427,240.285,188.652,236.201,191.548z"/>
		<path fill="#D6B05C" stroke="#AA8B4D" stroke-miterlimit="10" d="M228.626,200.958c0,0,0.698,0.854,0.62,1.396
			c0,0,3.645-4.42,6.515,0.39c0,0,2.404,2.791-1.474,2.479c0,0-0.465,2.404-3.024,0
			C231.263,205.223,227.075,205.843,228.626,200.958z"/>
		<path fill="#D6B05C" stroke="#AA8B4D" stroke-miterlimit="10" d="M267.248,202.586c0,0-0.931-2.016-2.637,0.389
			c0,0-3.49,2.172,1.085,3.023c0,0,2.404,1.783,3.257,0.775C268.953,206.773,270.97,203.284,267.248,202.586z"/>
		<path fill="#D6B05C" stroke="#AA8B4D" stroke-miterlimit="10" d="M256.312,223.682c0,0-4.033-1.242-2.171,2.713
			c1.862,3.955,3.334,0.854,3.567,0.389C257.941,226.316,260.345,223.061,256.312,223.682z"/>
		<path fill="#D6B05C" stroke="#AA8B4D" stroke-miterlimit="10" d="M238.631,207.084c0,0,1.085,2.096,1.706,1.784
			s2.559-0.078,2.637,0.312"/>
		<path fill="#D6B05C" stroke="#AA8B4D" stroke-miterlimit="10" d="M239.716,212.357c0,0,0.698,4.344,2.637,0.311"/>
		<path fill="#D6B05C" stroke="#AA8B4D" stroke-miterlimit="10" d="M236.227,216.546c0,0,1.241,4.498,3.723,0.774"/>
		<path fill="#D6B05C" stroke="#AA8B4D" stroke-miterlimit="10" d="M221.569,215.848c0,0,1.706,1.629,1.551,1.938
			c-0.155,0.312,2.559,0.466,2.636,0.155c0.078-0.312,1.939-0.312,2.017-0.077c0.077,0.231,0.62-0.931,0.62-0.931l1.164-0.854"/>
		<path fill="#D6B05C" stroke="#AA8B4D" stroke-miterlimit="10" d="M218.39,211.736l2.714,0.854c0,0,0.775-0.233,1.008-1.009
			c0.232-0.775,1.086-1.24,1.241-1.009"/>
		<path fill="#D6B05C" stroke="#AA8B4D" stroke-miterlimit="10" d="M216.916,204.137c0,0,0.931,0.232,0.853,0.698
			c-0.077,0.465,1.629,0.621,1.629,0.621l0.155,0.542c0,0,1.938-1.163,1.861-1.396c-0.077-0.232,1.319-0.232,1.319-0.232"/>
		<path fill="#D6B05C" stroke="#AA8B4D" stroke-miterlimit="10" d="M220.251,197.777c0,0,1.784,1.242,1.628,1.475
			c-0.155,0.23,0.465,0.23,0.698,0.23c0.232,0,0.291,0.875,0.543,0.854c0.413-0.032,0.31-1.628,0.31-1.628s0.232-1.009,0.465-0.775
			c0.232,0.232,1.163-0.543,1.163-0.543"/>
		<path fill="#D6B05C" stroke="#AA8B4D" stroke-miterlimit="10" d="M230.565,195.529c0,0,0.62,1.086,1.085,1.086
			c0.465,0,1.628,0.543,1.474,0.853c-0.155,0.312,0.388,0.621,0.388,0.621l0.543-0.931"/>
		<path fill="#D6B05C" stroke="#AA8B4D" stroke-miterlimit="10" d="M241.112,194.677c0,0,0.388,0.697,0.543,0.931
			c0.155,0.231,0.621,0.465,0.853,0.465c0.233,0,0.465,0.544,0.465,0.544s-0.078,0.31,0.543,0.31"/>
		<path fill="#D6B05C" stroke="#AA8B4D" stroke-miterlimit="10" d="M253.598,198.011c0,0,0.271,0.427,0.582,0.892
			c0.31,0.467,0.135,0.757,0.678,0.912c0.543,0.154,1.299,0.522,1.299,0.834c0,0.311-0.261,1.072,0,1.24
			c0.27,0.174,0.853-0.388,1.164-0.543"/>
		<path fill="#D6B05C" stroke="#AA8B4D" stroke-miterlimit="10" d="M247.549,202.354c0,0,0.543,0.698,1.008,0.775
			c0.465,0.077,0.621,0.467,0.621,0.467s-0.543,0.696,0.232,0.696c0.775,0,1.396-0.619,1.396-0.619s1.164-0.467,1.318-0.155
			c0.155,0.311,0.698-0.466,0.698-0.466"/>
		<path fill="#D6B05C" stroke="#AA8B4D" stroke-miterlimit="10" d="M259.337,208.248c0,0,0.465,0.658,0.543,0.893
			c0.078,0.231-0.039,0.717,0.504,0.871c0.543,0.155,1.125-0.369,1.125-0.369h0.542"/>
		<path fill="#D6B05C" stroke="#AA8B4D" stroke-miterlimit="10" d="M267.48,210.884c0,0,0.155,0.078,0.853,0.62
			c0.698,0.544,1.318,1.707,1.551,1.707c0.233,0,1.629-0.232,1.861-0.388c0.233-0.155,0.853-0.853,1.086-0.544
			c0.232,0.312,1.241,0,1.241,0"/>
		<path fill="#D6B05C" stroke="#AA8B4D" stroke-miterlimit="10" d="M254.063,212.125c0,0,0.543,1.008,0.543,1.318
			c0,0.31-0.776,1.009-0.078,1.162c0.698,0.156,0.698-0.543,1.163-0.465c0.465,0.077,0.931-0.466,1.008-0.231"/>
		<path fill="#D6B05C" stroke="#AA8B4D" stroke-miterlimit="10" d="M262.439,214.84c0,0,0.388,0.387,0.465,0.854
			c0.078,0.465-0.465,0.854,0.543,0.854c1.008,0,1.474,1.008,1.474,1.008s0.465,0.621,0.698,0.465
			c0.232-0.153,0.698-0.465,0.698-0.465"/>
		<path fill="#D6B05C" stroke="#AA8B4D" stroke-miterlimit="10" d="M271.357,219.184c0,0-0.078,0.774,0.465,0.93
			c0.543,0.156,0.853,0.544,1.318,0.621c0.465,0.076,1.861-0.465,1.861-0.465s1.784-0.39,1.939-0.078"/>
		<path fill="#D6B05C" stroke="#AA8B4D" stroke-miterlimit="10" d="M268.178,224.146c0,0,0.621,0.465,0.621,0.853
			s0.62,0.931,0.62,0.931l0.776-0.387c0,0,0.388,0.311,0.775,0.387c0.387,0.077,0-0.931,0-0.931s0.465-0.931,0.931-0.619"/>
		<path fill="#D6B05C" stroke="#AA8B4D" stroke-miterlimit="10" d="M258.174,216.934c0,0-0.078,0.697,0.078,1.164
			c0.155,0.465-0.155,1.24,0.31,1.473s0.621,0.078,0.853,0.467c0.233,0.387,0.775,0.697,0.775,0.697s1.086,0.154,1.241,0.543
			c0.155,0.388,0.698,0.697,0.698,0.697"/>
		<path fill="#D6B05C" stroke="#AA8B4D" stroke-miterlimit="10" d="M247.006,215.693c0,0,0.155,0.853,0.854,1.008
			c0.698,0.154,0.853,0.232,1.163,0.154s0.543-0.543,0.775-0.311c0.233,0.232,0.465,0.465,0.931,0.542
			c0.465,0.078,1.318-0.465,1.318-0.465l0.621,0.621"/>
		<path fill="#D6B05C" stroke="#AA8B4D" stroke-miterlimit="10" d="M247.006,220.656c0,0,0.233,1.085,0.621,1.162
			c0.388,0.078,0.775,0.156,0.775,0.156s-0.077,0.619,0.465,0.696c0.543,0.078,1.551-0.465,1.551-0.465l0.621,0.621"/>
		<path fill="#D6B05C" stroke="#AA8B4D" stroke-miterlimit="10" d="M234.831,222.982c0,0-0.155,1.086,0.31,1.317
			c0.465,0.232,1.008,0.39,1.241,0.466c0.232,0.077,0.853,0.077,1.163,0.387c0.31,0.312,1.318,0.543,1.318,0.543l0.698-0.619
			c0,0,0.62-0.232,0.775,0.154"/>
		<path fill="#D6B05C" stroke="#AA8B4D" stroke-miterlimit="10" d="M247.937,226.705c0,0,0.543,0.388,0.698,0.854
			c0.155,0.465-0.698,0.775,0.388,1.008c1.086,0.231,1.086,0.231,1.241,0.466c0.155,0.233-0.078,1.086-0.078,1.086
			s0.621,0.542,1.164,0.388"/>
		<path fill="#D6B05C" stroke="#AA8B4D" stroke-miterlimit="10" d="M265.154,225.93c0,0-1.629,0.232-1.629,0.697
			c0,0.466-0.931,1.086-0.931,1.086l-1.008-0.076l-0.931-0.156"/>
		<path fill="#D6B05C" stroke="#AA8B4D" stroke-miterlimit="10" d="M228.394,209.18c0,0,0.078,0.696,0.155,0.93
			c0.078,0.232,0.621,0.388,0.775,0.621c0.155,0.231-0.543,1.084,0.155,1.162c0.698,0.078,1.086-0.774,1.474-0.466
			c0.388,0.312-0.155,0.854,0.388,1.009"/>
		<path fill="#D6B05C" stroke="#AA8B4D" stroke-miterlimit="10" d="M237.467,200.337l0.543,1.317c0,0,1.086-0.231,1.318-0.153
			c0.233,0.077,0.853,0.543,1.086,0.697c0.232,0.155,1.085-0.466,1.085-0.466"/>
		<path fill="#D6B05C" stroke="#AA8B4D" stroke-miterlimit="10" d="M249.488,207.859c0,0,0.543,0.543,0.621,0.774
			c0.077,0.233,0,0.312,0.62,0.312c0.621,0,1.086-1.086,1.164-0.854c0.078,0.233,0.931,0.312,0.931,0.312l0.853-0.621"/>
	</g>
</g>
<text transform="matrix(1 0 0 1 90.3335 111)" fill="#FFFFFF" font-family="'MarketingScript'" font-size="48">Cuppa Tea,</text>
<text transform="matrix(1 0 0 1 90.3335 111)" fill="none" stroke="#0B132B" stroke-width="2" stroke-miterlimit="10" font-family="'MarketingScript'" font-size="48">Cuppa Tea,</text>
<text transform="matrix(1 0 0 1 89 153)" fill="#FFFFFF" font-family="'MarketingScript'" font-size="36">indeed.</text>
<text transform="matrix(1 0 0 1 89 153)" fill="none" stroke="#0B132B" stroke-width="1.5" stroke-miterlimit="10" font-family="'MarketingScript'" font-size="36">indeed.</text>
</svg>
