<?xml version="1.0" encoding="utf-8"?>
<!-- Generator: Adobe Illustrator 16.0.0, SVG Export Plug-In . SVG Version: 6.00 Build 0)  -->
<!DOCTYPE svg PUBLIC "-//W3C//DTD SVG 1.1//EN" "http://www.w3.org/Graphics/SVG/1.1/DTD/svg11.dtd">
<svg version="1.1" id="Layer_1" xmlns="http://www.w3.org/2000/svg" xmlns:xlink="http://www.w3.org/1999/xlink" x="0px" y="0px"
	 width="21.5px" height="16.75px" viewBox="0 0 21.5 16.75" enable-background="new 0 0 21.5 16.75" xml:space="preserve">
<g display="none">
	<path display="inline" fill="none" stroke="#0B132B" stroke-miterlimit="10" d="M9.667-8.037c0,0-0.849,0.105-0.602,0.992
		c0,0-3.577,1.698-0.672,4.566c0,0-0.813,0.284-0.318,0.672c0,0-5.383,1.949-5.561,2.48c0,0-1.699-0.603-1.735,1.097
		c0,0,0,1.133,0.92,0.991v1.027c0,0-0.92,0.035-0.424,1.098c0,0-2.869,0.566-4.07,3.188c0,0-3.188-6.939-7.755-6.515
		c0,0,1.273,1.522-0.072,2.903c0,0-0.071,0.531,0.568,0.425c0,0,0.104-1.134,0.672-0.92c0,0,1.38,0.92,1.875,3.788
		c0,0,0.603,5.63,3.399,6.834c0,0,0.744,4.284,3.541,5.878c0,0-1.203,1.876,0.071,2.833c0,0,11.001,6.29,20.926,0
		c0,0,1.772-1.24-0.175-2.975c0,0,2.513-1.664,2.938-4.569c0,0,1.311-1.485,6.197-0.987c0,0,5.45-7.332-4.355-11.333
		c0,0-2.799,1.452-4,2.797c0,0-0.887-0.919-2.799-1.31c0,0,0.672-0.955-0.603-1.098V2.868c0,0,1.345-0.106,0.918-1.452
		c0,0-0.28-1.133-1.483-0.601c0,0-4.002-2.479-5.668-2.551c0,0,0.461-0.602-0.318-0.672c0,0,3.117-2.585-0.707-4.462
		C10.375-6.869,10.799-8.003,9.667-8.037z"/>
	<path display="inline" fill="none" stroke="#0B132B" stroke-miterlimit="10" d="M23.176,8.692c0,0,1.041,1.396,0.861,4.014
		c0,0,1.834-0.992,4.209-0.556c0,0,0.885-3.642-3.133-5.109C25.113,7.041,23.717,8.079,23.176,8.692z"/>
</g>
<g display="none">
	<path display="inline" fill="none" stroke="#0B132B" stroke-miterlimit="10" d="M-2.442-5.586c0,0-1.253,0.586-1.177,3.288
		c0,0-1.722,1.45-1.957,1.726C-5.811-0.3-5.615-0.143-6.24,0.562c-0.628,0.706-3.017,3.642-1.53,5.484c0,0,1.176,0.743,2.821-0.395
		l0.899-0.429c0,0,1.49,0.274,1.999-1.252c0,0,0.195-0.274,0.586,0.509c0,0,2.389,3.915,2.782,7.285c0,0-4.272,6.932-4.739,6.893
		c-0.47-0.037-2.233-1.41-2.233-1.41l-1.098,1.801c0,0,18.368,15.508,34.506-0.077l-1.565-1.764l-2.078,1.841
		c0,0-3.444-5.402-2.154-7.047c0,0,4.189-3.368,0.9-8.188c0,0,4.621-2.505,4.19,3.526c0,0-0.392,7.909,3.328,6.619
		c0,0-0.374-1.165-0.351-2.938c0.078-4.856,1.703-11.403-5.094-10.65c-0.943,0.101-1.643,0.505-3.209,2.034
		c0,0-3.252-2.311-7.324,0.706c0,0-5.562,2.857-8.066-0.158c0,0-4.818-5.249-7.21-4.817C-0.879-1.866-0.681-5-2.442-5.586z"/>
	<path display="inline" fill="none" stroke="#0B132B" stroke-miterlimit="10" d="M-0.809,19.936l5.062-6.523
		c0,0,5.955,2.973,11.959-0.684c0,0,0.522-0.053,0.992,0.576c0.472,0.627,4.802,7.204,4.802,7.204S13.445,27.195-0.809,19.936z"/>
</g>
<g display="none">
	<path display="inline" fill="none" stroke="#0B132B" stroke-miterlimit="10" d="M8.63-4.918L7.434-3.301
		c0,0-10.751,3.161-12.577,4.144c0,0,0.984,5.551,2.812,6.323c0,0,3.232-1.685,5.06-1.123L2.586,24.314c0,0,7.871,2.037,18.062,0
		l0.067-18.412l4.849,1.475c0,0,2.317-2.388,2.811-6.396c0,0-5.973-2.598-12.646-4.428l-0.975-1.771
		C14.754-5.216,12.354-4.356,8.63-4.918z"/>
	<path display="inline" fill="none" stroke="#0B132B" stroke-miterlimit="10" d="M11.089-0.703L9.684,0.81
		c0,0-1.054-0.177-2.107-3.938l0.982-1.298C8.559-4.427,9.929-1.332,11.089-0.703z"/>
	<path display="inline" fill="none" stroke="#0B132B" stroke-miterlimit="10" d="M12.107-0.843c0,0,2.004-1.474,2.602-3.69l1.02,1.3
		c0,0,0.141,1.758-2.108,4.006L12.107-0.843z"/>
	<line display="inline" fill="none" stroke="#0B132B" stroke-miterlimit="10" x1="11.124" y1="-0.843" x2="12.002" y2="-0.843"/>
</g>
<g display="none">
	<path display="inline" fill="none" stroke="#0B132B" stroke-miterlimit="10" d="M10.876-5.417c0,0-6.218-0.141-7.052,11.73
		l-2.097,0.07l-3.911,16.549h4.677c0,0,0.072,1.049,0.699,1.188c0,0,0.769,0.188,0.796-1.188l14.22-0.035
		c0,0-0.142,1.223,0.731,1.362c0.875,0.14,0.629-1.291,0.629-1.291l4.807,0.013L20.363,6.346L18.977,6.36
		C18.977,6.359,17.252-6.303,10.876-5.417z"/>
	<path display="inline" fill="none" stroke="#0B132B" stroke-miterlimit="10" d="M4.625,6.35h13.514c0,0-1.224-11.14-6.74-11.176
		C11.398-4.826,5.496-5.395,4.625,6.35z"/>
	<path display="inline" fill="none" stroke="#0B132B" stroke-miterlimit="10" d="M1.728,6.384c0,0,3.42,13.894,9.193,13.662
		c0,0,5.331,1.001,9.384-13.662"/>
</g>
<g display="none">
	<path display="inline" fill="none" stroke="#0B132B" stroke-miterlimit="10" d="M10.863-0.212c0,0-5.627-5.826-15.822-4.66v23.683
		c0,0,11.938-0.873,15.822,5.729c0,0,5.196-7.377,15.825-5.34V-4.68C26.688-4.68,19.21-6.815,10.863-0.212z"/>
	<line display="inline" fill="none" stroke="#0B132B" stroke-miterlimit="10" x1="10.96" y1="24.223" x2="10.96" y2="-0.13"/>
	<path display="inline" fill="none" stroke="#0B132B" stroke-miterlimit="10" d="M-5.251-2.738c0,0-3.153,0.099-3.153,0.389v25.773
		l15.918,0.193c0,0-0.099,1.214,0.874,1.214c0.973,0,2.425,0,2.425,0h3.058c0,0,0.678,0,0.535-1.265l15.97,0.05V-2.688
		c0,0-3.497-0.389-3.642-0.05"/>
</g>
<g display="none">
	<polygon display="inline" fill="none" stroke="#0B132B" stroke-miterlimit="10" points="-2.319,3.188 -2.319,8.714 11.85,8.714 
		26.375,8.831 26.375,3.188 	"/>
	<polyline display="inline" fill="none" stroke="#0B132B" stroke-miterlimit="10" points="-0.757,9.074 -0.757,24.08 24.934,24.08 
		24.934,8.893 	"/>
	<polyline display="inline" fill="none" stroke="#0B132B" stroke-miterlimit="10" points="12.21,24.199 12.21,9.191 12.268,3.068 	
		"/>
	<path display="inline" fill="none" stroke="#0B132B" stroke-miterlimit="10" d="M12.09,2.348"/>
	<path display="inline" fill="none" stroke="#0B132B" stroke-miterlimit="10" d="M6.747,3.188c0,0-4.262-2.94-1.619-4.801
		c0,0,2.1-2.642,7.14,4.681"/>
	<path display="inline" fill="none" stroke="#0B132B" stroke-miterlimit="10" d="M10.138,0.457c0,0-0.899-5.641,2.068-5.761
		c2.972-0.12,2.244,4.946,2.244,4.946"/>
	<path display="inline" fill="none" stroke="#0B132B" stroke-miterlimit="10" d="M12.148,2.499c0,0,3.121-5.312,6.453-4.382
		c3.328,0.93-0.842,4.951-0.842,4.951"/>
</g>
<g>
	
		<path fill="none" stroke="#F3F2F1" stroke-width="0.75" stroke-linecap="round" stroke-linejoin="round" stroke-miterlimit="10" d="
		M17.119,5.284c0,0-0.752-2.26-1.562-2.26H2.255l2.534,7.146h11.297l1.864-8.835h2.077"/>
	<path fill="none" stroke="#F3F2F1" stroke-width="0.75" stroke-miterlimit="10" d="M5.247,12.07c0,0,10.028,0.07,10.31-0.07
		c0.283-0.139,0.529-1.829,0.529-1.829"/>
	<ellipse fill="none" stroke="#F3F2F1" stroke-width="0.75" stroke-miterlimit="10" cx="7.531" cy="14.508" rx="1.18" ry="1.145"/>
	<path fill="none" stroke="#F3F2F1" stroke-width="0.75" stroke-miterlimit="10" d="M15.223,14.508c0,0.637-0.529,1.146-1.178,1.146
		c-0.65,0-1.18-0.512-1.18-1.146c0-0.629,0.529-1.139,1.18-1.139C14.691,13.369,15.223,13.879,15.223,14.508z"/>
</g>
</svg>
