<?xml version="1.0" encoding="utf-8"?>
<!-- Generator: Adobe Illustrator 16.0.0, SVG Export Plug-In . SVG Version: 6.00 Build 0)  -->
<!DOCTYPE svg PUBLIC "-//W3C//DTD SVG 1.1//EN" "http://www.w3.org/Graphics/SVG/1.1/DTD/svg11.dtd">
<svg version="1.1" id="Layer_1" xmlns="http://www.w3.org/2000/svg" xmlns:xlink="http://www.w3.org/1999/xlink" x="0px" y="0px"
	 width="29.375px" height="23.75px" viewBox="0 0 29.375 23.75" enable-background="new 0 0 29.375 23.75" xml:space="preserve">
<g display="none">
	<path display="inline" fill="none" stroke="#0B132B" stroke-miterlimit="10" d="M13.167-4.787c0,0-0.849,0.105-0.602,0.992
		c0,0-3.577,1.698-0.672,4.566c0,0-0.813,0.284-0.318,0.672c0,0-5.383,1.949-5.561,2.48c0,0-1.699-0.603-1.735,1.097
		c0,0,0,1.133,0.92,0.991v1.027c0,0-0.92,0.035-0.424,1.098c0,0-2.869,0.566-4.07,3.187c0,0-3.188-6.939-7.755-6.515
		c0,0,1.273,1.522-0.072,2.903c0,0-0.071,0.531,0.568,0.425c0,0,0.104-1.134,0.672-0.92c0,0,1.38,0.92,1.875,3.788
		c0,0,0.603,5.63,3.399,6.834c0,0,0.744,4.284,3.541,5.878c0,0-1.203,1.876,0.071,2.833c0,0,11.001,6.29,20.925,0
		c0,0,1.773-1.24-0.174-2.975c0,0,2.512-1.664,2.938-4.569c0,0,1.311-1.485,6.197-0.988c0,0,5.451-7.331-4.355-11.333
		c0,0-2.799,1.452-4,2.797c0,0-0.887-0.919-2.799-1.31c0,0,0.672-0.955-0.602-1.098V6.118c0,0,1.344-0.106,0.918-1.452
		c0,0-0.281-1.133-1.484-0.601c0,0-4.002-2.479-5.667-2.551c0,0,0.461-0.602-0.319-0.672c0,0,3.117-2.585-0.707-4.462
		C13.875-3.619,14.299-4.753,13.167-4.787z"/>
	<path display="inline" fill="none" stroke="#0B132B" stroke-miterlimit="10" d="M26.676,11.942c0,0,1.041,1.396,0.861,4.014
		c0,0,1.834-0.992,4.209-0.555c0,0,0.885-3.642-3.133-5.11C28.613,10.291,27.217,11.329,26.676,11.942z"/>
</g>
<g display="none">
	<path display="inline" fill="none" stroke="#0B132B" stroke-miterlimit="10" d="M1.058-2.336c0,0-1.253,0.586-1.177,3.288
		c0,0-1.722,1.45-1.957,1.726C-2.311,2.95-2.115,3.107-2.74,3.812C-3.368,4.518-5.757,7.454-4.27,9.296c0,0,1.176,0.743,2.821-0.395
		l0.899-0.429c0,0,1.49,0.274,1.999-1.252c0,0,0.195-0.274,0.586,0.509c0,0,2.389,3.915,2.782,7.285c0,0-4.272,6.932-4.739,6.892
		c-0.47-0.037-2.233-1.41-2.233-1.41l-1.098,1.801c0,0,18.368,15.507,34.506-0.077l-1.566-1.764l-2.078,1.841
		c0,0-3.444-5.403-2.154-7.047c0,0,4.19-3.368,0.901-8.188c0,0,4.62-2.505,4.19,3.526c0,0-0.391,7.909,3.328,6.619
		c0,0-0.374-1.165-0.351-2.938c0.079-4.856,1.703-11.403-5.093-10.65c-0.943,0.101-1.643,0.505-3.209,2.034
		c0,0-3.252-2.311-7.324,0.706c0,0-5.562,2.857-8.067-0.158c0,0-4.818-5.249-7.21-4.817C2.621,1.384,2.819-1.75,1.058-2.336z"/>
	<path display="inline" fill="none" stroke="#0B132B" stroke-miterlimit="10" d="M2.691,23.185l5.062-6.523
		c0,0,5.955,2.973,11.959-0.684c0,0,0.522-0.052,0.992,0.576c0.472,0.628,4.802,7.205,4.802,7.205S16.945,30.445,2.691,23.185z"/>
</g>
<g display="none">
	<path display="inline" fill="none" stroke="#0B132B" stroke-miterlimit="10" d="M12.13-1.668l-1.196,1.617
		c0,0-10.751,3.161-12.577,4.144c0,0,0.984,5.551,2.812,6.323c0,0,3.232-1.685,5.06-1.123L6.086,27.565c0,0,7.871,2.036,18.062,0
		l0.068-18.412l4.849,1.475c0,0,2.317-2.388,2.81-6.396c0,0-5.973-2.598-12.647-4.428l-0.974-1.771
		C18.254-1.966,15.854-1.106,12.13-1.668z"/>
	<path display="inline" fill="none" stroke="#0B132B" stroke-miterlimit="10" d="M14.589,2.547L13.184,4.06
		c0,0-1.054-0.177-2.107-3.938l0.982-1.298C12.059-1.177,13.429,1.918,14.589,2.547z"/>
	<path display="inline" fill="none" stroke="#0B132B" stroke-miterlimit="10" d="M15.608,2.407c0,0,2.003-1.474,2.601-3.69
		l1.019,1.3c0,0,0.141,1.758-2.108,4.006L15.608,2.407z"/>
	<line display="inline" fill="none" stroke="#0B132B" stroke-miterlimit="10" x1="14.624" y1="2.407" x2="15.502" y2="2.407"/>
</g>
<g display="none">
	<path display="inline" fill="none" stroke="#0B132B" stroke-miterlimit="10" d="M14.376-2.167c0,0-6.218-0.141-7.052,11.73
		l-2.097,0.07L1.316,26.183h4.677c0,0,0.072,1.049,0.699,1.187c0,0,0.769,0.187,0.796-1.187l14.22-0.036
		c0,0-0.141,1.223,0.731,1.363c0.875,0.139,0.629-1.291,0.629-1.291l4.807,0.012L23.864,9.596l-1.388,0.014
		C22.477,9.609,20.752-3.053,14.376-2.167z"/>
	<path display="inline" fill="none" stroke="#0B132B" stroke-miterlimit="10" d="M8.125,9.6h13.514c0,0-1.224-11.14-6.74-11.176
		C14.898-1.576,8.996-2.145,8.125,9.6z"/>
	<path display="inline" fill="none" stroke="#0B132B" stroke-miterlimit="10" d="M5.228,9.634c0,0,3.42,13.894,9.193,13.662
		c0,0,5.331,1.001,9.383-13.662"/>
</g>
<g display="none">
	<path display="inline" fill="none" stroke="#0B132B" stroke-miterlimit="10" d="M14.363,3.038c0,0-5.627-5.826-15.822-4.66V22.06
		c0,0,11.938-0.872,15.822,5.729c0,0,5.195-7.377,15.825-5.34V-1.43C30.188-1.43,22.71-3.565,14.363,3.038z"/>
	<line display="inline" fill="none" stroke="#0B132B" stroke-miterlimit="10" x1="14.46" y1="27.473" x2="14.46" y2="3.12"/>
	<path display="inline" fill="none" stroke="#0B132B" stroke-miterlimit="10" d="M-1.751,0.512c0,0-3.153,0.099-3.153,0.389v25.773
		l15.918,0.193c0,0-0.099,1.214,0.874,1.214s2.425,0,2.425,0h3.058c0,0,0.678,0,0.535-1.265l15.97,0.05V0.562
		c0,0-3.497-0.389-3.642-0.05"/>
</g>
<g display="none">
	<polygon display="inline" fill="none" stroke="#0B132B" stroke-miterlimit="10" points="1.181,6.438 1.181,11.964 15.35,11.964 
		29.875,12.081 29.875,6.438 	"/>
	<polyline display="inline" fill="none" stroke="#0B132B" stroke-miterlimit="10" points="2.743,12.324 2.743,27.33 28.434,27.33 
		28.434,12.143 	"/>
	<polyline display="inline" fill="none" stroke="#0B132B" stroke-miterlimit="10" points="15.71,27.449 15.71,12.441 15.768,6.318 	
		"/>
	<path display="inline" fill="none" stroke="#0B132B" stroke-miterlimit="10" d="M15.59,5.598"/>
	<path display="inline" fill="none" stroke="#0B132B" stroke-miterlimit="10" d="M10.247,6.438c0,0-4.262-2.94-1.619-4.801
		c0,0,2.1-2.642,7.14,4.681"/>
	<path display="inline" fill="none" stroke="#0B132B" stroke-miterlimit="10" d="M13.638,3.707c0,0-0.899-5.641,2.068-5.761
		c2.972-0.12,2.244,4.946,2.244,4.946"/>
	<path display="inline" fill="none" stroke="#0B132B" stroke-miterlimit="10" d="M15.648,5.749c0,0,3.122-5.312,6.454-4.382
		c3.328,0.93-0.842,4.951-0.842,4.951"/>
</g>
<g>
	
		<path fill="none" stroke="#FFFFFF" stroke-width="0.75" stroke-linecap="round" stroke-linejoin="round" stroke-miterlimit="10" d="
		M23.538,6.967c0,0-1.12-3.363-2.326-3.363H1.414L5.187,14.24h16.814l2.773-13.151h3.093"/>
	<path fill="none" stroke="#FFFFFF" stroke-width="0.75" stroke-miterlimit="10" d="M5.867,17.066c0,0,14.928,0.104,15.345-0.104
		c0.422-0.207,0.789-2.722,0.789-2.722"/>
	<ellipse fill="none" stroke="#FFFFFF" stroke-width="0.75" stroke-miterlimit="10" cx="9.268" cy="20.695" rx="1.756" ry="1.702"/>
	<path fill="none" stroke="#FFFFFF" stroke-width="0.75" stroke-miterlimit="10" d="M20.717,20.695c0,0.945-0.791,1.706-1.754,1.706
		c-0.968,0-1.756-0.761-1.756-1.706c0-0.937,0.788-1.695,1.756-1.695C19.926,19,20.717,19.759,20.717,20.695z"/>
</g>
</svg>
