<?xml version="1.0" encoding="utf-8"?>
<!-- Generator: Adobe Illustrator 16.0.0, SVG Export Plug-In . SVG Version: 6.00 Build 0)  -->
<!DOCTYPE svg PUBLIC "-//W3C//DTD SVG 1.1//EN" "http://www.w3.org/Graphics/SVG/1.1/DTD/svg11.dtd">
<svg version="1.1" id="Layer_1" xmlns="http://www.w3.org/2000/svg" xmlns:xlink="http://www.w3.org/1999/xlink" x="0px" y="0px"
	 width="351.686px" height="315.73px" viewBox="0 0 351.686 315.73" enable-background="new 0 0 351.686 315.73"
	 xml:space="preserve">
<path fill="none" stroke="#A5BFCE" stroke-width="0.15" stroke-miterlimit="10" d="M56.649,148.208c0,0,0.414,19.783,9.208,19.402
	c8.792-0.385,10.998,0.285,14.149-0.766c1.729-7.378,1.457-25.107,0.31-27.787c0,0-12.17-6.061-17.135-2.882
	C56.673,137.967,56.649,148.208,56.649,148.208z"/>
<path fill="none" stroke="#A5BFCE" stroke-width="0.15" stroke-linejoin="round" stroke-miterlimit="10" d="M80.006,166.845
	c0,0,7.296,14.571,50.516,6.923c0,0,1.071-23.748,0.179-41.828"/>
<path fill="none" stroke="#A5BFCE" stroke-width="0.15" stroke-miterlimit="10" d="M130.343,173.636c0,0,18.887,17.016,51.013,1.24
	v-43.981"/>
<path fill="none" stroke="#A5BFCE" stroke-width="0.15" stroke-miterlimit="10" d="M181.355,174.876c0,0,24.479,17.971,53.163,0
	l0.389-47.682"/>
<path fill="none" stroke="#A5BFCE" stroke-width="0.15" stroke-miterlimit="10" d="M234.526,173.92c0,0,20.144,16.633,43.401-5.932
	v-37.86"/>
<path fill="none" stroke="#A5BFCE" stroke-width="0.15" stroke-miterlimit="10" d="M277.354,167.988c0,0,25.761,7.351,29.779-22.293
	"/>
<path fill="none" stroke="#A5BFCE" stroke-width="0.15" stroke-miterlimit="10" d="M62.795,167.226c0,0-12.236,22.95-11.855,29.832
	c0,0,11.089,26.39,31.36,16.824l-1.914-45.508"/>
<path fill="none" stroke="#A5BFCE" stroke-width="0.15" stroke-miterlimit="10" d="M82.3,213.882c0,0,2.295,25.631,43.6,12.621
	V174.54"/>
<path fill="none" stroke="#A5BFCE" stroke-width="0.15" stroke-miterlimit="10" d="M125.04,225.646c0,0,23.808,40.825,55.935,6.407
	v-57.944"/>
<path fill="none" stroke="#A5BFCE" stroke-width="0.15" stroke-miterlimit="10" d="M180.599,232.151c0,0,36.313,32.026,54.301-8.418
	v-49.624"/>
<path fill="none" stroke="#A5BFCE" stroke-width="0.15" stroke-miterlimit="10" d="M234.495,225.073c0,0,29.092,21.035,42.859-8.795
	v-47.521"/>
<path fill="none" stroke="#A5BFCE" stroke-width="0.15" stroke-miterlimit="10" d="M277.354,216.278
	c0,0,36.272,11.564,29.257-26.967c-1.146-6.297-8.037-25.304-8.037-25.304"/>
<path fill="#D88FBF" d="M304.898,183.671c-1.834-6.034,10.48,7.542,11.471,11.478c3.017,11.958-0.004,49.338-0.004,49.338
	C171.797,365.343,43.29,242.954,43.29,242.954s-4.106-35.758,1.151-46.277c2.565-5.13,7.387-4.726,7.387-4.726
	s-1.082,27.481,29.612,22.89c0,0,4.302,23.525,44.46,11.761c0,0,22.088,38.44,55.074,6.312c0,0,35.568,28.97,53.352-7.173
	c0,0,28.687,18.934,43.315-8.606C277.642,217.135,317.811,226.22,304.898,183.671z"/>
<path fill="#D88FBF" d="M50.546,111.769c0,0-1.91,23.39,6.104,36.439c0,0-1.522-21.014,23.666-9.15c0,0,20.616-41.529,50.385-7.118
	c0,0,20.611-45.087,50.382,0c0,0,27.487-41.528,53.825-4.745c0,0,21.758-21.357,43.508,4.745c0,0,32.065-5.932,28.632,14.239
	c0,0,11.451-10.682,2.291-42.716c0,0-34.355,2.374-70.998-16.611c0,0-29.771-18.985-57.258,7.12c0,0-29.771-24.919-66.413-2.968
	C114.669,91.004,70.777,117.229,50.546,111.769z"/>
<g>
	<path fill="#E0BF1E" d="M189.997,35.654c0,0,7.651,15.001,7.443,38.683c0,0,36.642-3.316,71.606,20.869
		c0,0,10.362-16.809,27.293-28.617c0,0-38.222,24-15.155-20.037c0,0-39.147,41.686-30.455-18.611c0,0-26.314,55.132-36.209-1.398
		C214.521,26.542,210.356,75.408,189.997,35.654z"/>
	<path fill="#E0BF1E" d="M257.518,24.14c-0.868,2.944-3.956,4.631-6.897,3.769c-2.942-0.863-4.632-3.949-3.768-6.893
		c0.864-2.945,3.948-4.63,6.89-3.771C256.688,18.109,258.378,21.197,257.518,24.14z"/>
	<path fill="#E0BF1E" d="M218.786,22.475c-0.758,2.587-3.465,4.066-6.058,3.306c-2.576-0.756-4.062-3.463-3.303-6.045
		c0.758-2.585,3.468-4.066,6.049-3.308C218.06,17.185,219.54,19.893,218.786,22.475z"/>
	<path fill="#E0BF1E" d="M289.146,43.572c-0.758,2.582-3.46,4.062-6.045,3.306c-2.593-0.758-4.065-3.465-3.308-6.046
		c0.75-2.587,3.465-4.068,6.042-3.311C288.42,38.277,289.905,40.988,289.146,43.572z"/>
	<path fill="#E0BF1E" d="M302.393,65.289c-0.565,1.924-2.581,3.028-4.506,2.46c-1.921-0.562-3.021-2.577-2.463-4.499
		c0.566-1.923,2.585-3.023,4.506-2.463C301.854,61.352,302.954,63.366,302.393,65.289z"/>
	<path fill="#E0BF1E" d="M193.301,32.847c-0.566,1.919-2.581,3.021-4.502,2.458c-1.921-0.564-3.028-2.577-2.463-4.503
		c0.565-1.921,2.58-3.022,4.498-2.459C192.762,28.906,193.862,30.92,193.301,32.847z"/>
</g>
</svg>
